<svg id="visual" viewBox="0 0 960 540" width="960" height="540" xmlns="http://www.w3.org/2000/svg" xmlns:xlink="http://www.w3.org/1999/xlink" version="1.1"><path d="M0 222L87 222L87 190L175 190L175 168L262 168L262 163L349 163L349 244L436 244L436 255L524 255L524 152L611 152L611 185L698 185L698 141L785 141L785 217L873 217L873 179L960 179L960 174L960 0L960 0L873 0L873 0L785 0L785 0L698 0L698 0L611 0L611 0L524 0L524 0L436 0L436 0L349 0L349 0L262 0L262 0L175 0L175 0L87 0L87 0L0 0Z" fill="#db251e"></path><path d="M0 314L87 314L87 260L175 260L175 255L262 255L262 212L349 212L349 287L436 287L436 336L524 336L524 271L611 271L611 260L698 260L698 201L785 201L785 357L873 357L873 309L960 309L960 293L960 172L960 177L873 177L873 215L785 215L785 139L698 139L698 183L611 183L611 150L524 150L524 253L436 253L436 242L349 242L349 161L262 161L262 166L175 166L175 188L87 188L87 220L0 220Z" fill="#e44b43"></path><path d="M0 401L87 401L87 341L175 341L175 336L262 336L262 303L349 303L349 374L436 374L436 390L524 390L524 347L611 347L611 347L698 347L698 255L785 255L785 401L873 401L873 379L960 379L960 368L960 291L960 307L873 307L873 355L785 355L785 199L698 199L698 258L611 258L611 269L524 269L524 334L436 334L436 285L349 285L349 210L262 210L262 253L175 253L175 258L87 258L87 312L0 312Z" fill="#e96a64"></path><path d="M0 503L87 503L87 503L175 503L175 433L262 433L262 487L349 487L349 471L436 471L436 498L524 498L524 438L611 438L611 476L698 476L698 460L785 460L785 487L873 487L873 498L960 498L960 449L960 366L960 377L873 377L873 399L785 399L785 253L698 253L698 345L611 345L611 345L524 345L524 388L436 388L436 372L349 372L349 301L262 301L262 334L175 334L175 339L87 339L87 399L0 399Z" fill="#ea8784"></path><path d="M0 541L87 541L87 541L175 541L175 541L262 541L262 541L349 541L349 541L436 541L436 541L524 541L524 541L611 541L611 541L698 541L698 541L785 541L785 541L873 541L873 541L960 541L960 541L960 447L960 496L873 496L873 485L785 485L785 458L698 458L698 474L611 474L611 436L524 436L524 496L436 496L436 469L349 469L349 485L262 485L262 431L175 431L175 501L87 501L87 501L0 501Z" fill="#e8a2a2"></path></svg>