<svg xmlns="http://www.w3.org/2000/svg" version="1.0" width="110.000000pt" height="110.000000pt" viewBox="0 0 110.000000 110.000000" preserveAspectRatio="xMidYMid meet">

<g transform="translate(0.000000,110.000000) scale(0.100000,-0.100000)" fill="#db251e" stroke="none">
<path d="M463 1090 c-267 -48 -457 -271 -457 -540 0 -246 160 -457 398 -525 84 -24 222 -22 307 4 165 52 308 195 360 360 26 85 28 223 4 307 -52 180 -195 325 -372 377 -69 21 -176 28 -240 17z m201 -55 c200 -52 348 -213 379 -414 49 -319 -239 -610 -559 -564 -291 42 -490 331 -419 608 25 98 64 165 134 236 126 126 302 176 465 134z"/>
<path d="M625 621 l-179 -180 -77 74 c-45 44 -85 75 -97 75 -21 0 -62 -43 -62 -64 0 -21 213 -226 234 -226 20 0 416 383 438 424 8 14 5 25 -9 45 -41 54 -54 46 -248 -148z"/>
</g>
</svg>