<?xml version="1.0" encoding="UTF-8"?>
<svg xmlns="http://www.w3.org/2000/svg" id="VALUES" viewBox="0 0 100 100">
  <defs>
    <style>
      .cls-1 {
        fill: #db251e;
      }
    </style>
  </defs>
  <path class="cls-1" d="M50,0C22.39,0,0,22.39,0,50s22.39,50,50,50,50-22.39,50-50S77.61,0,50,0ZM50,95c-24.85,0-45-20.15-45-45S25.15,5,50,5s45,20.15,45,45-20.15,45-45,45Z"></path>
  <g>
    <path class="cls-1" d="M75.41,77.68c-3.5-6.6-6.99-13.2-10.51-19.79-.28-.53-.3-.75.31-1.03,2.27-1.07,3.47-2.92,3.63-5.42.02-.38.15-.56.48-.75,2.87-1.6,4.02-4.19,3.25-7.36-.11-.44,0-.71.23-1.04,1.8-2.59,1.69-5.48-.31-7.91-.31-.38-.33-.68-.2-1.12.85-2.86-.16-5.65-2.68-7.2-.58-.36-.79-.77-.92-1.38-.59-2.89-2.85-4.85-5.81-5.04-.4-.03-.62-.12-.82-.5-1.52-2.82-4.2-4.03-7.27-3.26-.51.13-.82,0-1.2-.26-2.57-1.74-5.45-1.62-7.83.37-.39.32-.69.31-1.12.18-3.02-.85-5.74.22-7.35,2.91-.23.38-.47.52-.88.61-3.24.67-5.03,2.65-5.37,5.91-.04.4-.15.62-.52.82-2.81,1.55-4,4.2-3.24,7.28.12.47.02.76-.23,1.13-1.78,2.64-1.66,5.46.36,7.91.29.36.3.62.18,1.03-.87,2.94.19,5.74,2.79,7.33.49.3.67.63.78,1.18.39,2.06,1.5,3.63,3.42,4.51.71.33.64.6.34,1.16-3.52,6.59-7.01,13.19-10.51,19.8-.14.27-.38.51-.34.94,2.72-.43,5.4-.82,8.07-1.28.68-.11,1.06-.02,1.37.68.94,2.15,1.97,4.27,2.98,6.39.17.36.24.8.64,1.07.16-.28.3-.54.44-.8,3.77-7.1,7.54-14.19,11.31-21.29.24-.45.41-.84,1.09-.83.66,0,.78.42,1,.83,3.76,7.07,7.51,14.14,11.28,21.21.16.3.22.68.64.87.99-2.11,1.98-4.21,2.96-6.31.94-2,.94-1.98,3.11-1.61,2.26.38,4.52.71,6.98,1.09-.24-.48-.38-.77-.53-1.06ZM34.68,38.66c0-8.41,6.82-15.21,15.25-15.21,8.43,0,15.22,6.8,15.23,15.23,0,8.48-6.81,15.28-15.29,15.27-8.39-.01-15.19-6.85-15.19-15.29ZM47.43,62.68c-3.36,6.33-6.73,12.67-10.09,19-.04.07-.13.11-.25.21-.87-1.85-1.76-3.66-2.56-5.51-.32-.74-.73-.92-1.5-.77-1.69.33-3.41.57-5.11.83-.26.04-.53.04-.8.06-.09-.37.15-.59.28-.83,3.06-5.79,6.13-11.57,9.2-17.35.17-.32.21-.82.71-.82.46,0,.47.48.63.77,1.37,2.44,4.16,3.63,7.04,2.99.49-.11,2.24.55,2.52.93.14.2,0,.33-.07.48ZM68.37,75.89c-.85-.12-1.81-.62-2.51-.24-.66.36-.79,1.41-1.15,2.15-.66,1.36-1.29,2.72-2,4.22-.86-1.61-1.64-3.08-2.42-4.55-2.57-4.83-5.13-9.67-7.72-14.5-.29-.53-.17-.67.3-1.06,1.2-1.01,2.4-.99,3.88-.77,2.17.32,4-.67,5.36-2.42.25-.33.47-.68.71-1.02.49.61,9.67,17.89,9.98,18.84-1.52-.23-2.97-.45-4.43-.66Z"></path>
    <path class="cls-1" d="M50.01,26.2c-6.91,0-12.5,5.57-12.51,12.47,0,6.91,5.57,12.52,12.45,12.53,6.95,0,12.54-5.57,12.54-12.52,0-6.91-5.57-12.48-12.48-12.48ZM50.07,49.77c-6.14,0-11.14-4.97-11.13-11.09,0-6.09,4.97-11.04,11.08-11.04,6.11,0,11.04,4.95,11.04,11.07,0,6.05-4.97,11.05-10.99,11.06Z"></path>
  </g>
</svg>
