<svg xmlns="http://www.w3.org/2000/svg" version="1.0" width="110.000000pt" height="110.000000pt" viewBox="0 0 110.000000 110.000000" preserveAspectRatio="xMidYMid meet">

<g transform="translate(0.000000,110.000000) scale(0.100000,-0.100000)" fill="#db251e" stroke="none">
<path d="M463 1090 c-118 -21 -249 -92 -319 -173 -267 -309 -129 -780 260 -892 84 -24 222 -22 307 4 163 51 309 197 360 360 26 85 28 223 4 307 -52 180 -195 325 -372 377 -69 21 -176 28 -240 17z m201 -55 c213 -56 363 -229 382 -443 28 -310 -254 -579 -562 -535 -291 42 -490 331 -419 608 25 98 64 165 134 236 126 126 302 176 465 134z"/>
<path d="M251 786 c-15 -18 -16 -16 76 -138 l74 -98 -81 -106 c-44 -59 -80 -110 -80 -114 0 -15 30 -32 45 -27 18 8 185 231 185 249 0 20 -173 242 -191 246 -9 1 -21 -4 -28 -12z"/>
<path d="M442 783 c-8 -15 5 -38 70 -126 l80 -107 -76 -102 c-79 -106 -92 -143 -49 -143 15 0 44 31 107 114 47 63 86 122 86 131 0 25 -168 245 -190 248 -10 2 -23 -5 -28 -15z"/>
<path d="M637 793 c-16 -16 -2 -44 69 -138 41 -54 72 -105 70 -112 -3 -7 -37 -55 -76 -107 -73 -96 -83 -128 -44 -134 16 -2 40 23 110 115 48 65 88 125 88 133 0 8 -40 68 -88 133 -81 108 -109 131 -129 110z"/>
</g>
</svg>