<?xml version="1.0" encoding="UTF-8"?>
<svg xmlns="http://www.w3.org/2000/svg" id="VALUES" viewBox="0 0 100 100">
  <defs>
    <style>
      .cls-1 {
        fill: #db251e;
      }
    </style>
  </defs>
  <path class="cls-1" d="M50,0C22.39,0,0,22.39,0,50s22.39,50,50,50,50-22.39,50-50S77.61,0,50,0ZM50,95c-24.85,0-45-20.15-45-45S25.15,5,50,5s45,20.15,45,45-20.15,45-45,45Z"></path>
  <path class="cls-1" d="M52.9,74.65c-1.23.04-2.24-.45-3.11-1.27-.41-.39-.76-.5-1.35-.23-1.45.68-3.14.04-3.95-1.45-.24-.44-.41-.53-.9-.35-1.86.68-3.88-.31-4.49-2.19-.16-.49-.28-.67-.86-.6-2.35.29-3.71-.59-4.51-2.88-.14-.39-.24-.38-.58-.27-1.94.65-3.61.13-4.64-1.38-1.05-1.55-.87-3.44.46-4.99q.92-1.07,0-2.15c-1.29-1.5-2.58-3-3.85-4.52-.35-.42-.62-.63-1.19-.3-.89.5-1.84.41-2.71-.11-2.39-1.43-4.75-2.9-7.14-4.31-.55-.33-.24-.59-.06-.89,2.79-4.58,5.58-9.15,8.37-13.73.55-.91,1.11-1.81,1.64-2.73.2-.35.36-.42.73-.19,2.34,1.5,4.72,2.95,7.05,4.46.89.58,1.42,1.44,1.32,2.55-.05.62.23.82.75,1.02,2.3.9,4.68.73,7.05.56,1.7-.13,3.38-.21,5.02.38.35.12.59.06.83-.23,1.58-1.93,3.62-2.19,5.92-1.7,2.24.48,4.42,1.22,6.7,1.54,2.39.33,4.74.28,7.07-.4.5-.15.69-.31.61-.87-.17-1.26.39-2.25,1.44-2.91,2.32-1.48,4.68-2.9,7-4.38.42-.27.57-.12.78.23,3.23,5.41,6.47,10.83,9.73,16.22.35.58.24.83-.32,1.16-2.15,1.26-4.28,2.57-6.4,3.88-1.18.73-2.37,1.01-3.64.25-.31-.18-.46-.06-.64.16-1.81,2.11-3.62,4.23-5.44,6.33-.25.29-.3.59-.31.95-.05,2.73-1.51,4.49-4.17,4.96-.36.06-.48.23-.58.51-.52,1.41-1.51,2.34-2.92,2.83-.38.13-.6.32-.76.71-.55,1.34-1.51,2.3-2.92,2.71-.45.13-.6.45-.78.82-.85,1.8-2.25,2.77-4.25,2.8ZM45.09,40.37c-.35-.09-.54-.15-.73-.19-1.41-.32-2.8,0-4.19.1-2.51.18-4.99.19-7.35-.87-.41-.18-.6-.11-.82.26-2.08,3.47-4.16,6.93-6.27,10.38-.24.39-.21.63.08.97,1.57,1.79,3.13,3.59,4.66,5.41.36.43.55.33.84-.03.49-.6,1-1.18,1.52-1.76,1.11-1.23,2.49-1.76,4.1-1.36,1.53.38,2.42,1.49,2.76,3,.12.52.29.62.8.53,2.19-.39,4.08.87,4.52,3.06.12.58.33.64.84.61,1.96-.12,3.28.79,3.8,2.63.12.43.25.58.73.57,1.35-.03,2.39.55,2.98,1.8.6,1.27.36,2.46-.53,3.52-.66.79-1.33,1.58-2.03,2.34-.35.37-.28.56.1.86,2.18,1.75,4.77.76,5.27-2.01.05-.27,0-.51.45-.55,2.03-.17,2.79-.88,3.19-2.92.07-.36.18-.43.54-.45,1.94-.11,3.04-1.29,3.1-3.29.01-.43.12-.51.48-.39.5.17,1.01.2,1.52.06,1.18-.31,2.01-1.04,2.26-2.23.26-1.25.12-2.45-.96-3.37-4.33-3.71-8.66-7.43-12.98-11.17-.42-.37-.6-.2-.88.12-1.65,1.91-3.29,3.83-4.98,5.7-2.09,2.32-5.64,2.12-7.46-.39-1.26-1.73-1.18-4.01.25-5.73,1.42-1.72,2.88-3.41,4.41-5.22ZM69.01,56.8c1.71-1.97,3.49-4.03,5.29-6.08.33-.38.08-.63-.09-.91-1.99-3.25-3.99-6.5-5.95-9.77-.29-.48-.54-.58-1.09-.4-2.55.85-5.16.97-7.82.58-2.64-.39-5.2-1.17-7.81-1.71-1.3-.27-2.47-.1-3.39.93-2.1,2.36-4.18,4.73-6.25,7.11-.61.7-.9,1.54-.74,2.47.23,1.36,1.09,2.18,2.37,2.56,1.25.37,2.34,0,3.19-.95,1.81-2.04,3.59-4.1,5.38-6.16,1.11-1.28,1.11-1.29,2.39-.19,4.83,4.15,9.65,8.31,14.51,12.5ZM31.77,64.13c.73.01,1.34-.27,1.82-.81,1.37-1.55,2.75-3.09,4.1-4.65.9-1.04.83-2.44-.13-3.32-.89-.82-2.37-.82-3.27.14-1.49,1.59-2.93,3.23-4.33,4.9-.62.74-.67,1.64-.2,2.51.42.79,1.09,1.23,2.01,1.24ZM37.7,67.16c.73-.03,1.29-.32,1.75-.84,1.18-1.36,2.37-2.71,3.54-4.09.88-1.05.81-2.45-.13-3.32-.9-.83-2.36-.84-3.26.11-1.33,1.42-2.59,2.9-3.82,4.41-.61.74-.63,1.64-.16,2.5.45.83,1.19,1.2,2.08,1.23ZM40.68,68.12c.02.85.38,1.49,1.2,1.8.83.31,1.58.2,2.19-.49,1.17-1.34,2.34-2.67,3.49-4.02.83-.97.8-2.16-.04-2.92-.82-.73-2.06-.61-2.9.34-1.14,1.28-2.25,2.6-3.39,3.89-.35.4-.57.85-.57,1.4ZM47.52,71.97c.37-.05.78-.16,1.08-.51,1.06-1.21,2.12-2.41,3.14-3.65.56-.69.44-1.62-.19-2.16-.62-.53-1.51-.54-2.1.1-1.11,1.2-2.17,2.44-3.22,3.7-.42.5-.42,1.11-.12,1.7.28.54.76.75,1.4.82Z"></path>
</svg>
