<?xml version="1.0" encoding="UTF-8"?>
<!DOCTYPE svg PUBLIC "-//W3C//DTD SVG 1.1//EN" "http://www.w3.org/Graphics/SVG/1.1/DTD/svg11.dtd">
<!-- Creator: CorelDRAW 2021 (64-Bit) -->
<svg xmlns="http://www.w3.org/2000/svg" xml:space="preserve" width="65.419mm" height="65.4194mm" version="1.1" style="shape-rendering:geometricPrecision; text-rendering:geometricPrecision; image-rendering:optimizeQuality; fill-rule:evenodd; clip-rule:evenodd"
viewBox="0 0 523.57 523.57"
 xmlns:xlink="http://www.w3.org/1999/xlink"
 xmlns:xodm="http://www.corel.com/coreldraw/odm/2003">
 <defs>
  <style type="text/css">
   <![CDATA[
    .fil0 {fill:#DA251C}
    .fil2 {fill:white}
    .fil1 {fill:white;fill-rule:nonzero}
   ]]>
  </style>
 </defs>
 <g id="Layer_x0020_1">
  <metadata id="CorelCorpID_0Corel-Layer"/>
  <rect class="fil0" width="523.57" height="523.57"/>
  <path class="fil1" d="M246.36 259.32l2.74 0 -0.62 13.93 -34.69 0 0 -2.8 0.78 0c2.42,0 3.83,-0.26 4.25,-0.78 0.17,-0.21 0.28,-0.48 0.31,-0.83 0.03,-0.24 0.05,-1.28 0.05,-3.11l0 -22.42c0,-1.76 -0.02,-2.76 -0.05,-3 -0.07,-0.38 -0.17,-0.67 -0.31,-0.88 -0.41,-0.52 -1.83,-0.78 -4.25,-0.78l-0.78 0 0 -2.8 20.5 0 0 2.8 -1.14 0c-2.45,0 -3.88,0.26 -4.3,0.78 -0.14,0.21 -0.24,0.5 -0.31,0.88 -0.03,0.24 -0.05,1.24 -0.05,3l0 23.51c0,1.41 0.28,2.38 0.83,2.9 0.31,0.31 0.71,0.51 1.19,0.6 0.48,0.09 1.36,0.13 2.64,0.13l1.09 0c3.66,0 6.58,-1.29 8.75,-3.88 1.35,-1.66 2.47,-4.07 3.37,-7.25zm11.29 3.21l11.75 -27.44 3.93 0 13.31 32.1c0.59,1.31 1.16,2.17 1.71,2.59 0.69,0.41 1.74,0.64 3.16,0.67l0 2.8 -18.17 0 0 -2.8 0.88 -0.05c1.62,0 2.58,-0.22 2.87,-0.65 0.29,-0.43 0.13,-1.34 -0.49,-2.72l-1.97 -5.07 -12.89 0 -0.83 1.97c-0.55,1.21 -0.83,2.19 -0.83,2.95 0,1.17 0.4,2.04 1.19,2.59 0.79,0.55 2.12,0.88 3.99,0.98l0 2.8 -14.96 0 0 -2.8c1.55,-0.17 2.88,-0.85 3.99,-2.02 1.1,-1.17 2.23,-3.14 3.37,-5.9zm15.69 -4.04l-5.02 -12.37 -5.23 12.37 10.25 0zm17.14 -22.63l34.28 0 0.78 14.03 -2.74 0c-0.66,-3.73 -1.67,-6.49 -3.05,-8.28 -1.62,-2.04 -3.49,-3.05 -5.59,-3.05 -0.76,0 -1.26,0.13 -1.5,0.39 -0.24,0.26 -0.36,0.84 -0.36,1.74l0 25.11c0,1.8 0.02,2.81 0.05,3.06 0.03,0.34 0.14,0.62 0.31,0.83 0.41,0.52 1.85,0.78 4.3,0.78l1.14 0 0 2.8 -20.92 0 0 -2.8 1.14 0c2.45,0 3.88,-0.26 4.3,-0.78 0.17,-0.21 0.28,-0.48 0.31,-0.83 0.03,-0.24 0.05,-1.26 0.05,-3.06l0 -25.11c0,-0.9 -0.12,-1.48 -0.36,-1.74 -0.24,-0.26 -0.74,-0.39 -1.5,-0.39 -2.38,0 -4.38,1.23 -6.01,3.68 -1.21,1.73 -2.09,4.28 -2.64,7.66l-2.74 0 0.78 -14.03zm36.66 0l34.74 0 0.31 13.46 -2.69 0c-0.83,-2.93 -1.83,-5.21 -3,-6.83 -1.86,-2.55 -4.78,-3.83 -8.75,-3.83l-1.45 0c-2.07,0 -3.38,0.38 -3.94,1.14 -0.34,0.48 -0.52,1.59 -0.52,3.31l0 9.37 0.88 0c2.04,0 3.67,-0.63 4.89,-1.89 1.23,-1.26 1.98,-3.08 2.25,-5.46l2.8 0 0 17.55 -2.8 0c-0.28,-2.38 -1.03,-4.2 -2.25,-5.46 -1.23,-1.26 -2.86,-1.89 -4.89,-1.89l-0.88 0 0 11.49c0,1.41 0.28,2.38 0.83,2.9 0.31,0.31 0.71,0.51 1.19,0.6 0.48,0.09 1.36,0.13 2.64,0.13l1.55 0c3.14,0 5.68,-0.89 7.61,-2.67 1.93,-1.78 3.44,-4.6 4.5,-8.47l2.74 0 -0.62 13.93 -35.16 0 0 -2.8 0.78 0c2.42,0 3.83,-0.26 4.25,-0.78 0.17,-0.21 0.28,-0.48 0.31,-0.83 0.04,-0.24 0.05,-1.26 0.05,-3.06l0 -22.47c0,-1.76 -0.02,-2.76 -0.05,-3 -0.07,-0.38 -0.17,-0.67 -0.31,-0.88 -0.41,-0.52 -1.83,-0.78 -4.25,-0.78l-0.78 0 0 -2.8zm53.07 5.8l8.23 20.92 7.35 -18.43c0.31,-0.76 0.47,-1.42 0.47,-1.97 0,-1.38 -0.6,-2.36 -1.81,-2.95 -0.69,-0.38 -1.76,-0.57 -3.21,-0.57l0 -2.8 15.27 0 0 2.8c-3.17,0.31 -5.56,2.5 -7.14,6.58l-11.86 28.79 -4.56 0 -12.58 -31.79c-0.55,-1.45 -1.17,-2.42 -1.86,-2.9 -0.59,-0.45 -1.66,-0.67 -3.21,-0.67l0 -2.8 18.74 0 0 2.8 -1.09 0c-2.14,0 -3.21,0.43 -3.21,1.29 0,0.31 0.16,0.88 0.47,1.71z"/>
  <path class="fil1" d="M213.8 278.33l9.24 0 0.08 3.58 -0.72 0c-0.22,-0.78 -0.49,-1.39 -0.8,-1.82 -0.5,-0.68 -1.27,-1.02 -2.33,-1.02l-0.39 0c-0.55,0 -0.9,0.1 -1.05,0.3 -0.09,0.13 -0.14,0.42 -0.14,0.88l0 2.49 0.23 0c0.54,0 0.98,-0.17 1.3,-0.5 0.33,-0.34 0.53,-0.82 0.6,-1.45l0.74 0 0 4.67 -0.74 0c-0.07,-0.63 -0.27,-1.12 -0.6,-1.45 -0.33,-0.34 -0.76,-0.5 -1.3,-0.5l-0.23 0 0 3.06c0,0.38 0.07,0.63 0.22,0.77 0.08,0.08 0.19,0.14 0.32,0.16 0.13,0.02 0.36,0.03 0.7,0.03l0.41 0c0.84,0 1.51,-0.24 2.02,-0.71 0.51,-0.47 0.91,-1.22 1.2,-2.25l0.73 0 -0.17 3.7 -9.35 0 0 -0.74 0.21 0c0.64,0 1.02,-0.07 1.13,-0.21 0.05,-0.06 0.07,-0.13 0.08,-0.22 0.01,-0.06 0.01,-0.33 0.01,-0.81l0 -5.98c0,-0.47 -0,-0.73 -0.01,-0.8 -0.02,-0.1 -0.05,-0.18 -0.08,-0.23 -0.11,-0.14 -0.49,-0.21 -1.13,-0.21l-0.21 0 0 -0.74zm10.48 0l3.47 0 5.32 6.23 0 -3.24c0,-0.59 -0.02,-1.01 -0.07,-1.27 -0.05,-0.26 -0.14,-0.46 -0.29,-0.61 -0.22,-0.24 -0.6,-0.36 -1.13,-0.37l0 -0.74 3.93 0 0 0.74c-0.55,0.02 -0.94,0.14 -1.16,0.37 -0.15,0.15 -0.24,0.34 -0.29,0.59 -0.05,0.26 -0.07,0.68 -0.07,1.28l0 7.05 -0.92 0 -6.41 -7.62 0 4.53c0,0.59 0.02,1.01 0.07,1.27 0.05,0.25 0.14,0.45 0.29,0.59 0.21,0.22 0.6,0.34 1.16,0.37l0 0.74 -3.92 0 0 -0.74c0.55,-0.03 0.93,-0.15 1.13,-0.37 0.15,-0.15 0.24,-0.34 0.29,-0.59 0.05,-0.26 0.07,-0.68 0.07,-1.27l0 -5.43c-0.35,-0.5 -0.84,-0.75 -1.46,-0.77l0 -0.76zm20.33 -0.15l0.61 0 0.12 3.95 -0.73 0c-0.23,-1.05 -0.63,-1.86 -1.2,-2.43 -0.57,-0.57 -1.26,-0.86 -2.08,-0.86 -0.4,0 -0.78,0.09 -1.12,0.28 -0.34,0.18 -0.62,0.44 -0.82,0.76 -0.52,0.84 -0.79,2.01 -0.79,3.5 0,1.31 0.19,2.38 0.56,3.21 0.17,0.38 0.42,0.67 0.75,0.87 0.33,0.21 0.7,0.31 1.12,0.31 0.61,0 1.11,-0.2 1.48,-0.59 0.37,-0.39 0.56,-0.91 0.56,-1.55l0 -0.19c0,-0.51 -0.06,-0.8 -0.18,-0.89 -0.13,-0.1 -0.49,-0.15 -1.07,-0.15l-0.15 0 0 -0.74 4.89 0 0 0.74c-0.66,0.02 -1.04,0.08 -1.13,0.19 -0.04,0.06 -0.06,0.13 -0.08,0.23 -0.01,0.06 -0.01,0.34 -0.01,0.81l0 2.84 -0.73 0 -0.67 -1.35c-0.38,0.38 -0.7,0.64 -0.96,0.8 -0.68,0.38 -1.45,0.57 -2.31,0.57 -1.41,0 -2.57,-0.46 -3.47,-1.39 -0.89,-0.93 -1.34,-2.14 -1.34,-3.64 0,-1.48 0.45,-2.7 1.36,-3.66 1.03,-1.11 2.35,-1.67 3.95,-1.67 0.5,0 0.93,0.05 1.31,0.16 0.38,0.11 0.82,0.3 1.32,0.58l0.81 -0.69zm3.76 8.11l0 -5.98c0,-0.47 -0,-0.73 -0.01,-0.8 -0.02,-0.1 -0.05,-0.18 -0.08,-0.23 -0.11,-0.14 -0.49,-0.21 -1.13,-0.21l-0.21 0 0 -0.74 5.36 0 0 0.74 -0.21 0c-0.65,0 -1.03,0.07 -1.14,0.21 -0.05,0.06 -0.07,0.13 -0.08,0.22 -0.01,0.06 -0.01,0.33 -0.01,0.81l0 5.98c0,0.48 0,0.75 0.01,0.81 0.01,0.09 0.04,0.17 0.08,0.22 0.11,0.14 0.49,0.21 1.14,0.21l0.21 0 0 0.74 -5.36 0 0 -0.74 0.21 0c0.64,0 1.02,-0.07 1.13,-0.21 0.05,-0.06 0.07,-0.13 0.08,-0.22 0.01,-0.06 0.01,-0.33 0.01,-0.81zm4.78 -7.96l3.47 0 5.32 6.23 0 -3.24c0,-0.59 -0.02,-1.01 -0.07,-1.27 -0.05,-0.26 -0.14,-0.46 -0.29,-0.61 -0.22,-0.24 -0.6,-0.36 -1.13,-0.37l0 -0.74 3.93 0 0 0.74c-0.55,0.02 -0.94,0.14 -1.16,0.37 -0.15,0.15 -0.24,0.34 -0.29,0.59 -0.05,0.26 -0.07,0.68 -0.07,1.28l0 7.05 -0.92 0 -6.4 -7.62 0 4.53c0,0.59 0.02,1.01 0.07,1.27 0.05,0.25 0.14,0.45 0.29,0.59 0.21,0.22 0.6,0.34 1.16,0.37l0 0.74 -3.93 0 0 -0.74c0.55,-0.03 0.93,-0.15 1.13,-0.37 0.15,-0.15 0.24,-0.34 0.29,-0.59 0.05,-0.26 0.07,-0.68 0.07,-1.27l0 -5.43c-0.35,-0.5 -0.84,-0.75 -1.46,-0.77l0 -0.76zm11.45 0l9.24 0 0.08 3.58 -0.72 0c-0.22,-0.78 -0.49,-1.39 -0.8,-1.82 -0.5,-0.68 -1.27,-1.02 -2.33,-1.02l-0.39 0c-0.55,0 -0.9,0.1 -1.05,0.3 -0.09,0.13 -0.14,0.42 -0.14,0.88l0 2.49 0.23 0c0.54,0 0.98,-0.17 1.3,-0.5 0.33,-0.34 0.53,-0.82 0.6,-1.45l0.74 0 0 4.67 -0.74 0c-0.07,-0.63 -0.27,-1.12 -0.6,-1.45 -0.33,-0.34 -0.76,-0.5 -1.3,-0.5l-0.23 0 0 3.06c0,0.38 0.07,0.63 0.22,0.77 0.08,0.08 0.19,0.14 0.32,0.16 0.13,0.02 0.36,0.03 0.7,0.03l0.41 0c0.84,0 1.51,-0.24 2.02,-0.71 0.51,-0.47 0.91,-1.22 1.2,-2.25l0.73 0 -0.17 3.7 -9.35 0 0 -0.74 0.21 0c0.64,0 1.02,-0.07 1.13,-0.21 0.05,-0.06 0.07,-0.13 0.08,-0.22 0.01,-0.06 0.01,-0.33 0.01,-0.81l0 -5.98c0,-0.47 -0,-0.73 -0.01,-0.8 -0.02,-0.1 -0.05,-0.18 -0.08,-0.23 -0.11,-0.14 -0.49,-0.21 -1.13,-0.21l-0.21 0 0 -0.74zm10.45 0l9.24 0 0.08 3.58 -0.72 0c-0.22,-0.78 -0.49,-1.39 -0.8,-1.82 -0.5,-0.68 -1.27,-1.02 -2.33,-1.02l-0.39 0c-0.55,0 -0.9,0.1 -1.05,0.3 -0.09,0.13 -0.14,0.42 -0.14,0.88l0 2.49 0.23 0c0.54,0 0.98,-0.17 1.3,-0.5 0.33,-0.34 0.53,-0.82 0.6,-1.45l0.74 0 0 4.67 -0.74 0c-0.07,-0.63 -0.27,-1.12 -0.6,-1.45 -0.33,-0.34 -0.76,-0.5 -1.3,-0.5l-0.23 0 0 3.06c0,0.38 0.07,0.63 0.22,0.77 0.08,0.08 0.19,0.14 0.32,0.16 0.13,0.02 0.36,0.03 0.7,0.03l0.41 0c0.84,0 1.51,-0.24 2.02,-0.71 0.51,-0.47 0.91,-1.22 1.2,-2.25l0.73 0 -0.16 3.7 -9.35 0 0 -0.74 0.21 0c0.64,0 1.02,-0.07 1.13,-0.21 0.05,-0.06 0.07,-0.13 0.08,-0.22 0.01,-0.06 0.01,-0.33 0.01,-0.81l0 -5.98c0,-0.47 -0,-0.73 -0.01,-0.8 -0.02,-0.1 -0.05,-0.18 -0.08,-0.23 -0.11,-0.14 -0.49,-0.21 -1.13,-0.21l-0.21 0 0 -0.74zm15.19 5.17l-0.77 0 0 2.78c0,0.48 0,0.75 0.01,0.81 0.01,0.08 0.04,0.16 0.08,0.23 0.13,0.13 0.51,0.19 1.14,0.19l0.36 0 0 0.74 -5.51 0 0 -0.74 0.21 0c0.62,0 1,-0.06 1.13,-0.19 0.05,-0.07 0.07,-0.15 0.08,-0.23 0.01,-0.06 0.01,-0.33 0.01,-0.81l0 -5.96c0,-0.48 -0,-0.75 -0.01,-0.81 -0.01,-0.08 -0.04,-0.16 -0.08,-0.23 -0.13,-0.13 -0.51,-0.19 -1.13,-0.19l-0.21 0 0 -0.74 5.88 0c1.29,0 2.19,0.16 2.71,0.5 0.74,0.48 1.12,1.14 1.12,2 0,0.93 -0.44,1.62 -1.32,2.08 -0.3,0.15 -0.78,0.28 -1.43,0.4 0.6,0.2 1.04,0.47 1.34,0.81 0.29,0.34 0.49,0.82 0.59,1.45l0.1 0.52c0.04,0.22 0.06,0.35 0.06,0.39 0.05,0.37 0.11,0.58 0.16,0.65 0.09,0.14 0.23,0.21 0.4,0.21 0.4,0 0.62,-0.44 0.63,-1.31l0.74 0 0 0.17c0,0.73 -0.2,1.3 -0.61,1.7 -0.41,0.4 -0.98,0.6 -1.73,0.6 -1.23,0 -1.97,-0.55 -2.2,-1.64 -0.06,-0.33 -0.12,-0.91 -0.19,-1.72 -0.03,-0.38 -0.06,-0.64 -0.1,-0.79 -0.04,-0.15 -0.12,-0.29 -0.23,-0.43 -0.25,-0.28 -0.66,-0.41 -1.23,-0.41zm-0.77 -3.54l0 2.78 0.76 0c0.91,0 1.54,-0.13 1.89,-0.4 0.35,-0.27 0.52,-0.75 0.52,-1.45 0,-0.62 -0.15,-1.08 -0.45,-1.38 -0.3,-0.29 -0.77,-0.44 -1.41,-0.44l-0.33 0c-0.43,0 -0.71,0.05 -0.83,0.15 -0.1,0.1 -0.15,0.34 -0.15,0.73zm9.06 6.34l0 -5.98c0,-0.47 -0,-0.73 -0.01,-0.8 -0.02,-0.1 -0.05,-0.18 -0.08,-0.23 -0.11,-0.14 -0.49,-0.21 -1.13,-0.21l-0.21 0 0 -0.74 5.36 0 0 0.74 -0.21 0c-0.65,0 -1.03,0.07 -1.14,0.21 -0.05,0.06 -0.07,0.13 -0.08,0.22 -0.01,0.06 -0.01,0.33 -0.01,0.81l0 5.98c0,0.48 0,0.75 0.01,0.81 0.01,0.09 0.04,0.17 0.08,0.22 0.11,0.14 0.49,0.21 1.14,0.21l0.21 0 0 0.74 -5.36 0 0 -0.74 0.21 0c0.64,0 1.02,-0.07 1.13,-0.21 0.05,-0.06 0.07,-0.13 0.08,-0.22 0.01,-0.06 0.01,-0.33 0.01,-0.81zm4.78 -7.96l3.47 0 5.32 6.23 0 -3.24c0,-0.59 -0.02,-1.01 -0.07,-1.27 -0.05,-0.26 -0.14,-0.46 -0.29,-0.61 -0.22,-0.24 -0.6,-0.36 -1.13,-0.37l0 -0.74 3.93 0 0 0.74c-0.55,0.02 -0.94,0.14 -1.16,0.37 -0.15,0.15 -0.24,0.34 -0.29,0.59 -0.05,0.26 -0.07,0.68 -0.07,1.28l0 7.05 -0.92 0 -6.41 -7.62 0 4.53c0,0.59 0.02,1.01 0.07,1.27 0.05,0.25 0.14,0.45 0.29,0.59 0.21,0.22 0.6,0.34 1.16,0.37l0 0.74 -3.92 0 0 -0.74c0.55,-0.03 0.93,-0.15 1.13,-0.37 0.15,-0.15 0.24,-0.34 0.29,-0.59 0.05,-0.26 0.07,-0.68 0.07,-1.27l0 -5.43c-0.35,-0.5 -0.84,-0.75 -1.46,-0.77l0 -0.76zm20.33 -0.15l0.61 0 0.12 3.95 -0.73 0c-0.23,-1.05 -0.63,-1.86 -1.2,-2.43 -0.57,-0.57 -1.26,-0.86 -2.08,-0.86 -0.4,0 -0.78,0.09 -1.12,0.28 -0.34,0.18 -0.62,0.44 -0.82,0.76 -0.52,0.84 -0.79,2.01 -0.79,3.5 0,1.31 0.19,2.38 0.56,3.21 0.17,0.38 0.42,0.67 0.75,0.87 0.33,0.21 0.7,0.31 1.12,0.31 0.61,0 1.11,-0.2 1.48,-0.59 0.37,-0.39 0.56,-0.91 0.56,-1.55l0 -0.19c0,-0.51 -0.06,-0.8 -0.18,-0.89 -0.13,-0.1 -0.49,-0.15 -1.07,-0.15l-0.15 0 0 -0.74 4.89 0 0 0.74c-0.66,0.02 -1.04,0.08 -1.13,0.19 -0.04,0.06 -0.06,0.13 -0.08,0.23 -0.01,0.06 -0.01,0.34 -0.01,0.81l0 2.84 -0.73 0 -0.67 -1.35c-0.38,0.38 -0.7,0.64 -0.96,0.8 -0.68,0.38 -1.45,0.57 -2.31,0.57 -1.41,0 -2.57,-0.46 -3.47,-1.39 -0.89,-0.93 -1.34,-2.14 -1.34,-3.64 0,-1.48 0.45,-2.7 1.36,-3.66 1.03,-1.11 2.35,-1.67 3.95,-1.67 0.5,0 0.93,0.05 1.31,0.16 0.38,0.11 0.82,0.3 1.32,0.58l0.81 -0.69zm15.15 0l0.59 0 0.14 3.94 -0.73 0.08c-0.31,-1.15 -0.73,-1.99 -1.24,-2.54 -0.51,-0.55 -1.15,-0.82 -1.91,-0.82 -0.85,0 -1.49,0.37 -1.92,1.1 -0.44,0.73 -0.65,1.81 -0.65,3.24 0,1.52 0.22,2.64 0.67,3.36 0.45,0.73 1.14,1.09 2.08,1.09 0.79,0 1.45,-0.26 1.98,-0.79 0.53,-0.52 0.89,-1.26 1.07,-2.22l0.85 0.21c-0.27,1.24 -0.76,2.16 -1.47,2.75 -0.72,0.6 -1.68,0.9 -2.89,0.9 -1.56,0 -2.81,-0.51 -3.73,-1.52 -0.87,-0.97 -1.31,-2.15 -1.31,-3.54 0,-1.55 0.49,-2.82 1.46,-3.8 0.97,-1 2.22,-1.5 3.75,-1.5 0.5,0 0.93,0.05 1.3,0.16 0.37,0.11 0.78,0.3 1.22,0.57l0.74 -0.68zm7.33 -0.05c1.34,0 2.46,0.39 3.35,1.17 0.57,0.49 1.02,1.1 1.35,1.84 0.33,0.74 0.5,1.51 0.5,2.31 0,1.65 -0.61,2.97 -1.84,3.97 -0.91,0.72 -2.05,1.07 -3.42,1.07 -1.51,0 -2.74,-0.47 -3.69,-1.42 -0.96,-0.95 -1.45,-2.16 -1.45,-3.61 0,-0.81 0.16,-1.58 0.49,-2.31 0.33,-0.73 0.78,-1.35 1.36,-1.85 0.89,-0.78 2.01,-1.17 3.36,-1.17zm0.01 0.72c-0.79,0 -1.38,0.33 -1.76,0.98 -0.47,0.79 -0.7,1.91 -0.7,3.37 0,1.46 0.23,2.63 0.7,3.51 0.38,0.71 0.96,1.06 1.76,1.06 0.79,0 1.39,-0.37 1.8,-1.1 0.41,-0.73 0.62,-1.8 0.62,-3.21 0,-1.52 -0.23,-2.7 -0.7,-3.55 -0.4,-0.71 -0.98,-1.06 -1.72,-1.06zm5.73 -0.51l4.43 0 2.13 5.92 2.01 -5.92 4.49 0 0 0.74 -0.15 0c-0.65,0 -1.03,0.07 -1.14,0.21 -0.04,0.06 -0.06,0.13 -0.08,0.23 -0.01,0.06 -0.01,0.33 -0.01,0.8l0 5.98c0,0.48 0,0.75 0.01,0.81 0.01,0.09 0.04,0.17 0.08,0.22 0.11,0.14 0.49,0.21 1.14,0.21l0.15 0 0 0.74 -5.26 0 0 -0.74 0.15 0c0.65,0 1.03,-0.07 1.14,-0.21 0.05,-0.06 0.07,-0.13 0.08,-0.22 0.01,-0.06 0.01,-0.33 0.01,-0.81l0 -6.87 -3.04 8.86 -0.72 0 -3.13 -8.72 0 5.73c0,0.6 0.02,1.02 0.07,1.28 0.05,0.25 0.14,0.45 0.29,0.59 0.22,0.23 0.61,0.35 1.16,0.37l0 0.74 -3.92 0 0 -0.74c0.53,-0.01 0.91,-0.13 1.13,-0.37 0.15,-0.15 0.24,-0.34 0.29,-0.59 0.05,-0.28 0.07,-0.7 0.07,-1.28l0 -4.97c0,-0.47 -0,-0.73 -0.01,-0.8 -0.02,-0.1 -0.05,-0.18 -0.08,-0.23 -0.11,-0.14 -0.49,-0.21 -1.14,-0.21l-0.15 0 0 -0.74zm19.08 5.67l-1.54 0 0 2.29c0,0.48 0,0.75 0.01,0.81 0.01,0.08 0.04,0.16 0.08,0.23 0.13,0.13 0.51,0.19 1.14,0.19l0.3 0 0 0.74 -5.45 0 0 -0.74 0.21 0c0.62,0 1,-0.06 1.13,-0.19 0.05,-0.07 0.07,-0.15 0.08,-0.23 0.01,-0.06 0.01,-0.33 0.01,-0.81l0 -5.96c0,-0.48 -0,-0.75 -0.01,-0.81 -0.01,-0.08 -0.04,-0.16 -0.08,-0.23 -0.13,-0.13 -0.51,-0.19 -1.13,-0.19l-0.21 0 0 -0.76 5.47 0c1.24,0 2.22,0.16 2.93,0.48 0.44,0.2 0.78,0.51 1.03,0.91 0.24,0.4 0.36,0.86 0.36,1.38 0,1.94 -1.45,2.91 -4.34,2.91zm-1.54 -4.09l0 3.33 0.8 0c0.89,0 1.52,-0.16 1.88,-0.49 0.36,-0.33 0.54,-0.88 0.54,-1.67 0,-0.69 -0.16,-1.19 -0.47,-1.52 -0.31,-0.32 -0.79,-0.48 -1.45,-0.48l-0.55 0c-0.31,0 -0.52,0.05 -0.61,0.16 -0.1,0.11 -0.14,0.33 -0.14,0.67zm6.76 5.51l3.13 -7.3 1.05 0 3.54 8.54c0.16,0.35 0.31,0.58 0.45,0.69 0.18,0.11 0.46,0.17 0.84,0.18l0 0.74 -4.83 0 0 -0.74 0.23 -0.01c0.43,0 0.69,-0.06 0.76,-0.17 0.08,-0.12 0.03,-0.36 -0.13,-0.72l-0.52 -1.35 -3.43 0 -0.22 0.52c-0.15,0.32 -0.22,0.58 -0.22,0.79 0,0.31 0.11,0.54 0.32,0.69 0.21,0.15 0.57,0.23 1.06,0.26l0 0.74 -3.98 0 0 -0.74c0.41,-0.05 0.77,-0.22 1.06,-0.54 0.29,-0.31 0.59,-0.84 0.9,-1.57zm4.17 -1.07l-1.34 -3.29 -1.39 3.29 2.73 0zm4.82 -6.02l3.47 0 5.32 6.23 0 -3.24c0,-0.59 -0.02,-1.01 -0.07,-1.27 -0.05,-0.26 -0.14,-0.46 -0.29,-0.61 -0.22,-0.24 -0.6,-0.36 -1.13,-0.37l0 -0.74 3.93 0 0 0.74c-0.55,0.02 -0.94,0.14 -1.16,0.37 -0.15,0.15 -0.24,0.34 -0.29,0.59 -0.05,0.26 -0.07,0.68 -0.07,1.28l0 7.05 -0.92 0 -6.41 -7.62 0 4.53c0,0.59 0.02,1.01 0.07,1.27 0.05,0.25 0.14,0.45 0.29,0.59 0.21,0.22 0.6,0.34 1.16,0.37l0 0.74 -3.92 0 0 -0.74c0.55,-0.03 0.93,-0.15 1.13,-0.37 0.15,-0.15 0.24,-0.34 0.29,-0.59 0.05,-0.26 0.07,-0.68 0.07,-1.27l0 -5.43c-0.35,-0.5 -0.84,-0.75 -1.46,-0.77l0 -0.76zm15.19 1.47l1.82 3.02 1.38 -2.45c0.13,-0.28 0.19,-0.49 0.19,-0.63 0,-0.2 -0.09,-0.36 -0.28,-0.48 -0.18,-0.12 -0.43,-0.18 -0.73,-0.18l-0.29 0 0 -0.74 4.06 0 0 0.74c-0.75,0.06 -1.37,0.48 -1.85,1.28l-2.07 3.54 0 2.4c0,0.48 0,0.75 0.01,0.81 0.01,0.09 0.04,0.17 0.08,0.22 0.11,0.14 0.49,0.21 1.14,0.21l0.3 0 0 0.74 -5.56 0 0 -0.74 0.3 0c0.65,0 1.03,-0.07 1.14,-0.21 0.05,-0.06 0.07,-0.13 0.08,-0.22 0.01,-0.06 0.01,-0.33 0.01,-0.81l0 -2.22 -2.81 -4.5c-0.13,-0.2 -0.26,-0.34 -0.41,-0.4 -0.14,-0.06 -0.37,-0.1 -0.68,-0.1l0 -0.74 4.96 0 0 0.74 -0.22 0c-0.51,0 -0.77,0.1 -0.77,0.3 0,0.11 0.06,0.25 0.17,0.43z"/>
  <path class="fil1" d="M193.4 278.65l3.59 0 -0.01 0.24 0.01 0 -0.8 17.96 -0.01 0 -45.32 0 0 -3.65 1.01 0c3.16,0 5.01,-0.34 5.55,-1.01 0.22,-0.27 0.35,-0.63 0.41,-1.08 0.04,-0.32 0.07,-1.67 0.07,-4.06l0 -50.57c0,-2.3 -0.02,-3.61 -0.07,-3.92 -0.08,-0.5 -0.21,-0.89 -0.41,-1.15 -0.53,-0.69 -2.39,-1.01 -5.55,-1.01l-1.01 0 0 -3.65 26.79 0 0 3.65 -1.49 0c-3.2,0 -5.09,0.33 -5.61,1.01 -0.2,0.26 -0.32,0.65 -0.41,1.15 -0.05,0.31 -0.07,1.62 -0.07,3.92l0 12.18 25.59 0 0.4 17.36 -3.47 0c-1.07,-3.78 -2.36,-6.72 -3.87,-8.81 -2.4,-3.29 -6.16,-4.94 -11.28,-4.94l-1.87 0c-2.67,0 -4.36,0.49 -5.07,1.47 -0.17,0.24 -0.31,0.6 -0.42,1.08l0 15.27 0.88 0c2.63,0 4.73,-0.81 6.31,-2.44 1.58,-1.62 2.55,-3.97 2.9,-7.04l3.6 0 0 22.63 -3.6 0c-0.36,-3.07 -1.32,-5.42 -2.9,-7.04 -1.58,-1.62 -3.68,-2.44 -6.31,-2.44l-0.88 0 0 14.71c0,1.85 0.37,3.1 1.08,3.79 0.41,0.4 0.93,0.66 1.56,0.78 0.63,0.11 1.78,0.17 3.45,0.17l1.42 0c4.78,0 8.59,-1.69 11.43,-5.07 1.76,-2.17 3.22,-5.32 4.4,-9.47zm-62.19 -16.87c0,11.49 9.31,20.8 20.8,20.8 1.53,0 3.03,-0.17 4.46,-0.48l0 -13.95 -1.4 -1.4c-0.49,0.29 -1.02,0.52 -1.59,0.66l0 2.22 -2.85 0 0 -2.22c-0.57,-0.14 -1.11,-0.37 -1.6,-0.66l-1.57 1.57 -2.01 -2.02 1.57 -1.57c-0.29,-0.49 -0.52,-1.03 -0.66,-1.6l-2.22 0 0 -2.85 2.22 0c0.14,-0.57 0.37,-1.1 0.66,-1.59l-1.58 -1.58 2.01 -2.01 1.58 1.58c0.49,-0.29 1.02,-0.51 1.58,-0.65l0 -2.24 2.85 0 0 2.25c0.56,0.14 1.09,0.36 1.57,0.65l1.41 -1.41 0 -13.85c-1.44,-0.31 -2.93,-0.48 -4.46,-0.48 -11.49,0 -20.8,9.31 -20.8,20.8z"/>
  <path class="fil2" d="M152.01 284.37c-12.47,0 -22.58,-10.11 -22.58,-22.58 0,-12.47 10.11,-22.59 22.58,-22.59 1.53,0 3.02,0.15 4.46,0.44l0 -3.17c0,-1.06 0.08,-2.67 -0.05,-3.7 -0.02,-0.12 -0.08,-0.42 -0.11,-0.5 -0.59,-0.44 -3.68,-0.49 -4.45,-0.49l-2.42 0 0 -5.06 -3.68 0 0 9.92c-2.49,0.62 -4.84,1.6 -6.99,2.88l-7 -7 -8.92 8.92 6.97 6.97c-1.3,2.15 -2.3,4.51 -2.93,7.02l-9.84 0 0 12.61 9.81 0c0.62,2.52 1.62,4.89 2.92,7.06l-6.93 6.93 8.92 8.92 6.93 -6.93c2.17,1.3 4.54,2.29 7.06,2.92l0 9.81 3.68 0 0 -4.95 2.42 0c0.77,0 3.87,-0.06 4.48,-0.52 0.03,-0.05 0.07,-0.26 0.08,-0.33 0.13,-1.15 0.06,-2.73 0.06,-3.9l0 -3.11c-1.44,0.29 -2.93,0.44 -4.46,0.44z"/>
 </g>
</svg>
