<?xml version="1.0" encoding="UTF-8"?>
<!DOCTYPE svg PUBLIC "-//W3C//DTD SVG 1.1//EN" "http://www.w3.org/Graphics/SVG/1.1/DTD/svg11.dtd">
<!-- Creator: CorelDRAW 2021 (64-Bit) -->
<svg xmlns="http://www.w3.org/2000/svg" xml:space="preserve" width="65.419mm" height="65.4194mm" version="1.1" style="shape-rendering:geometricPrecision; text-rendering:geometricPrecision; image-rendering:optimizeQuality; fill-rule:evenodd; clip-rule:evenodd"
viewBox="0 0 436.93 436.94"
 xmlns:xlink="http://www.w3.org/1999/xlink"
 xmlns:xodm="http://www.corel.com/coreldraw/odm/2003">
 <defs>
  <style type="text/css">
   <![CDATA[
    .fil0 {fill:#FFBE1B}
    .fil1 {fill:black;fill-rule:nonzero}
    .fil2 {fill:url(#id0)}
   ]]>
  </style>
  <linearGradient id="id0" gradientUnits="userSpaceOnUse" x1="150.07" y1="273.86" x2="226.58" y2="179.57">
   <stop offset="0" style="stop-opacity:1; stop-color:#D1231B"/>
   <stop offset="0.490196" style="stop-opacity:1; stop-color:#FF0800"/>
   <stop offset="1" style="stop-opacity:1; stop-color:#D1231B"/>
  </linearGradient>
 </defs>
 <g id="Layer_x0020_1">
  <metadata id="CorelCorpID_0Corel-Layer"/>
  <rect class="fil0" width="436.93" height="436.94"/>
  <g id="_1869410594384">
   <path class="fil1" d="M299.29 259.61l8.75 0 -0.03 0.58 0.02 0 -1.95 43.81 -0.02 0 -110.57 0 0 -8.91 2.48 0c7.7,0 12.21,-0.83 13.53,-2.48 0.55,-0.66 0.86,-1.54 0.99,-2.64 0.09,-0.77 0.16,-4.07 0.16,-9.9l0 -123.38c0,-5.61 -0.04,-8.8 -0.16,-9.57 -0.2,-1.21 -0.51,-2.18 -0.99,-2.81 -1.28,-1.68 -5.83,-2.48 -13.53,-2.48l-2.48 0 0 -8.91 65.35 0 0 8.91 -3.63 0c-7.81,0 -12.42,0.8 -13.7,2.48 -0.48,0.63 -0.79,1.59 -0.99,2.81 -0.13,0.77 -0.16,3.96 -0.16,9.57l0 29.71 62.42 0 0.98 42.35 -8.47 0c-2.61,-9.23 -5.76,-16.4 -9.45,-21.5 -5.86,-8.04 -15.04,-12.05 -27.53,-12.05l-4.56 0c-6.51,0 -10.64,1.19 -12.38,3.58 -0.42,0.59 -0.76,1.47 -1.02,2.64l0 37.26 2.16 0c6.41,0 11.54,-1.98 15.39,-5.95 3.85,-3.96 6.22,-9.69 7.09,-17.18l8.79 0 0 55.22 -8.79 0c-0.87,-7.49 -3.23,-13.22 -7.09,-17.18 -3.85,-3.96 -8.98,-5.94 -15.39,-5.94l-2.16 0 0 35.89c0,4.51 0.9,7.57 2.64,9.24 1.01,0.97 2.26,1.62 3.8,1.9 1.54,0.28 4.35,0.41 8.42,0.41l3.47 0c11.66,0 20.96,-4.13 27.89,-12.38 4.29,-5.28 7.87,-12.98 10.73,-23.1zm-151.71 -41.15c0,28.03 22.72,50.75 50.75,50.75 3.74,0 7.38,-0.4 10.89,-1.17l0 -34.04 -3.41 -3.41c-1.19,0.72 -2.49,1.27 -3.87,1.62l0 5.42 -6.95 0 0 -5.41c-1.39,-0.34 -2.7,-0.89 -3.89,-1.61l-3.82 3.82 -4.92 -4.92 3.82 -3.82c-0.72,-1.19 -1.26,-2.5 -1.61,-3.89l-5.41 0 0 -6.95 5.42 0c0.35,-1.38 0.9,-2.68 1.61,-3.87l-3.84 -3.84 4.92 -4.92 3.86 3.86c1.18,-0.71 2.48,-1.24 3.85,-1.58l0 -5.47 6.95 0 0 5.48c1.37,0.35 2.65,0.89 3.83,1.59l3.45 -3.45 0 -33.78c-3.51,-0.77 -7.15,-1.17 -10.89,-1.17 -28.03,0 -50.75,22.72 -50.75,50.75z"/>
   <path class="fil2" d="M198.33 273.56c-30.43,0 -55.1,-24.67 -55.1,-55.1 0,-30.43 24.67,-55.1 55.1,-55.1 3.73,0 7.37,0.37 10.89,1.08l0 -7.75c0,-2.6 0.2,-6.52 -0.12,-9.03 -0.05,-0.3 -0.18,-1.03 -0.27,-1.21 -1.43,-1.06 -8.99,-1.19 -10.86,-1.19l-5.91 0 0 -12.34 -8.97 0 0 24.2c-6.08,1.51 -11.81,3.89 -17.05,7.02l-17.08 -17.08 -21.75 21.75 17.01 17.01c-3.18,5.26 -5.61,11.01 -7.15,17.12l-24 0 0 30.76 23.94 0c1.52,6.14 3.94,11.93 7.11,17.22l-16.91 16.91 21.75 21.75 16.91 -16.91c5.29,3.17 11.07,5.59 17.22,7.11l0 23.94 8.97 0 0 -12.07 5.91 0c1.88,0 9.45,-0.13 10.93,-1.28 0.08,-0.11 0.16,-0.63 0.18,-0.81 0.31,-2.8 0.14,-6.66 0.14,-9.51l0 -7.59c-3.52,0.71 -7.16,1.08 -10.89,1.08z"/>
  </g>
 </g>
</svg>
