<?xml version="1.0" encoding="UTF-8"?>
<!DOCTYPE svg PUBLIC "-//W3C//DTD SVG 1.1//EN" "http://www.w3.org/Graphics/SVG/1.1/DTD/svg11.dtd">
<!-- Creator: CorelDRAW 2021 (64-Bit) -->
<svg xmlns="http://www.w3.org/2000/svg" xml:space="preserve" width="36.166mm" height="8.762mm" version="1.1" style="shape-rendering:geometricPrecision; text-rendering:geometricPrecision; image-rendering:optimizeQuality; fill-rule:evenodd; clip-rule:evenodd"
viewBox="0 0 165.96 40.21"
 xmlns:xlink="http://www.w3.org/1999/xlink"
 xmlns:xodm="http://www.corel.com/coreldraw/odm/2003">
 <defs>
  <style type="text/css">
   <![CDATA[
    .fil0 {fill:black;fill-rule:nonzero}
    .fil2 {fill:black;fill-rule:nonzero}
    .fil1 {fill:#DA251C;fill-rule:nonzero}
    .fil3 {fill:url(#id0)}
   ]]>
  </style>
  <linearGradient id="id0" gradientUnits="userSpaceOnUse" x1="8.7" y1="33.12" x2="26.68" y2="10.96">
   <stop offset="0" style="stop-opacity:1; stop-color:#D1231B"/>
   <stop offset="0.490196" style="stop-opacity:1; stop-color:#FF0800"/>
   <stop offset="1" style="stop-opacity:1; stop-color:#D1231B"/>
  </linearGradient>
 </defs>
 <g id="Layer_x0020_1">
  <metadata id="CorelCorpID_0Corel-Layer"/>
  <g id="_1859369085488">
   <path class="fil0" d="M74.14 18.69l1.57 0 -0.36 7.99 -19.89 0 0 -1.6 0.45 0c1.39,0 2.2,-0.15 2.43,-0.45 0.1,-0.12 0.16,-0.28 0.18,-0.47 0.02,-0.14 0.03,-0.73 0.03,-1.78l0 -12.85c0,-1.01 -0.01,-1.58 -0.03,-1.72 -0.04,-0.22 -0.1,-0.39 -0.18,-0.5 -0.24,-0.3 -1.05,-0.45 -2.43,-0.45l-0.45 0 0 -1.6 11.76 0 0 1.6 -0.65 0c-1.41,0 -2.23,0.15 -2.46,0.45 -0.08,0.12 -0.14,0.29 -0.18,0.5 -0.02,0.14 -0.03,0.71 -0.03,1.72l0 13.48c0,0.81 0.16,1.37 0.47,1.66 0.18,0.18 0.41,0.29 0.68,0.34 0.28,0.05 0.78,0.07 1.51,0.07l0.62 0c2.1,0 3.77,-0.74 5.02,-2.23 0.77,-0.95 1.42,-2.34 1.93,-4.16zm6.47 1.84l6.74 -15.73 2.26 0 7.63 18.41c0.34,0.75 0.66,1.25 0.98,1.48 0.4,0.24 1,0.37 1.81,0.39l0 1.6 -10.42 0 0 -1.6 0.5 -0.03c0.93,0 1.48,-0.12 1.65,-0.37 0.17,-0.25 0.07,-0.77 -0.28,-1.56l-1.13 -2.91 -7.39 0 -0.47 1.13c-0.32,0.69 -0.47,1.26 -0.47,1.69 0,0.67 0.23,1.17 0.68,1.48 0.46,0.32 1.22,0.5 2.29,0.56l0 1.6 -8.58 0 0 -1.6c0.89,-0.1 1.65,-0.49 2.29,-1.16 0.63,-0.67 1.28,-1.8 1.93,-3.38zm8.99 -2.32l-2.88 -7.1 -3 7.1 5.88 0zm9.83 -12.97l19.65 0 0.45 8.05 -1.57 0c-0.38,-2.14 -0.96,-3.72 -1.75,-4.75 -0.93,-1.17 -2,-1.75 -3.21,-1.75 -0.44,0 -0.72,0.07 -0.86,0.22 -0.14,0.15 -0.21,0.48 -0.21,0.99l0 14.4c0,1.03 0.01,1.61 0.03,1.75 0.02,0.2 0.08,0.36 0.18,0.47 0.24,0.3 1.06,0.45 2.46,0.45l0.65 0 0 1.6 -11.99 0 0 -1.6 0.65 0c1.41,0 2.23,-0.15 2.46,-0.45 0.1,-0.12 0.16,-0.28 0.18,-0.47 0.02,-0.14 0.03,-0.72 0.03,-1.75l0 -14.4c0,-0.51 -0.07,-0.85 -0.21,-0.99 -0.14,-0.15 -0.43,-0.22 -0.86,-0.22 -1.37,0 -2.51,0.7 -3.44,2.11 -0.69,0.99 -1.2,2.45 -1.51,4.39l-1.57 0 0.45 -8.05zm21.02 0l19.92 0 0.18 7.72 -1.54 0c-0.47,-1.68 -1.05,-2.99 -1.72,-3.92 -1.07,-1.46 -2.74,-2.2 -5.02,-2.2l-0.83 0c-1.19,0 -1.94,0.22 -2.26,0.65 -0.2,0.28 -0.3,0.91 -0.3,1.9l0 5.37 0.5 0c1.17,0 2.1,-0.36 2.81,-1.08 0.7,-0.72 1.13,-1.77 1.29,-3.13l1.6 0 0 10.06 -1.6 0c-0.16,-1.37 -0.59,-2.41 -1.29,-3.13 -0.7,-0.72 -1.64,-1.08 -2.81,-1.08l-0.5 0 0 6.59c0,0.81 0.16,1.37 0.47,1.66 0.18,0.18 0.41,0.29 0.68,0.34 0.28,0.05 0.78,0.07 1.51,0.07l0.89 0c1.8,0 3.26,-0.51 4.36,-1.53 1.11,-1.02 1.97,-2.64 2.58,-4.85l1.57 0 -0.36 7.99 -20.16 0 0 -1.6 0.45 0c1.39,0 2.2,-0.15 2.43,-0.45 0.1,-0.12 0.16,-0.28 0.18,-0.47 0.02,-0.14 0.03,-0.72 0.03,-1.75l0 -12.88c0,-1.01 -0.01,-1.58 -0.03,-1.72 -0.04,-0.22 -0.1,-0.39 -0.18,-0.5 -0.24,-0.3 -1.05,-0.45 -2.43,-0.45l-0.45 0 0 -1.6zm30.43 3.33l4.72 11.99 4.22 -10.57c0.18,-0.44 0.27,-0.81 0.27,-1.13 0,-0.79 -0.35,-1.36 -1.04,-1.69 -0.4,-0.22 -1.01,-0.33 -1.84,-0.33l0 -1.6 8.76 0 0 1.6c-1.82,0.18 -3.19,1.43 -4.1,3.77l-6.8 16.51 -2.61 0 -7.21 -18.23c-0.32,-0.83 -0.67,-1.39 -1.07,-1.66 -0.34,-0.26 -0.95,-0.39 -1.84,-0.39l0 -1.6 10.75 0 0 1.6 -0.62 0c-1.23,0 -1.84,0.25 -1.84,0.74 0,0.18 0.09,0.5 0.27,0.98z"/>
   <path class="fil1" d="M55.46 29.59l5.3 0 0.05 2.05 -0.41 0c-0.13,-0.45 -0.28,-0.8 -0.46,-1.04 -0.28,-0.39 -0.73,-0.58 -1.33,-0.58l-0.22 0c-0.32,0 -0.52,0.06 -0.6,0.17 -0.05,0.07 -0.08,0.24 -0.08,0.51l0 1.43 0.13 0c0.31,0 0.56,-0.1 0.75,-0.29 0.19,-0.19 0.3,-0.47 0.34,-0.83l0.43 0 0 2.68 -0.43 0c-0.04,-0.36 -0.16,-0.64 -0.34,-0.83 -0.19,-0.19 -0.44,-0.29 -0.75,-0.29l-0.13 0 0 1.75c0,0.22 0.04,0.36 0.13,0.44 0.05,0.05 0.11,0.08 0.18,0.09 0.07,0.01 0.21,0.02 0.4,0.02l0.24 0c0.48,0 0.87,-0.14 1.16,-0.41 0.3,-0.27 0.52,-0.7 0.69,-1.29l0.42 0 -0.09 2.12 -5.36 0 0 -0.43 0.12 0c0.37,0 0.58,-0.04 0.65,-0.12 0.03,-0.03 0.04,-0.07 0.05,-0.13 0.01,-0.04 0.01,-0.19 0.01,-0.47l0 -3.43c0,-0.27 -0,-0.42 -0.01,-0.46 -0.01,-0.06 -0.03,-0.1 -0.05,-0.13 -0.06,-0.08 -0.28,-0.12 -0.65,-0.12l-0.12 0 0 -0.43zm6.01 0l1.99 0 3.05 3.57 0 -1.86c0,-0.34 -0.01,-0.58 -0.04,-0.73 -0.03,-0.15 -0.08,-0.26 -0.17,-0.35 -0.13,-0.14 -0.34,-0.21 -0.65,-0.21l0 -0.43 2.25 0 0 0.43c-0.32,0.01 -0.54,0.08 -0.66,0.21 -0.08,0.08 -0.14,0.2 -0.17,0.34 -0.03,0.15 -0.04,0.39 -0.04,0.73l0 4.04 -0.53 0 -3.67 -4.37 0 2.6c0,0.34 0.01,0.58 0.04,0.73 0.03,0.14 0.08,0.26 0.17,0.34 0.12,0.13 0.34,0.2 0.66,0.21l0 0.43 -2.25 0 0 -0.43c0.32,-0.02 0.53,-0.09 0.65,-0.21 0.08,-0.08 0.14,-0.2 0.17,-0.34 0.03,-0.15 0.04,-0.39 0.04,-0.73l0 -3.11c-0.2,-0.28 -0.48,-0.43 -0.84,-0.44l0 -0.43zm11.66 -0.09l0.35 0 0.07 2.27 -0.42 0c-0.13,-0.6 -0.36,-1.07 -0.69,-1.39 -0.33,-0.33 -0.72,-0.49 -1.19,-0.49 -0.23,0 -0.45,0.05 -0.64,0.16 -0.2,0.11 -0.35,0.25 -0.47,0.43 -0.3,0.48 -0.45,1.15 -0.45,2.01 0,0.75 0.11,1.37 0.32,1.84 0.1,0.22 0.24,0.38 0.43,0.5 0.19,0.12 0.4,0.18 0.64,0.18 0.35,0 0.64,-0.11 0.85,-0.34 0.21,-0.22 0.32,-0.52 0.32,-0.89l0 -0.11c0,-0.29 -0.03,-0.46 -0.1,-0.51 -0.07,-0.06 -0.28,-0.09 -0.62,-0.09l-0.09 0 0 -0.43 2.8 0 0 0.43c-0.38,0.01 -0.6,0.05 -0.65,0.11 -0.02,0.03 -0.04,0.08 -0.05,0.13 -0.01,0.04 -0.01,0.19 -0.01,0.47l0 1.63 -0.42 0 -0.39 -0.77c-0.22,0.22 -0.4,0.37 -0.55,0.46 -0.39,0.22 -0.83,0.32 -1.33,0.32 -0.81,0 -1.47,-0.27 -1.99,-0.8 -0.51,-0.53 -0.77,-1.23 -0.77,-2.08 0,-0.85 0.26,-1.55 0.78,-2.1 0.59,-0.64 1.35,-0.96 2.27,-0.96 0.28,0 0.54,0.03 0.75,0.09 0.22,0.06 0.47,0.17 0.75,0.33l0.47 -0.4zm2.16 4.65l0 -3.43c0,-0.27 -0,-0.42 -0.01,-0.46 -0.01,-0.06 -0.03,-0.1 -0.05,-0.13 -0.06,-0.08 -0.28,-0.12 -0.65,-0.12l-0.12 0 0 -0.43 3.07 0 0 0.43 -0.12 0c-0.37,0 -0.59,0.04 -0.66,0.12 -0.03,0.03 -0.04,0.07 -0.05,0.13 -0.01,0.04 -0.01,0.19 -0.01,0.47l0 3.43c0,0.27 0,0.43 0.01,0.47 0.01,0.05 0.02,0.09 0.05,0.13 0.06,0.08 0.28,0.12 0.66,0.12l0.12 0 0 0.43 -3.07 0 0 -0.43 0.12 0c0.37,0 0.58,-0.04 0.65,-0.12 0.03,-0.03 0.04,-0.07 0.05,-0.13 0.01,-0.04 0.01,-0.19 0.01,-0.47zm2.74 -4.56l1.99 0 3.05 3.57 0 -1.86c0,-0.34 -0.01,-0.58 -0.04,-0.73 -0.03,-0.15 -0.08,-0.26 -0.17,-0.35 -0.13,-0.14 -0.34,-0.21 -0.65,-0.21l0 -0.43 2.25 0 0 0.43c-0.32,0.01 -0.54,0.08 -0.66,0.21 -0.08,0.08 -0.14,0.2 -0.17,0.34 -0.03,0.15 -0.04,0.39 -0.04,0.73l0 4.04 -0.53 0 -3.67 -4.37 0 2.6c0,0.34 0.01,0.58 0.04,0.73 0.03,0.14 0.08,0.26 0.17,0.34 0.12,0.13 0.34,0.2 0.66,0.21l0 0.43 -2.25 0 0 -0.43c0.32,-0.02 0.53,-0.09 0.65,-0.21 0.08,-0.08 0.14,-0.2 0.17,-0.34 0.03,-0.15 0.04,-0.39 0.04,-0.73l0 -3.11c-0.2,-0.28 -0.48,-0.43 -0.84,-0.44l0 -0.43zm6.56 0l5.3 0 0.05 2.05 -0.41 0c-0.13,-0.45 -0.28,-0.8 -0.46,-1.04 -0.28,-0.39 -0.73,-0.58 -1.33,-0.58l-0.22 0c-0.32,0 -0.52,0.06 -0.6,0.17 -0.05,0.07 -0.08,0.24 -0.08,0.51l0 1.43 0.13 0c0.31,0 0.56,-0.1 0.75,-0.29 0.19,-0.19 0.3,-0.47 0.34,-0.83l0.43 0 0 2.68 -0.43 0c-0.04,-0.36 -0.16,-0.64 -0.34,-0.83 -0.19,-0.19 -0.44,-0.29 -0.75,-0.29l-0.13 0 0 1.75c0,0.22 0.04,0.36 0.13,0.44 0.05,0.05 0.11,0.08 0.18,0.09 0.07,0.01 0.21,0.02 0.4,0.02l0.24 0c0.48,0 0.87,-0.14 1.16,-0.41 0.29,-0.27 0.52,-0.7 0.69,-1.29l0.42 0 -0.09 2.12 -5.36 0 0 -0.43 0.12 0c0.37,0 0.58,-0.04 0.65,-0.12 0.03,-0.03 0.04,-0.07 0.05,-0.13 0.01,-0.04 0.01,-0.19 0.01,-0.47l0 -3.43c0,-0.27 -0,-0.42 -0.01,-0.46 -0.01,-0.06 -0.03,-0.1 -0.05,-0.13 -0.06,-0.08 -0.28,-0.12 -0.65,-0.12l-0.12 0 0 -0.43zm5.99 0l5.3 0 0.05 2.05 -0.41 0c-0.13,-0.45 -0.28,-0.8 -0.46,-1.04 -0.28,-0.39 -0.73,-0.58 -1.33,-0.58l-0.22 0c-0.32,0 -0.52,0.06 -0.6,0.17 -0.05,0.07 -0.08,0.24 -0.08,0.51l0 1.43 0.13 0c0.31,0 0.56,-0.1 0.75,-0.29 0.19,-0.19 0.3,-0.47 0.34,-0.83l0.43 0 0 2.68 -0.43 0c-0.04,-0.36 -0.16,-0.64 -0.34,-0.83 -0.19,-0.19 -0.44,-0.29 -0.75,-0.29l-0.13 0 0 1.75c0,0.22 0.04,0.36 0.13,0.44 0.05,0.05 0.11,0.08 0.18,0.09 0.07,0.01 0.21,0.02 0.4,0.02l0.24 0c0.48,0 0.87,-0.14 1.16,-0.41 0.29,-0.27 0.52,-0.7 0.69,-1.29l0.42 0 -0.09 2.12 -5.36 0 0 -0.43 0.12 0c0.37,0 0.58,-0.04 0.65,-0.12 0.03,-0.03 0.04,-0.07 0.05,-0.13 0.01,-0.04 0.01,-0.19 0.01,-0.47l0 -3.43c0,-0.27 -0,-0.42 -0.01,-0.46 -0.01,-0.06 -0.03,-0.1 -0.05,-0.13 -0.06,-0.08 -0.28,-0.12 -0.65,-0.12l-0.12 0 0 -0.43zm8.71 2.96l-0.44 0 0 1.6c0,0.27 0,0.43 0.01,0.47 0.01,0.05 0.02,0.09 0.05,0.13 0.07,0.07 0.29,0.11 0.66,0.11l0.21 0 0 0.43 -3.16 0 0 -0.43 0.12 0c0.36,0 0.57,-0.04 0.65,-0.11 0.03,-0.04 0.04,-0.09 0.05,-0.13 0.01,-0.04 0.01,-0.19 0.01,-0.47l0 -3.42c0,-0.27 -0,-0.43 -0.01,-0.47 -0.01,-0.05 -0.02,-0.09 -0.05,-0.13 -0.07,-0.07 -0.29,-0.11 -0.65,-0.11l-0.12 0 0 -0.43 3.37 0c0.74,0 1.26,0.09 1.56,0.28 0.43,0.27 0.64,0.66 0.64,1.14 0,0.53 -0.25,0.93 -0.76,1.19 -0.17,0.08 -0.45,0.16 -0.82,0.23 0.34,0.12 0.6,0.27 0.77,0.47 0.17,0.2 0.28,0.47 0.34,0.83l0.06 0.3c0.02,0.13 0.03,0.2 0.03,0.22 0.03,0.21 0.06,0.33 0.09,0.37 0.05,0.08 0.13,0.12 0.23,0.12 0.23,0 0.35,-0.25 0.36,-0.75l0.43 0 0 0.09c0,0.42 -0.12,0.75 -0.35,0.98 -0.23,0.23 -0.56,0.34 -0.99,0.34 -0.71,0 -1.13,-0.31 -1.26,-0.94 -0.03,-0.19 -0.07,-0.52 -0.11,-0.99 -0.02,-0.22 -0.04,-0.37 -0.06,-0.45 -0.02,-0.08 -0.07,-0.17 -0.13,-0.24 -0.14,-0.16 -0.38,-0.24 -0.7,-0.24zm-0.44 -2.03l0 1.6 0.43 0c0.52,0 0.88,-0.08 1.08,-0.23 0.2,-0.15 0.3,-0.43 0.3,-0.83 0,-0.36 -0.09,-0.62 -0.26,-0.79 -0.17,-0.17 -0.44,-0.25 -0.81,-0.25l-0.19 0c-0.25,0 -0.41,0.03 -0.47,0.09 -0.06,0.06 -0.09,0.2 -0.09,0.42zm5.2 3.63l0 -3.43c0,-0.27 -0,-0.42 -0.01,-0.46 -0.01,-0.06 -0.03,-0.1 -0.05,-0.13 -0.06,-0.08 -0.28,-0.12 -0.65,-0.12l-0.12 0 0 -0.43 3.07 0 0 0.43 -0.12 0c-0.37,0 -0.59,0.04 -0.66,0.12 -0.03,0.03 -0.04,0.07 -0.05,0.13 -0.01,0.04 -0.01,0.19 -0.01,0.47l0 3.43c0,0.27 0,0.43 0.01,0.47 0.01,0.05 0.02,0.09 0.05,0.13 0.06,0.08 0.28,0.12 0.66,0.12l0.12 0 0 0.43 -3.07 0 0 -0.43 0.12 0c0.37,0 0.58,-0.04 0.65,-0.12 0.03,-0.03 0.04,-0.07 0.05,-0.13 0.01,-0.04 0.01,-0.19 0.01,-0.47zm2.74 -4.56l1.99 0 3.05 3.57 0 -1.86c0,-0.34 -0.01,-0.58 -0.04,-0.73 -0.03,-0.15 -0.08,-0.26 -0.17,-0.35 -0.13,-0.14 -0.34,-0.21 -0.65,-0.21l0 -0.43 2.25 0 0 0.43c-0.32,0.01 -0.54,0.08 -0.66,0.21 -0.08,0.08 -0.14,0.2 -0.17,0.34 -0.03,0.15 -0.04,0.39 -0.04,0.73l0 4.04 -0.53 0 -3.67 -4.37 0 2.6c0,0.34 0.01,0.58 0.04,0.73 0.03,0.14 0.08,0.26 0.17,0.34 0.12,0.13 0.34,0.2 0.66,0.21l0 0.43 -2.25 0 0 -0.43c0.32,-0.02 0.53,-0.09 0.65,-0.21 0.08,-0.08 0.14,-0.2 0.17,-0.34 0.03,-0.15 0.04,-0.39 0.04,-0.73l0 -3.11c-0.2,-0.28 -0.48,-0.43 -0.84,-0.44l0 -0.43zm11.66 -0.09l0.35 0 0.07 2.27 -0.42 0c-0.13,-0.6 -0.36,-1.07 -0.69,-1.39 -0.33,-0.33 -0.72,-0.49 -1.19,-0.49 -0.23,0 -0.45,0.05 -0.64,0.16 -0.2,0.11 -0.35,0.25 -0.47,0.43 -0.3,0.48 -0.45,1.15 -0.45,2.01 0,0.75 0.11,1.37 0.32,1.84 0.1,0.22 0.24,0.38 0.43,0.5 0.19,0.12 0.4,0.18 0.64,0.18 0.35,0 0.64,-0.11 0.85,-0.34 0.21,-0.22 0.32,-0.52 0.32,-0.89l0 -0.11c0,-0.29 -0.03,-0.46 -0.1,-0.51 -0.07,-0.06 -0.28,-0.09 -0.62,-0.09l-0.09 0 0 -0.43 2.8 0 0 0.43c-0.38,0.01 -0.6,0.05 -0.65,0.11 -0.02,0.03 -0.04,0.08 -0.05,0.13 -0.01,0.04 -0.01,0.19 -0.01,0.47l0 1.63 -0.42 0 -0.39 -0.77c-0.22,0.22 -0.4,0.37 -0.55,0.46 -0.39,0.22 -0.83,0.32 -1.33,0.32 -0.81,0 -1.47,-0.27 -1.99,-0.8 -0.51,-0.53 -0.77,-1.23 -0.77,-2.08 0,-0.85 0.26,-1.55 0.78,-2.1 0.59,-0.64 1.35,-0.96 2.27,-0.96 0.28,0 0.54,0.03 0.75,0.09 0.22,0.06 0.47,0.17 0.75,0.33l0.47 -0.4zm8.69 0l0.34 0 0.08 2.26 -0.42 0.05c-0.18,-0.66 -0.42,-1.14 -0.71,-1.46 -0.29,-0.31 -0.66,-0.47 -1.1,-0.47 -0.48,0 -0.85,0.21 -1.1,0.63 -0.25,0.42 -0.37,1.04 -0.37,1.86 0,0.87 0.13,1.51 0.39,1.93 0.26,0.42 0.66,0.62 1.19,0.62 0.45,0 0.83,-0.15 1.14,-0.45 0.31,-0.3 0.51,-0.72 0.62,-1.27l0.49 0.12c-0.15,0.71 -0.43,1.24 -0.84,1.58 -0.41,0.34 -0.96,0.51 -1.66,0.51 -0.9,0 -1.61,-0.29 -2.14,-0.87 -0.5,-0.56 -0.75,-1.23 -0.75,-2.03 0,-0.89 0.28,-1.62 0.84,-2.18 0.56,-0.57 1.27,-0.86 2.15,-0.86 0.28,0 0.53,0.03 0.75,0.09 0.21,0.06 0.45,0.17 0.7,0.33l0.43 -0.39zm4.2 -0.03c0.77,0 1.41,0.22 1.92,0.67 0.33,0.28 0.58,0.63 0.77,1.05 0.19,0.42 0.28,0.86 0.28,1.32 0,0.95 -0.35,1.71 -1.06,2.27 -0.52,0.41 -1.17,0.62 -1.96,0.62 -0.86,0 -1.57,-0.27 -2.12,-0.81 -0.55,-0.55 -0.83,-1.24 -0.83,-2.07 0,-0.46 0.09,-0.91 0.28,-1.33 0.19,-0.42 0.45,-0.77 0.78,-1.06 0.51,-0.45 1.15,-0.67 1.93,-0.67zm0.01 0.41c-0.45,0 -0.79,0.19 -1.01,0.56 -0.27,0.45 -0.4,1.1 -0.4,1.93 0,0.84 0.13,1.51 0.4,2.01 0.22,0.41 0.55,0.61 1.01,0.61 0.45,0 0.8,-0.21 1.03,-0.63 0.24,-0.42 0.36,-1.03 0.36,-1.84 0,-0.87 -0.13,-1.55 -0.4,-2.04 -0.23,-0.41 -0.56,-0.61 -0.99,-0.61zm3.29 -0.29l2.54 0 1.22 3.4 1.15 -3.4 2.57 0 0 0.43 -0.09 0c-0.37,0 -0.59,0.04 -0.66,0.12 -0.02,0.03 -0.04,0.08 -0.05,0.13 -0.01,0.04 -0.01,0.19 -0.01,0.46l0 3.43c0,0.27 0,0.43 0.01,0.47 0.01,0.05 0.02,0.09 0.05,0.13 0.06,0.08 0.28,0.12 0.66,0.12l0.09 0 0 0.43 -3.02 0 0 -0.43 0.09 0c0.37,0 0.59,-0.04 0.66,-0.12 0.03,-0.03 0.04,-0.07 0.05,-0.13 0.01,-0.04 0.01,-0.19 0.01,-0.47l0 -3.94 -1.75 5.08 -0.41 0 -1.79 -5 0 3.29c0,0.34 0.01,0.59 0.04,0.73 0.03,0.14 0.08,0.26 0.17,0.34 0.13,0.13 0.35,0.2 0.66,0.21l0 0.43 -2.25 0 0 -0.43c0.31,-0.01 0.52,-0.08 0.65,-0.21 0.08,-0.08 0.14,-0.2 0.17,-0.34 0.03,-0.16 0.04,-0.4 0.04,-0.73l0 -2.85c0,-0.27 -0,-0.42 -0.01,-0.46 -0.01,-0.06 -0.03,-0.1 -0.05,-0.13 -0.06,-0.08 -0.28,-0.12 -0.66,-0.12l-0.09 0 0 -0.43zm10.94 3.25l-0.88 0 0 1.31c0,0.27 0,0.43 0.01,0.47 0.01,0.05 0.02,0.09 0.05,0.13 0.07,0.07 0.29,0.11 0.66,0.11l0.17 0 0 0.43 -3.13 0 0 -0.43 0.12 0c0.36,0 0.57,-0.04 0.65,-0.11 0.03,-0.04 0.04,-0.09 0.05,-0.13 0.01,-0.04 0.01,-0.19 0.01,-0.47l0 -3.42c0,-0.27 -0,-0.43 -0.01,-0.47 -0.01,-0.05 -0.02,-0.09 -0.05,-0.13 -0.07,-0.07 -0.29,-0.11 -0.65,-0.11l-0.12 0 0 -0.43 3.14 0c0.71,0 1.27,0.09 1.68,0.28 0.25,0.12 0.45,0.29 0.59,0.52 0.14,0.23 0.21,0.5 0.21,0.79 0,1.11 -0.83,1.67 -2.49,1.67zm-0.88 -2.35l0 1.91 0.46 0c0.51,0 0.87,-0.09 1.08,-0.28 0.21,-0.19 0.31,-0.51 0.31,-0.96 0,-0.4 -0.09,-0.68 -0.27,-0.87 -0.18,-0.18 -0.46,-0.28 -0.83,-0.28l-0.32 0c-0.18,0 -0.3,0.03 -0.35,0.09 -0.06,0.06 -0.08,0.19 -0.08,0.38zm3.88 3.16l1.79 -4.19 0.6 0 2.03 4.9c0.09,0.2 0.18,0.33 0.26,0.39 0.11,0.06 0.27,0.1 0.48,0.1l0 0.43 -2.77 0 0 -0.43 0.13 -0.01c0.25,0 0.39,-0.03 0.44,-0.1 0.04,-0.07 0.02,-0.2 -0.07,-0.41l-0.3 -0.77 -1.97 0 -0.13 0.3c-0.08,0.18 -0.13,0.33 -0.13,0.45 0,0.18 0.06,0.31 0.18,0.39 0.12,0.08 0.32,0.13 0.61,0.15l0 0.43 -2.28 0 0 -0.43c0.24,-0.03 0.44,-0.13 0.61,-0.31 0.17,-0.18 0.34,-0.48 0.51,-0.9zm2.39 -0.62l-0.77 -1.89 -0.8 1.89 1.56 0zm2.76 -3.45l1.99 0 3.05 3.57 0 -1.86c0,-0.34 -0.01,-0.58 -0.04,-0.73 -0.03,-0.15 -0.08,-0.26 -0.17,-0.35 -0.13,-0.14 -0.34,-0.21 -0.65,-0.21l0 -0.43 2.25 0 0 0.43c-0.32,0.01 -0.54,0.08 -0.66,0.21 -0.08,0.08 -0.14,0.2 -0.17,0.34 -0.03,0.15 -0.04,0.39 -0.04,0.73l0 4.04 -0.53 0 -3.67 -4.37 0 2.6c0,0.34 0.01,0.58 0.04,0.73 0.03,0.14 0.08,0.26 0.17,0.34 0.12,0.13 0.34,0.2 0.66,0.21l0 0.43 -2.25 0 0 -0.43c0.32,-0.02 0.53,-0.09 0.65,-0.21 0.08,-0.08 0.14,-0.2 0.17,-0.34 0.03,-0.15 0.04,-0.39 0.04,-0.73l0 -3.11c-0.2,-0.28 -0.48,-0.43 -0.84,-0.44l0 -0.43zm8.71 0.84l1.04 1.73 0.79 -1.41c0.07,-0.16 0.11,-0.28 0.11,-0.36 0,-0.12 -0.05,-0.21 -0.16,-0.28 -0.11,-0.07 -0.25,-0.1 -0.42,-0.1l-0.17 0 0 -0.43 2.33 0 0 0.43c-0.43,0.03 -0.78,0.28 -1.06,0.73l-1.18 2.03 0 1.37c0,0.27 0,0.43 0.01,0.47 0.01,0.05 0.02,0.09 0.05,0.13 0.06,0.08 0.28,0.12 0.66,0.12l0.17 0 0 0.43 -3.19 0 0 -0.43 0.17 0c0.37,0 0.59,-0.04 0.66,-0.12 0.03,-0.03 0.04,-0.07 0.05,-0.13 0.01,-0.04 0.01,-0.19 0.01,-0.47l0 -1.27 -1.61 -2.58c-0.07,-0.12 -0.15,-0.19 -0.23,-0.23 -0.08,-0.04 -0.21,-0.06 -0.39,-0.06l0 -0.43 2.84 0 0 0.43 -0.13 0c-0.3,0 -0.44,0.06 -0.44,0.17 0,0.06 0.03,0.15 0.09,0.24z"/>
   <path class="fil2" d="M43.77 29.77l2.06 0 -0.01 0.14 0.01 0 -0.46 10.3 -0.01 0 -25.99 0 0 -2.09 0.58 0c1.81,0 2.87,-0.19 3.18,-0.58 0.13,-0.16 0.2,-0.36 0.23,-0.62 0.02,-0.18 0.04,-0.96 0.04,-2.33l0 -29c0,-1.32 -0.01,-2.07 -0.04,-2.25 -0.05,-0.29 -0.12,-0.51 -0.23,-0.66 -0.3,-0.39 -1.37,-0.58 -3.18,-0.58l-0.58 0 0 -2.09 15.36 0 0 2.09 -0.85 0c-1.84,0 -2.92,0.19 -3.22,0.58 -0.11,0.15 -0.19,0.37 -0.23,0.66 -0.03,0.18 -0.04,0.93 -0.04,2.25l0 6.98 14.67 0 0.23 9.95 -1.99 0c-0.61,-2.17 -1.35,-3.85 -2.22,-5.05 -1.38,-1.89 -3.53,-2.83 -6.47,-2.83l-1.07 0c-1.53,0 -2.5,0.28 -2.91,0.84 -0.1,0.14 -0.18,0.35 -0.24,0.62l0 8.76 0.51 0c1.51,0 2.71,-0.47 3.62,-1.4 0.91,-0.93 1.46,-2.28 1.67,-4.04l2.07 0 0 12.98 -2.07 0c-0.2,-1.76 -0.76,-3.11 -1.67,-4.04 -0.91,-0.93 -2.11,-1.4 -3.62,-1.4l-0.51 0 0 8.44c0,1.06 0.21,1.78 0.62,2.17 0.24,0.23 0.53,0.38 0.89,0.45 0.36,0.06 1.02,0.1 1.98,0.1l0.81 0c2.74,0 4.93,-0.97 6.55,-2.91 1.01,-1.24 1.85,-3.05 2.52,-5.43zm-35.66 -9.67c0,6.59 5.34,11.93 11.93,11.93 0.88,0 1.73,-0.09 2.56,-0.27l0 -8 -0.8 -0.8c-0.28,0.17 -0.58,0.3 -0.91,0.38l0 1.27 -1.63 0 0 -1.27c-0.33,-0.08 -0.63,-0.21 -0.91,-0.38l-0.9 0.9 -1.15 -1.16 0.9 -0.9c-0.17,-0.28 -0.3,-0.59 -0.38,-0.91l-1.27 0 0 -1.63 1.27 0c0.08,-0.32 0.21,-0.63 0.38,-0.91l-0.9 -0.9 1.15 -1.15 0.91 0.91c0.28,-0.17 0.58,-0.29 0.91,-0.37l0 -1.28 1.63 0 0 1.29c0.32,0.08 0.62,0.21 0.9,0.37l0.81 -0.81 0 -7.94c-0.82,-0.18 -1.68,-0.28 -2.56,-0.28 -6.59,0 -11.93,5.34 -11.93,11.93z"/>
   <path class="fil3" d="M20.04 33.05c-7.15,0 -12.95,-5.8 -12.95,-12.95 0,-7.15 5.8,-12.95 12.95,-12.95 0.88,0 1.73,0.09 2.56,0.25l0 -1.82c0,-0.61 0.05,-1.53 -0.03,-2.12 -0.01,-0.07 -0.04,-0.24 -0.06,-0.28 -0.34,-0.25 -2.11,-0.28 -2.55,-0.28l-1.39 0 0 -2.9 -2.11 0 0 5.69c-1.43,0.35 -2.78,0.91 -4.01,1.65l-4.01 -4.01 -5.11 5.11 4 4c-0.75,1.24 -1.32,2.59 -1.68,4.02l-5.64 0 0 7.23 5.63 0c0.36,1.44 0.93,2.8 1.67,4.05l-3.98 3.98 5.11 5.11 3.98 -3.98c1.24,0.75 2.6,1.31 4.05,1.67l0 5.63 2.11 0 0 -2.84 1.39 0c0.44,0 2.22,-0.03 2.57,-0.3 0.02,-0.03 0.04,-0.15 0.04,-0.19 0.07,-0.66 0.03,-1.56 0.03,-2.23l0 -1.78c-0.83,0.17 -1.68,0.25 -2.56,0.25z"/>
  </g>
 </g>
</svg>
