<?xml version="1.0" encoding="UTF-8"?>
<!DOCTYPE svg PUBLIC "-//W3C//DTD SVG 1.1//EN" "http://www.w3.org/Graphics/SVG/1.1/DTD/svg11.dtd">
<!-- Creator: CorelDRAW 2021 (64-Bit) -->
<svg xmlns="http://www.w3.org/2000/svg" xml:space="preserve" width="65.419mm" height="65.4194mm" version="1.1" style="shape-rendering:geometricPrecision; text-rendering:geometricPrecision; image-rendering:optimizeQuality; fill-rule:evenodd; clip-rule:evenodd"
viewBox="0 0 374.9 374.9"
 xmlns:xlink="http://www.w3.org/1999/xlink"
 xmlns:xodm="http://www.corel.com/coreldraw/odm/2003">
 <defs>
  <style type="text/css">
   <![CDATA[
    .fil0 {fill:#DA251C}
    .fil2 {fill:white}
    .fil1 {fill:white;fill-rule:nonzero}
   ]]>
  </style>
 </defs>
 <g id="Layer_x0020_1">
  <metadata id="CorelCorpID_0Corel-Layer"/>
  <rect class="fil0" width="374.9" height="374.9"/>
  <g id="_1859358198864">
   <path class="fil1" d="M263.59 222.75l7.5 0 -0.02 0.5 0.02 0 -1.68 37.59 -0.02 0 -94.87 0 0 -7.65 2.12 0c6.61,0 10.48,-0.71 11.61,-2.12 0.47,-0.57 0.74,-1.32 0.85,-2.26 0.08,-0.66 0.14,-3.49 0.14,-8.5l0 -105.86c0,-4.81 -0.03,-7.55 -0.14,-8.21 -0.17,-1.04 -0.44,-1.87 -0.85,-2.41 -1.1,-1.44 -5,-2.12 -11.61,-2.12l-2.12 0 0 -7.65 56.07 0 0 7.65 -3.12 0c-6.7,0 -10.65,0.68 -11.75,2.12 -0.41,0.54 -0.68,1.37 -0.85,2.41 -0.11,0.66 -0.14,3.4 -0.14,8.21l0 25.49 53.56 0 0.84 36.34 -7.27 0c-2.24,-7.92 -4.94,-14.07 -8.11,-18.45 -5.03,-6.89 -12.9,-10.34 -23.62,-10.34l-3.91 0c-5.59,0 -9.13,1.02 -10.62,3.07 -0.36,0.5 -0.65,1.26 -0.87,2.27l0 31.97 1.85 0c5.5,0 9.9,-1.7 13.21,-5.1 3.31,-3.4 5.33,-8.32 6.08,-14.74l7.55 0 0 47.38 -7.55 0c-0.75,-6.43 -2.77,-11.34 -6.08,-14.74 -3.31,-3.4 -7.71,-5.1 -13.21,-5.1l-1.85 0 0 30.8c0,3.87 0.77,6.5 2.26,7.93 0.87,0.83 1.94,1.39 3.26,1.63 1.32,0.24 3.73,0.35 7.22,0.35l2.97 0c10.01,0 17.98,-3.54 23.93,-10.62 3.68,-4.53 6.75,-11.14 9.2,-19.82zm-130.17 -35.31c0,24.05 19.5,43.54 43.55,43.54 3.21,0 6.33,-0.35 9.34,-1l0 -29.21 -2.93 -2.93c-1.02,0.62 -2.14,1.09 -3.32,1.39l0 4.65 -5.96 0 0 -4.64c-1.19,-0.3 -2.31,-0.77 -3.34,-1.38l-3.28 3.28 -4.22 -4.22 3.28 -3.28c-0.62,-1.02 -1.08,-2.15 -1.38,-3.34l-4.64 0 0 -5.96 4.65 0c0.3,-1.18 0.77,-2.3 1.39,-3.32l-3.3 -3.3 4.22 -4.22 3.31 3.31c1.02,-0.61 2.13,-1.07 3.31,-1.36l0 -4.69 5.96 0 0 4.7c1.17,0.3 2.28,0.76 3.29,1.37l2.96 -2.96 0 -28.98c-3.01,-0.66 -6.13,-1 -9.34,-1 -24.05,0 -43.55,19.5 -43.55,43.55z"/>
   <path class="fil2" d="M176.97 234.72c-26.11,0 -47.27,-21.17 -47.27,-47.27 0,-26.11 21.16,-47.27 47.27,-47.27 3.2,0 6.32,0.32 9.34,0.92l0 -6.65c0,-2.23 0.17,-5.59 -0.1,-7.75 -0.04,-0.25 -0.16,-0.88 -0.23,-1.04 -1.23,-0.91 -7.71,-1.02 -9.32,-1.02l-5.07 0 0 -10.59 -7.7 0 0 20.76c-5.21,1.29 -10.13,3.34 -14.63,6.02l-14.65 -14.65 -18.66 18.66 14.6 14.6c-2.72,4.51 -4.81,9.45 -6.13,14.69l-20.59 0 0 26.39 20.54 0c1.31,5.27 3.38,10.24 6.1,14.77l-14.51 14.51 18.66 18.66 14.51 -14.51c4.54,2.72 9.5,4.8 14.77,6.1l0 20.54 7.7 0 0 -10.36 5.07 0c1.62,0 8.11,-0.12 9.38,-1.1 0.07,-0.1 0.14,-0.54 0.16,-0.69 0.26,-2.4 0.12,-5.71 0.12,-8.16l0 -6.51c-3.02,0.61 -6.14,0.92 -9.34,0.92z"/>
  </g>
 </g>
</svg>
