<?xml version="1.0" encoding="UTF-8"?>
<!DOCTYPE svg PUBLIC "-//W3C//DTD SVG 1.1//EN" "http://www.w3.org/Graphics/SVG/1.1/DTD/svg11.dtd">
<!-- Creator: CorelDRAW 2021 (64-Bit) -->
<svg xmlns="http://www.w3.org/2000/svg" xml:space="preserve" width="29.1919mm" height="25.6135mm" version="1.1" style="shape-rendering:geometricPrecision; text-rendering:geometricPrecision; image-rendering:optimizeQuality; fill-rule:evenodd; clip-rule:evenodd"
viewBox="0 0 76.91 67.48"
 xmlns:xlink="http://www.w3.org/1999/xlink"
 xmlns:xodm="http://www.corel.com/coreldraw/odm/2003">
 <defs>
  <style type="text/css">
   <![CDATA[
    .fil0 {fill:black;fill-rule:nonzero}
    .fil1 {fill:url(#id0)}
   ]]>
  </style>
  <linearGradient id="id0" gradientUnits="userSpaceOnUse" x1="14.6" y1="55.59" x2="44.78" y2="18.4">
   <stop offset="0" style="stop-opacity:1; stop-color:#D1231B"/>
   <stop offset="0.490196" style="stop-opacity:1; stop-color:#FF0800"/>
   <stop offset="1" style="stop-opacity:1; stop-color:#D1231B"/>
  </linearGradient>
 </defs>
 <g id="Layer_x0020_1">
  <metadata id="CorelCorpID_0Corel-Layer"/>
  <g id="_1859647634144">
   <path class="fil0" d="M73.46 49.97l3.45 0 -0.01 0.23 0.01 0 -0.77 17.28 -0.01 0 -43.62 0 0 -3.52 0.98 0c3.04,0 4.82,-0.33 5.34,-0.98 0.22,-0.26 0.34,-0.61 0.39,-1.04 0.04,-0.3 0.07,-1.61 0.07,-3.91l0 -48.67c0,-2.21 -0.02,-3.47 -0.07,-3.78 -0.08,-0.48 -0.2,-0.86 -0.39,-1.11 -0.51,-0.66 -2.3,-0.98 -5.34,-0.98l-0.98 0 0 -3.52 25.78 0 0 3.52 -1.43 0c-3.08,0 -4.9,0.31 -5.4,0.98 -0.19,0.25 -0.31,0.63 -0.39,1.11 -0.05,0.3 -0.06,1.56 -0.06,3.78l0 11.72 24.62 0 0.39 16.7 -3.34 0c-1.03,-3.64 -2.27,-6.47 -3.73,-8.48 -2.31,-3.17 -5.93,-4.75 -10.86,-4.75l-1.8 0c-2.57,0 -4.2,0.47 -4.88,1.41 -0.17,0.23 -0.3,0.58 -0.4,1.04l0 14.7 0.85 0c2.53,0 4.55,-0.78 6.07,-2.35 1.52,-1.56 2.45,-3.82 2.79,-6.78l3.47 0 0 21.78 -3.47 0c-0.34,-2.96 -1.27,-5.22 -2.79,-6.78 -1.52,-1.56 -3.54,-2.35 -6.07,-2.35l-0.85 0 0 14.16c0,1.78 0.35,2.99 1.04,3.65 0.4,0.38 0.89,0.64 1.5,0.75 0.61,0.11 1.71,0.16 3.32,0.16l1.37 0c4.6,0 8.27,-1.63 11,-4.88 1.69,-2.08 3.1,-5.12 4.23,-9.11zm-59.84 -16.23c0,11.06 8.96,20.02 20.02,20.02 1.47,0 2.91,-0.16 4.29,-0.46l0 -13.43 -1.35 -1.35c-0.47,0.28 -0.98,0.5 -1.53,0.64l0 2.14 -2.74 0 0 -2.13c-0.55,-0.14 -1.06,-0.35 -1.53,-0.63l-1.51 1.51 -1.94 -1.94 1.51 -1.51c-0.28,-0.47 -0.5,-0.99 -0.63,-1.53l-2.13 0 0 -2.74 2.14 0c0.14,-0.54 0.35,-1.06 0.64,-1.53l-1.52 -1.52 1.94 -1.94 1.52 1.52c0.47,-0.28 0.98,-0.49 1.52,-0.63l0 -2.16 2.74 0 0 2.16c0.54,0.14 1.05,0.35 1.51,0.63l1.36 -1.36 0 -13.32c-1.38,-0.3 -2.82,-0.46 -4.29,-0.46 -11.06,0 -20.02,8.96 -20.02,20.02z"/>
   <path class="fil1" d="M33.64 55.47c-12,0 -21.73,-9.73 -21.73,-21.73 0,-12 9.73,-21.73 21.73,-21.73 1.47,0 2.91,0.15 4.29,0.42l0 -3.06c0,-1.02 0.08,-2.57 -0.05,-3.56 -0.02,-0.12 -0.07,-0.4 -0.11,-0.48 -0.57,-0.42 -3.55,-0.47 -4.29,-0.47l-2.33 0 0 -4.87 -3.54 0 0 9.55c-2.4,0.59 -4.66,1.54 -6.73,2.77l-6.74 -6.74 -8.58 8.58 6.71 6.71c-1.25,2.07 -2.21,4.34 -2.82,6.75l-9.47 0 0 12.13 9.44 0c0.6,2.42 1.55,4.71 2.81,6.79l-6.67 6.67 8.58 8.58 6.67 -6.67c2.09,1.25 4.37,2.21 6.79,2.81l0 9.44 3.54 0 0 -4.76 2.33 0c0.74,0 3.73,-0.05 4.31,-0.5 0.03,-0.05 0.06,-0.25 0.07,-0.32 0.12,-1.1 0.06,-2.63 0.06,-3.75l0 -2.99c-1.39,0.28 -2.82,0.42 -4.29,0.42z"/>
  </g>
 </g>
</svg>
