<?xml version="1.0" encoding="UTF-8"?>
<!DOCTYPE svg PUBLIC "-//W3C//DTD SVG 1.1//EN" "http://www.w3.org/Graphics/SVG/1.1/DTD/svg11.dtd">
<!-- Creator: CorelDRAW 2021 (64-Bit) -->
<svg xmlns="http://www.w3.org/2000/svg" xml:space="preserve" width="27.9693mm" height="17.9596mm" version="1.1" style="shape-rendering:geometricPrecision; text-rendering:geometricPrecision; image-rendering:optimizeQuality; fill-rule:evenodd; clip-rule:evenodd"
viewBox="0 0 169.16 108.62"
 xmlns:xlink="http://www.w3.org/1999/xlink"
 xmlns:xodm="http://www.corel.com/coreldraw/odm/2003">
 <defs>
  <style type="text/css">
   <![CDATA[
    .fil0 {fill:black;fill-rule:nonzero}
    .fil2 {fill:black;fill-rule:nonzero}
    .fil1 {fill:#DA251C;fill-rule:nonzero}
    .fil3 {fill:url(#id0)}
   ]]>
  </style>
  <linearGradient id="id0" gradientUnits="userSpaceOnUse" x1="67.09" y1="40.76" x2="89.22" y2="13.49">
   <stop offset="0" style="stop-opacity:1; stop-color:#D1231B"/>
   <stop offset="0.490196" style="stop-opacity:1; stop-color:#FF0800"/>
   <stop offset="1" style="stop-opacity:1; stop-color:#D1231B"/>
  </linearGradient>
 </defs>
 <g id="Layer_x0020_1">
  <metadata id="CorelCorpID_0Corel-Layer"/>
  <g id="_1869405309152">
   <g>
    <path class="fil0" d="M28.59 83.03l2.41 0 -0.55 12.23 -30.45 0 0 -2.45 0.68 0c2.12,0 3.36,-0.23 3.73,-0.68 0.15,-0.18 0.24,-0.42 0.27,-0.73 0.03,-0.21 0.05,-1.12 0.05,-2.73l0 -19.68c0,-1.55 -0.02,-2.42 -0.05,-2.64 -0.06,-0.33 -0.15,-0.59 -0.27,-0.77 -0.36,-0.45 -1.61,-0.68 -3.73,-0.68l-0.68 0 0 -2.45 18 0 0 2.45 -1 0c-2.15,0 -3.41,0.23 -3.77,0.68 -0.12,0.18 -0.21,0.44 -0.27,0.77 -0.03,0.21 -0.04,1.09 -0.04,2.64l0 20.63c0,1.24 0.24,2.09 0.73,2.55 0.27,0.27 0.62,0.45 1.05,0.52 0.42,0.08 1.2,0.11 2.32,0.11l0.95 0c3.21,0 5.77,-1.14 7.68,-3.41 1.18,-1.45 2.17,-3.58 2.95,-6.36zm9.91 2.82l10.32 -24.09 3.45 0 11.68 28.18c0.52,1.15 1.02,1.91 1.5,2.27 0.61,0.36 1.53,0.56 2.77,0.59l0 2.45 -15.95 0 0 -2.45 0.77 -0.05c1.42,0 2.27,-0.19 2.52,-0.57 0.26,-0.38 0.11,-1.17 -0.43,-2.39l-1.73 -4.45 -11.32 0 -0.73 1.73c-0.48,1.06 -0.73,1.92 -0.73,2.59 0,1.03 0.35,1.79 1.05,2.27 0.7,0.48 1.86,0.77 3.5,0.86l0 2.45 -13.13 0 0 -2.45c1.36,-0.15 2.53,-0.74 3.5,-1.77 0.97,-1.03 1.95,-2.76 2.95,-5.18zm13.77 -3.55l-4.41 -10.86 -4.59 10.86 9 0zm15.04 -19.86l30.09 0 0.68 12.32 -2.41 0c-0.58,-3.27 -1.47,-5.7 -2.68,-7.27 -1.42,-1.79 -3.06,-2.68 -4.91,-2.68 -0.67,0 -1.11,0.11 -1.32,0.34 -0.21,0.23 -0.32,0.73 -0.32,1.52l0 22.04c0,1.58 0.02,2.47 0.05,2.68 0.03,0.3 0.12,0.55 0.27,0.73 0.36,0.45 1.62,0.68 3.77,0.68l1 0 0 2.45 -18.36 0 0 -2.45 1 0c2.15,0 3.41,-0.23 3.77,-0.68 0.15,-0.18 0.24,-0.42 0.27,-0.73 0.03,-0.21 0.05,-1.11 0.05,-2.68l0 -22.04c0,-0.79 -0.11,-1.3 -0.32,-1.52 -0.21,-0.23 -0.65,-0.34 -1.32,-0.34 -2.09,0 -3.85,1.08 -5.27,3.23 -1.06,1.52 -1.83,3.76 -2.32,6.73l-2.41 0 0.68 -12.32zm32.18 0l30.5 0 0.27 11.82 -2.36 0c-0.73,-2.57 -1.61,-4.57 -2.64,-6 -1.64,-2.24 -4.2,-3.36 -7.68,-3.36l-1.27 0c-1.82,0 -2.97,0.33 -3.45,1 -0.3,0.42 -0.45,1.39 -0.45,2.91l0 8.23 0.77 0c1.79,0 3.22,-0.55 4.3,-1.66 1.08,-1.11 1.73,-2.7 1.98,-4.8l2.45 0 0 15.41 -2.45 0c-0.24,-2.09 -0.9,-3.69 -1.98,-4.79 -1.08,-1.11 -2.51,-1.66 -4.3,-1.66l-0.77 0 0 10.09c0,1.24 0.24,2.09 0.73,2.55 0.27,0.27 0.62,0.45 1.05,0.52 0.42,0.08 1.2,0.11 2.32,0.11l1.36 0c2.76,0 4.98,-0.78 6.68,-2.34 1.7,-1.56 3.02,-4.04 3.95,-7.43l2.41 0 -0.54 12.23 -30.86 0 0 -2.45 0.68 0c2.12,0 3.36,-0.23 3.73,-0.68 0.15,-0.18 0.24,-0.42 0.27,-0.73 0.03,-0.21 0.05,-1.11 0.05,-2.68l0 -19.73c0,-1.55 -0.02,-2.42 -0.05,-2.64 -0.06,-0.33 -0.15,-0.59 -0.27,-0.77 -0.36,-0.45 -1.61,-0.68 -3.73,-0.68l-0.68 0 0 -2.45zm46.59 5.09l7.23 18.36 6.45 -16.18c0.27,-0.67 0.41,-1.24 0.41,-1.73 0,-1.21 -0.53,-2.08 -1.59,-2.59 -0.61,-0.33 -1.55,-0.5 -2.82,-0.5l0 -2.45 13.41 0 0 2.45c-2.79,0.27 -4.88,2.2 -6.27,5.77l-10.41 25.27 -4 0 -11.04 -27.91c-0.48,-1.27 -1.03,-2.12 -1.64,-2.55 -0.51,-0.39 -1.45,-0.59 -2.82,-0.59l0 -2.45 16.45 0 0 2.45 -0.96 0c-1.88,0 -2.82,0.38 -2.82,1.14 0,0.27 0.14,0.77 0.41,1.5z"/>
    <path class="fil1" d="M-0 99.71l8.11 0 0.07 3.14 -0.63 0c-0.19,-0.69 -0.43,-1.22 -0.7,-1.6 -0.44,-0.6 -1.12,-0.9 -2.04,-0.9l-0.34 0c-0.48,0 -0.79,0.09 -0.92,0.27 -0.08,0.11 -0.12,0.37 -0.12,0.77l0 2.19 0.21 0c0.48,0 0.86,-0.15 1.14,-0.44 0.29,-0.29 0.46,-0.72 0.53,-1.28l0.65 0 0 4.1 -0.65 0c-0.06,-0.56 -0.24,-0.98 -0.53,-1.28 -0.29,-0.29 -0.67,-0.44 -1.14,-0.44l-0.21 0 0 2.68c0,0.33 0.06,0.56 0.19,0.68 0.07,0.07 0.17,0.12 0.28,0.14 0.11,0.02 0.32,0.03 0.62,0.03l0.36 0c0.73,0 1.33,-0.21 1.78,-0.62 0.45,-0.42 0.8,-1.07 1.05,-1.98l0.64 0 -0.15 3.25 -8.21 0 0 -0.65 0.18 0c0.56,0 0.9,-0.06 0.99,-0.18 0.04,-0.05 0.06,-0.11 0.07,-0.19 0.01,-0.06 0.01,-0.29 0.01,-0.71l0 -5.25c0,-0.41 -0,-0.64 -0.01,-0.7 -0.02,-0.09 -0.04,-0.16 -0.07,-0.21 -0.1,-0.12 -0.43,-0.18 -0.99,-0.18l-0.18 0 0 -0.65zm9.2 0l3.05 0 4.67 5.46 0 -2.84c0,-0.52 -0.02,-0.89 -0.06,-1.11 -0.04,-0.23 -0.13,-0.4 -0.25,-0.53 -0.19,-0.21 -0.52,-0.32 -0.99,-0.33l0 -0.65 3.45 0 0 0.65c-0.48,0.02 -0.82,0.13 -1.02,0.33 -0.13,0.13 -0.21,0.3 -0.25,0.52 -0.04,0.23 -0.06,0.6 -0.06,1.12l0 6.19 -0.81 0 -5.62 -6.69 0 3.98c0,0.52 0.02,0.89 0.06,1.11 0.04,0.22 0.12,0.39 0.25,0.52 0.19,0.19 0.52,0.3 1.01,0.33l0 0.65 -3.45 0 0 -0.65c0.48,-0.02 0.81,-0.13 0.99,-0.33 0.13,-0.13 0.21,-0.3 0.25,-0.52 0.04,-0.23 0.06,-0.6 0.06,-1.11l0 -4.76c-0.31,-0.44 -0.73,-0.66 -1.28,-0.68l0 -0.66zm17.85 -0.13l0.53 0 0.11 3.47 -0.64 0c-0.2,-0.92 -0.55,-1.63 -1.05,-2.13 -0.5,-0.5 -1.11,-0.76 -1.83,-0.76 -0.36,0 -0.68,0.08 -0.99,0.24 -0.3,0.16 -0.54,0.38 -0.72,0.67 -0.46,0.74 -0.69,1.76 -0.69,3.07 0,1.15 0.17,2.09 0.5,2.82 0.15,0.33 0.37,0.59 0.66,0.77 0.29,0.18 0.61,0.27 0.99,0.27 0.54,0 0.97,-0.17 1.3,-0.51 0.33,-0.34 0.49,-0.8 0.49,-1.36l0 -0.17c0,-0.44 -0.05,-0.71 -0.16,-0.79 -0.11,-0.09 -0.43,-0.13 -0.94,-0.13l-0.13 0 0 -0.65 4.29 0 0 0.65c-0.58,0.02 -0.91,0.07 -0.99,0.17 -0.03,0.05 -0.06,0.12 -0.07,0.21 -0.01,0.06 -0.01,0.29 -0.01,0.71l0 2.49 -0.64 0 -0.59 -1.18c-0.33,0.33 -0.61,0.56 -0.85,0.7 -0.6,0.33 -1.27,0.5 -2.03,0.5 -1.24,0 -2.26,-0.41 -3.05,-1.22 -0.78,-0.81 -1.17,-1.88 -1.17,-3.19 0,-1.3 0.4,-2.37 1.2,-3.22 0.9,-0.98 2.06,-1.46 3.47,-1.46 0.43,0 0.82,0.05 1.15,0.15 0.33,0.1 0.72,0.27 1.15,0.51l0.71 -0.6zm3.3 7.12l0 -5.25c0,-0.41 -0,-0.64 -0.01,-0.7 -0.02,-0.09 -0.04,-0.16 -0.07,-0.21 -0.1,-0.12 -0.43,-0.18 -0.99,-0.18l-0.18 0 0 -0.65 4.7 0 0 0.65 -0.18 0c-0.57,0 -0.91,0.06 -1,0.18 -0.04,0.05 -0.06,0.11 -0.07,0.19 -0.01,0.06 -0.01,0.29 -0.01,0.71l0 5.25c0,0.42 0,0.66 0.01,0.71 0.01,0.08 0.03,0.14 0.07,0.19 0.1,0.12 0.43,0.18 1,0.18l0.18 0 0 0.65 -4.7 0 0 -0.65 0.18 0c0.56,0 0.9,-0.06 0.99,-0.18 0.04,-0.05 0.06,-0.11 0.07,-0.19 0.01,-0.06 0.01,-0.29 0.01,-0.71zm4.2 -6.99l3.05 0 4.67 5.46 0 -2.84c0,-0.52 -0.02,-0.89 -0.06,-1.11 -0.04,-0.23 -0.12,-0.4 -0.25,-0.53 -0.19,-0.21 -0.52,-0.32 -0.99,-0.33l0 -0.65 3.45 0 0 0.65c-0.48,0.02 -0.82,0.13 -1.02,0.33 -0.13,0.13 -0.21,0.3 -0.25,0.52 -0.04,0.23 -0.06,0.6 -0.06,1.12l0 6.19 -0.81 0 -5.62 -6.69 0 3.98c0,0.52 0.02,0.89 0.06,1.11 0.04,0.22 0.12,0.39 0.25,0.52 0.19,0.19 0.52,0.3 1.02,0.33l0 0.65 -3.45 0 0 -0.65c0.48,-0.02 0.81,-0.13 0.99,-0.33 0.13,-0.13 0.21,-0.3 0.25,-0.52 0.04,-0.23 0.06,-0.6 0.06,-1.11l0 -4.76c-0.31,-0.44 -0.73,-0.66 -1.28,-0.68l0 -0.66zm10.05 0l8.11 0 0.07 3.14 -0.63 0c-0.19,-0.69 -0.43,-1.22 -0.7,-1.6 -0.44,-0.6 -1.12,-0.9 -2.04,-0.9l-0.34 0c-0.48,0 -0.79,0.09 -0.92,0.27 -0.08,0.11 -0.12,0.37 -0.12,0.77l0 2.19 0.21 0c0.48,0 0.86,-0.15 1.14,-0.44 0.29,-0.29 0.46,-0.72 0.53,-1.28l0.65 0 0 4.1 -0.65 0c-0.06,-0.56 -0.24,-0.98 -0.53,-1.28 -0.29,-0.29 -0.67,-0.44 -1.14,-0.44l-0.21 0 0 2.68c0,0.33 0.06,0.56 0.19,0.68 0.07,0.07 0.17,0.12 0.28,0.14 0.11,0.02 0.32,0.03 0.62,0.03l0.36 0c0.73,0 1.33,-0.21 1.78,-0.62 0.45,-0.42 0.8,-1.07 1.05,-1.98l0.64 0 -0.15 3.25 -8.21 0 0 -0.65 0.18 0c0.56,0 0.9,-0.06 0.99,-0.18 0.04,-0.05 0.06,-0.11 0.07,-0.19 0.01,-0.06 0.01,-0.29 0.01,-0.71l0 -5.25c0,-0.41 -0,-0.64 -0.01,-0.7 -0.02,-0.09 -0.04,-0.16 -0.07,-0.21 -0.1,-0.12 -0.43,-0.18 -0.99,-0.18l-0.18 0 0 -0.65zm9.18 0l8.11 0 0.07 3.14 -0.63 0c-0.19,-0.69 -0.43,-1.22 -0.7,-1.6 -0.43,-0.6 -1.12,-0.9 -2.04,-0.9l-0.34 0c-0.48,0 -0.79,0.09 -0.92,0.27 -0.08,0.11 -0.12,0.37 -0.12,0.77l0 2.19 0.21 0c0.48,0 0.86,-0.15 1.14,-0.44 0.29,-0.29 0.46,-0.72 0.53,-1.28l0.65 0 0 4.1 -0.65 0c-0.06,-0.56 -0.24,-0.98 -0.53,-1.28 -0.29,-0.29 -0.67,-0.44 -1.14,-0.44l-0.21 0 0 2.68c0,0.33 0.06,0.56 0.19,0.68 0.07,0.07 0.17,0.12 0.28,0.14 0.11,0.02 0.32,0.03 0.62,0.03l0.36 0c0.73,0 1.33,-0.21 1.78,-0.62 0.45,-0.42 0.8,-1.07 1.05,-1.98l0.64 0 -0.15 3.25 -8.21 0 0 -0.65 0.18 0c0.56,0 0.89,-0.06 0.99,-0.18 0.04,-0.05 0.06,-0.11 0.07,-0.19 0.01,-0.06 0.01,-0.29 0.01,-0.71l0 -5.25c0,-0.41 -0,-0.64 -0.01,-0.7 -0.02,-0.09 -0.04,-0.16 -0.07,-0.21 -0.1,-0.12 -0.43,-0.18 -0.99,-0.18l-0.18 0 0 -0.65zm13.34 4.53l-0.68 0 0 2.44c0,0.42 0,0.66 0.01,0.71 0.01,0.07 0.03,0.14 0.07,0.21 0.11,0.11 0.45,0.17 1,0.17l0.31 0 0 0.65 -4.84 0 0 -0.65 0.18 0c0.55,0 0.88,-0.06 0.99,-0.17 0.04,-0.06 0.06,-0.13 0.07,-0.21 0.01,-0.06 0.01,-0.29 0.01,-0.71l0 -5.24c0,-0.42 -0,-0.66 -0.01,-0.71 -0.01,-0.07 -0.03,-0.14 -0.07,-0.21 -0.11,-0.11 -0.44,-0.17 -0.99,-0.17l-0.18 0 0 -0.65 5.16 0c1.13,0 1.92,0.14 2.38,0.44 0.65,0.42 0.98,1 0.98,1.75 0,0.81 -0.39,1.42 -1.16,1.83 -0.27,0.13 -0.69,0.25 -1.26,0.35 0.52,0.18 0.92,0.42 1.17,0.71 0.26,0.3 0.43,0.72 0.52,1.27l0.08 0.46c0.03,0.19 0.05,0.31 0.05,0.34 0.05,0.32 0.1,0.51 0.15,0.57 0.08,0.12 0.2,0.18 0.35,0.18 0.36,0 0.54,-0.38 0.56,-1.15l0.65 0 0 0.15c0,0.64 -0.18,1.14 -0.54,1.49 -0.36,0.35 -0.86,0.53 -1.52,0.53 -1.08,0 -1.72,-0.48 -1.93,-1.44 -0.05,-0.29 -0.1,-0.79 -0.17,-1.51 -0.02,-0.33 -0.05,-0.56 -0.09,-0.69 -0.04,-0.13 -0.1,-0.25 -0.2,-0.37 -0.22,-0.24 -0.58,-0.36 -1.08,-0.36zm-0.68 -3.11l0 2.44 0.66 0c0.8,0 1.35,-0.12 1.66,-0.35 0.31,-0.23 0.46,-0.66 0.46,-1.27 0,-0.55 -0.13,-0.95 -0.39,-1.21 -0.26,-0.26 -0.67,-0.39 -1.24,-0.39l-0.29 0c-0.38,0 -0.62,0.04 -0.73,0.13 -0.09,0.09 -0.13,0.3 -0.13,0.64zm7.96 5.56l0 -5.25c0,-0.41 -0,-0.64 -0.01,-0.7 -0.02,-0.09 -0.04,-0.16 -0.07,-0.21 -0.1,-0.12 -0.43,-0.18 -0.99,-0.18l-0.18 0 0 -0.65 4.7 0 0 0.65 -0.18 0c-0.57,0 -0.91,0.06 -1,0.18 -0.04,0.05 -0.06,0.11 -0.07,0.19 -0.01,0.06 -0.01,0.29 -0.01,0.71l0 5.25c0,0.42 0,0.66 0.01,0.71 0.01,0.08 0.03,0.14 0.07,0.19 0.1,0.12 0.43,0.18 1,0.18l0.18 0 0 0.65 -4.7 0 0 -0.65 0.18 0c0.56,0 0.89,-0.06 0.99,-0.18 0.04,-0.05 0.06,-0.11 0.07,-0.19 0.01,-0.06 0.01,-0.29 0.01,-0.71zm4.2 -6.99l3.05 0 4.67 5.46 0 -2.84c0,-0.52 -0.02,-0.89 -0.06,-1.11 -0.04,-0.23 -0.13,-0.4 -0.25,-0.53 -0.19,-0.21 -0.52,-0.32 -0.99,-0.33l0 -0.65 3.45 0 0 0.65c-0.48,0.02 -0.82,0.13 -1.02,0.33 -0.13,0.13 -0.21,0.3 -0.25,0.52 -0.04,0.23 -0.06,0.6 -0.06,1.12l0 6.19 -0.81 0 -5.62 -6.69 0 3.98c0,0.52 0.02,0.89 0.06,1.11 0.04,0.22 0.13,0.39 0.25,0.52 0.19,0.19 0.52,0.3 1.02,0.33l0 0.65 -3.45 0 0 -0.65c0.48,-0.02 0.81,-0.13 0.99,-0.33 0.13,-0.13 0.21,-0.3 0.25,-0.52 0.04,-0.23 0.06,-0.6 0.06,-1.11l0 -4.76c-0.31,-0.44 -0.73,-0.66 -1.28,-0.68l0 -0.66zm17.85 -0.13l0.53 0 0.11 3.47 -0.64 0c-0.2,-0.92 -0.55,-1.63 -1.05,-2.13 -0.5,-0.5 -1.11,-0.76 -1.83,-0.76 -0.35,0 -0.68,0.08 -0.99,0.24 -0.3,0.16 -0.54,0.38 -0.72,0.67 -0.46,0.74 -0.69,1.76 -0.69,3.07 0,1.15 0.17,2.09 0.5,2.82 0.15,0.33 0.37,0.59 0.66,0.77 0.29,0.18 0.61,0.27 0.99,0.27 0.54,0 0.97,-0.17 1.3,-0.51 0.33,-0.34 0.49,-0.8 0.49,-1.36l0 -0.17c0,-0.44 -0.05,-0.71 -0.16,-0.79 -0.11,-0.09 -0.43,-0.13 -0.94,-0.13l-0.13 0 0 -0.65 4.29 0 0 0.65c-0.58,0.02 -0.91,0.07 -0.99,0.17 -0.03,0.05 -0.06,0.12 -0.07,0.21 -0.01,0.06 -0.01,0.29 -0.01,0.71l0 2.49 -0.64 0 -0.59 -1.18c-0.33,0.33 -0.61,0.56 -0.85,0.7 -0.6,0.33 -1.27,0.5 -2.03,0.5 -1.24,0 -2.26,-0.41 -3.05,-1.22 -0.78,-0.81 -1.17,-1.88 -1.17,-3.19 0,-1.3 0.4,-2.37 1.2,-3.22 0.9,-0.98 2.06,-1.46 3.47,-1.46 0.44,0 0.82,0.05 1.15,0.15 0.34,0.1 0.72,0.27 1.15,0.51l0.71 -0.6zm13.3 0l0.52 0 0.12 3.46 -0.64 0.07c-0.27,-1.01 -0.64,-1.75 -1.09,-2.23 -0.45,-0.48 -1.01,-0.72 -1.68,-0.72 -0.74,0 -1.3,0.32 -1.69,0.97 -0.38,0.64 -0.57,1.59 -0.57,2.84 0,1.33 0.2,2.31 0.59,2.95 0.39,0.64 1,0.96 1.83,0.96 0.69,0 1.27,-0.23 1.74,-0.69 0.47,-0.46 0.78,-1.11 0.94,-1.95l0.75 0.18c-0.23,1.09 -0.67,1.89 -1.29,2.42 -0.63,0.52 -1.48,0.79 -2.54,0.79 -1.37,0 -2.46,-0.44 -3.28,-1.33 -0.77,-0.85 -1.15,-1.89 -1.15,-3.11 0,-1.36 0.43,-2.47 1.28,-3.34 0.85,-0.88 1.95,-1.32 3.29,-1.32 0.43,0 0.82,0.05 1.14,0.14 0.33,0.09 0.68,0.26 1.07,0.5l0.65 -0.59zm6.43 -0.05c1.18,0 2.16,0.34 2.94,1.03 0.5,0.43 0.89,0.97 1.18,1.61 0.29,0.65 0.44,1.32 0.44,2.02 0,1.45 -0.54,2.61 -1.62,3.48 -0.8,0.63 -1.8,0.94 -3,0.94 -1.32,0 -2.4,-0.41 -3.24,-1.25 -0.85,-0.84 -1.27,-1.89 -1.27,-3.17 0,-0.71 0.14,-1.39 0.43,-2.03 0.29,-0.64 0.68,-1.18 1.19,-1.62 0.78,-0.68 1.77,-1.03 2.95,-1.03zm0.01 0.63c-0.69,0 -1.21,0.29 -1.55,0.86 -0.41,0.69 -0.62,1.68 -0.62,2.96 0,1.28 0.21,2.31 0.62,3.08 0.33,0.62 0.85,0.93 1.55,0.93 0.69,0 1.22,-0.32 1.58,-0.97 0.36,-0.64 0.54,-1.58 0.54,-2.82 0,-1.33 -0.21,-2.37 -0.62,-3.12 -0.36,-0.62 -0.86,-0.93 -1.51,-0.93zm5.03 -0.45l3.89 0 1.87 5.2 1.76 -5.2 3.94 0 0 0.65 -0.13 0c-0.57,0 -0.91,0.06 -1,0.18 -0.03,0.05 -0.06,0.12 -0.07,0.21 -0.01,0.06 -0.01,0.29 -0.01,0.7l0 5.25c0,0.42 0,0.66 0.01,0.71 0.01,0.08 0.03,0.14 0.07,0.19 0.1,0.12 0.43,0.18 1,0.18l0.13 0 0 0.65 -4.62 0 0 -0.65 0.13 0c0.57,0 0.91,-0.06 1,-0.18 0.04,-0.05 0.06,-0.11 0.07,-0.19 0.01,-0.06 0.01,-0.29 0.01,-0.71l0 -6.03 -2.67 7.77 -0.63 0 -2.74 -7.65 0 5.03c0,0.52 0.02,0.9 0.06,1.12 0.04,0.22 0.13,0.39 0.25,0.52 0.19,0.2 0.53,0.31 1.02,0.33l0 0.65 -3.45 0 0 -0.65c0.47,-0.01 0.8,-0.12 0.99,-0.33 0.13,-0.13 0.21,-0.3 0.25,-0.52 0.04,-0.24 0.06,-0.62 0.06,-1.12l0 -4.37c0,-0.41 -0,-0.64 -0.01,-0.7 -0.02,-0.09 -0.04,-0.16 -0.07,-0.21 -0.1,-0.12 -0.43,-0.18 -1,-0.18l-0.13 0 0 -0.65zm16.75 4.98l-1.35 0 0 2.01c0,0.42 0,0.66 0.01,0.71 0.01,0.07 0.03,0.14 0.07,0.21 0.11,0.11 0.45,0.17 1,0.17l0.27 0 0 0.65 -4.79 0 0 -0.65 0.18 0c0.55,0 0.88,-0.06 0.99,-0.17 0.04,-0.06 0.06,-0.13 0.07,-0.21 0.01,-0.06 0.01,-0.29 0.01,-0.71l0 -5.23c0,-0.42 -0,-0.66 -0.01,-0.71 -0.01,-0.07 -0.03,-0.14 -0.07,-0.21 -0.11,-0.11 -0.44,-0.17 -0.99,-0.17l-0.18 0 0 -0.66 4.8 0c1.09,0 1.95,0.14 2.58,0.42 0.39,0.18 0.69,0.44 0.9,0.8 0.21,0.35 0.32,0.76 0.32,1.21 0,1.7 -1.27,2.55 -3.81,2.55zm-1.35 -3.59l0 2.93 0.7 0c0.78,0 1.33,-0.14 1.65,-0.43 0.32,-0.29 0.48,-0.78 0.48,-1.47 0,-0.6 -0.14,-1.05 -0.41,-1.33 -0.27,-0.28 -0.7,-0.42 -1.27,-0.42l-0.48 0c-0.27,0 -0.45,0.05 -0.54,0.14 -0.08,0.09 -0.13,0.29 -0.13,0.59zm5.94 4.84l2.74 -6.41 0.92 0 3.11 7.5c0.14,0.31 0.27,0.51 0.4,0.6 0.16,0.1 0.41,0.15 0.74,0.16l0 0.65 -4.24 0 0 -0.65 0.21 -0.01c0.38,0 0.6,-0.05 0.67,-0.15 0.07,-0.1 0.03,-0.31 -0.11,-0.64l-0.46 -1.18 -3.01 0 -0.19 0.46c-0.13,0.28 -0.19,0.51 -0.19,0.69 0,0.27 0.09,0.48 0.28,0.6 0.19,0.13 0.5,0.21 0.93,0.23l0 0.65 -3.49 0 0 -0.65c0.36,-0.04 0.67,-0.2 0.93,-0.47 0.26,-0.27 0.52,-0.73 0.79,-1.38zm3.66 -0.94l-1.17 -2.89 -1.22 2.89 2.39 0zm4.23 -5.28l3.05 0 4.67 5.46 0 -2.84c0,-0.52 -0.02,-0.89 -0.06,-1.11 -0.04,-0.23 -0.13,-0.4 -0.25,-0.53 -0.19,-0.21 -0.52,-0.32 -0.99,-0.33l0 -0.65 3.45 0 0 0.65c-0.48,0.02 -0.82,0.13 -1.02,0.33 -0.13,0.13 -0.21,0.3 -0.25,0.52 -0.04,0.23 -0.06,0.6 -0.06,1.12l0 6.19 -0.81 0 -5.62 -6.69 0 3.98c0,0.52 0.02,0.89 0.06,1.11 0.04,0.22 0.13,0.39 0.25,0.52 0.19,0.19 0.52,0.3 1.02,0.33l0 0.65 -3.45 0 0 -0.65c0.48,-0.02 0.81,-0.13 0.99,-0.33 0.13,-0.13 0.21,-0.3 0.25,-0.52 0.04,-0.23 0.06,-0.6 0.06,-1.11l0 -4.76c-0.31,-0.44 -0.73,-0.66 -1.28,-0.68l0 -0.66zm13.34 1.29l1.6 2.65 1.21 -2.15c0.11,-0.24 0.17,-0.43 0.17,-0.56 0,-0.18 -0.08,-0.32 -0.24,-0.42 -0.16,-0.1 -0.37,-0.16 -0.64,-0.16l-0.25 0 0 -0.65 3.57 0 0 0.65c-0.66,0.05 -1.2,0.42 -1.62,1.12l-1.81 3.11 0 2.1c0,0.42 0,0.66 0.01,0.71 0.01,0.08 0.03,0.14 0.07,0.19 0.1,0.12 0.43,0.18 1,0.18l0.27 0 0 0.65 -4.88 0 0 -0.65 0.27 0c0.57,0 0.91,-0.06 1,-0.18 0.04,-0.05 0.06,-0.11 0.07,-0.19 0.01,-0.06 0.01,-0.29 0.01,-0.71l0 -1.95 -2.47 -3.95c-0.11,-0.18 -0.23,-0.29 -0.36,-0.35 -0.13,-0.06 -0.32,-0.08 -0.6,-0.08l0 -0.65 4.35 0 0 0.65 -0.19 0c-0.45,0 -0.68,0.09 -0.68,0.27 0,0.1 0.05,0.22 0.15,0.37z"/>
   </g>
   <g>
    <path class="fil2" d="M110.25 36.64l2.53 0 -0.01 0.17 0.01 0 -0.57 12.67 -0.01 0 -31.98 0 0 -2.58 0.72 0c2.23,0 3.53,-0.24 3.91,-0.72 0.16,-0.19 0.25,-0.45 0.29,-0.76 0.03,-0.22 0.05,-1.18 0.05,-2.86l0 -35.68c0,-1.62 -0.01,-2.55 -0.05,-2.77 -0.06,-0.35 -0.15,-0.63 -0.29,-0.81 -0.37,-0.49 -1.69,-0.72 -3.91,-0.72l-0.72 0 0 -2.58 18.9 0 0 2.58 -1.05 0c-2.26,0 -3.59,0.23 -3.96,0.72 -0.14,0.18 -0.23,0.46 -0.29,0.81 -0.04,0.22 -0.05,1.15 -0.05,2.77l0 8.59 18.05 0 0.28 12.25 -2.45 0c-0.75,-2.67 -1.66,-4.74 -2.73,-6.22 -1.7,-2.32 -4.35,-3.49 -7.96,-3.49l-1.32 0c-1.88,0 -3.08,0.35 -3.58,1.04 -0.12,0.17 -0.22,0.43 -0.29,0.77l0 10.78 0.62 0c1.85,0 3.34,-0.57 4.45,-1.72 1.11,-1.15 1.8,-2.8 2.05,-4.97l2.54 0 0 15.97 -2.54 0c-0.25,-2.17 -0.93,-3.82 -2.05,-4.97 -1.11,-1.15 -2.6,-1.72 -4.45,-1.72l-0.62 0 0 10.38c0,1.3 0.26,2.19 0.76,2.67 0.29,0.28 0.65,0.47 1.1,0.55 0.45,0.08 1.26,0.12 2.43,0.12l1 0c3.37,0 6.06,-1.19 8.07,-3.58 1.24,-1.53 2.27,-3.75 3.1,-6.68zm-43.88 -11.9c0,8.11 6.57,14.68 14.68,14.68 1.08,0 2.13,-0.12 3.15,-0.34l0 -9.84 -0.99 -0.99c-0.34,0.21 -0.72,0.37 -1.12,0.47l0 1.57 -2.01 0 0 -1.56c-0.4,-0.1 -0.78,-0.26 -1.12,-0.47l-1.11 1.11 -1.42 -1.42 1.11 -1.11c-0.21,-0.35 -0.37,-0.72 -0.47,-1.12l-1.56 0 0 -2.01 1.57 0c0.1,-0.4 0.26,-0.78 0.47,-1.12l-1.11 -1.11 1.42 -1.42 1.12 1.12c0.34,-0.2 0.72,-0.36 1.11,-0.46l0 -1.58 2.01 0 0 1.59c0.39,0.1 0.77,0.26 1.11,0.46l1 -1 0 -9.77c-1.01,-0.22 -2.07,-0.34 -3.15,-0.34 -8.11,0 -14.68,6.57 -14.68,14.68z"/>
    <path class="fil3" d="M81.05 40.67c-8.8,0 -15.93,-7.13 -15.93,-15.93 0,-8.8 7.13,-15.93 15.93,-15.93 1.08,0 2.13,0.11 3.15,0.31l0 -2.24c0,-0.75 0.06,-1.89 -0.04,-2.61 -0.01,-0.09 -0.05,-0.3 -0.08,-0.35 -0.41,-0.31 -2.6,-0.34 -3.14,-0.34l-1.71 0 0 -3.57 -2.59 0 0 7c-1.76,0.44 -3.42,1.13 -4.93,2.03l-4.94 -4.94 -6.29 6.29 4.92 4.92c-0.92,1.52 -1.62,3.18 -2.07,4.95l-6.94 0 0 8.9 6.92 0c0.44,1.78 1.14,3.45 2.06,4.98l-4.89 4.89 6.29 6.29 4.89 -4.89c1.53,0.92 3.2,1.62 4.98,2.06l0 6.92 2.59 0 0 -3.49 1.71 0c0.54,0 2.73,-0.04 3.16,-0.37 0.02,-0.03 0.05,-0.18 0.05,-0.23 0.09,-0.81 0.04,-1.93 0.04,-2.75l0 -2.2c-1.02,0.2 -2.07,0.31 -3.15,0.31z"/>
   </g>
  </g>
 </g>
</svg>
