<?xml version="1.0" encoding="UTF-8"?>
<!DOCTYPE svg PUBLIC "-//W3C//DTD SVG 1.1//EN" "http://www.w3.org/Graphics/SVG/1.1/DTD/svg11.dtd">
<!-- Creator: CorelDRAW 2021 (64-Bit) -->
<svg xmlns="http://www.w3.org/2000/svg" xml:space="preserve" width="65.419mm" height="65.4194mm" version="1.1" style="shape-rendering:geometricPrecision; text-rendering:geometricPrecision; image-rendering:optimizeQuality; fill-rule:evenodd; clip-rule:evenodd"
viewBox="0 0 1254.73 1254.73"
 xmlns:xlink="http://www.w3.org/1999/xlink"
 xmlns:xodm="http://www.corel.com/coreldraw/odm/2003">
 <defs>
  <style type="text/css">
   <![CDATA[
    .fil0 {fill:#FFBE1B}
    .fil1 {fill:black;fill-rule:nonzero}
    .fil3 {fill:black;fill-rule:nonzero}
    .fil2 {fill:#DA251C;fill-rule:nonzero}
    .fil4 {fill:url(#id0)}
   ]]>
  </style>
  <linearGradient id="id0" gradientUnits="userSpaceOnUse" x1="571.89" y1="584.39" x2="642.06" y2="497.91">
   <stop offset="0" style="stop-opacity:1; stop-color:#D1231B"/>
   <stop offset="0.490196" style="stop-opacity:1; stop-color:#FF0800"/>
   <stop offset="1" style="stop-opacity:1; stop-color:#D1231B"/>
  </linearGradient>
 </defs>
 <g id="Layer_x0020_1">
  <metadata id="CorelCorpID_0Corel-Layer"/>
  <rect class="fil0" width="1254.73" height="1254.73"/>
  <g id="_1857773582768">
   <g>
    <path class="fil1" d="M449.8 718.43l7.64 0 -1.73 38.77 -96.57 0 0 -7.78 2.16 0c6.73,0 10.67,-0.72 11.82,-2.16 0.48,-0.58 0.77,-1.35 0.87,-2.31 0.1,-0.67 0.14,-3.56 0.14,-8.65l0 -62.41c0,-4.9 -0.05,-7.69 -0.14,-8.36 -0.19,-1.06 -0.48,-1.87 -0.87,-2.45 -1.15,-1.44 -5.09,-2.16 -11.82,-2.16l-2.16 0 0 -7.78 57.08 0 0 7.78 -3.17 0c-6.82,0 -10.81,0.72 -11.96,2.16 -0.39,0.58 -0.67,1.39 -0.87,2.45 -0.1,0.67 -0.14,3.46 -0.14,8.36l0 65.43c0,3.94 0.77,6.63 2.31,8.07 0.87,0.87 1.97,1.42 3.31,1.66 1.35,0.24 3.8,0.36 7.35,0.36l3.03 0c10.18,0 18.3,-3.6 24.36,-10.81 3.75,-4.61 6.87,-11.34 9.37,-20.18zm31.42 8.94l32.72 -76.39 10.95 0 37.04 89.36c1.63,3.65 3.22,6.05 4.76,7.21 1.92,1.15 4.85,1.78 8.79,1.87l0 7.78 -50.59 0 0 -7.78 2.45 -0.14c4.52,0 7.18,-0.6 8,-1.8 0.82,-1.2 0.36,-3.72 -1.37,-7.57l-5.48 -14.12 -35.89 0 -2.31 5.48c-1.54,3.36 -2.31,6.1 -2.31,8.21 0,3.27 1.1,5.67 3.31,7.21 2.21,1.54 5.91,2.45 11.1,2.74l0 7.78 -41.65 0 0 -7.78c4.32,-0.48 8.02,-2.35 11.1,-5.62 3.07,-3.27 6.2,-8.74 9.37,-16.43zm43.67 -11.24l-13.98 -34.45 -14.56 34.45 28.54 0zm47.71 -62.98l95.41 0 2.16 39.06 -7.64 0c-1.83,-10.38 -4.66,-18.06 -8.5,-23.06 -4.51,-5.67 -9.7,-8.5 -15.56,-8.5 -2.12,0 -3.51,0.36 -4.18,1.08 -0.67,0.72 -1.01,2.33 -1.01,4.83l0 69.9c0,5 0.05,7.83 0.14,8.5 0.1,0.96 0.38,1.73 0.87,2.31 1.15,1.44 5.14,2.16 11.96,2.16l3.17 0 0 7.78 -58.23 0 0 -7.78 3.17 0c6.82,0 10.81,-0.72 11.96,-2.16 0.48,-0.58 0.77,-1.35 0.87,-2.31 0.1,-0.67 0.14,-3.51 0.14,-8.5l0 -69.9c0,-2.5 -0.34,-4.11 -1.01,-4.83 -0.67,-0.72 -2.07,-1.08 -4.18,-1.08 -6.63,0 -12.2,3.41 -16.72,10.23 -3.36,4.8 -5.81,11.91 -7.35,21.33l-7.64 0 2.16 -39.06zm102.04 0l96.71 0 0.87 37.47 -7.5 0c-2.31,-8.16 -5.09,-14.51 -8.36,-19.02 -5.19,-7.11 -13.31,-10.66 -24.36,-10.66l-4.04 0c-5.76,0 -9.42,1.06 -10.95,3.17 -0.96,1.34 -1.44,4.42 -1.44,9.22l0 26.09 2.45 0c5.67,0 10.21,-1.75 13.62,-5.26 3.41,-3.51 5.5,-8.58 6.27,-15.21l7.78 0 0 48.86 -7.78 0c-0.77,-6.63 -2.86,-11.7 -6.27,-15.2 -3.41,-3.51 -7.95,-5.26 -13.62,-5.26l-2.45 0 0 32c0,3.94 0.77,6.63 2.31,8.07 0.87,0.87 1.97,1.42 3.32,1.66 1.34,0.24 3.8,0.36 7.35,0.36l4.32 0c8.75,0 15.81,-2.47 21.19,-7.42 5.38,-4.95 9.56,-12.8 12.54,-23.56l7.64 0 -1.73 38.77 -97.87 0 0 -7.78 2.16 0c6.72,0 10.66,-0.72 11.82,-2.16 0.48,-0.58 0.77,-1.35 0.87,-2.31 0.1,-0.67 0.14,-3.51 0.14,-8.5l0 -62.55c0,-4.9 -0.05,-7.69 -0.14,-8.36 -0.19,-1.06 -0.48,-1.87 -0.87,-2.45 -1.15,-1.44 -5.09,-2.16 -11.82,-2.16l-2.16 0 0 -7.78zm147.73 16.14l22.92 58.23 20.47 -51.31c0.86,-2.11 1.3,-3.94 1.3,-5.48 0,-3.84 -1.68,-6.58 -5.05,-8.21 -1.92,-1.06 -4.9,-1.58 -8.93,-1.58l0 -7.78 42.52 0 0 7.78c-8.84,0.86 -15.47,6.96 -19.89,18.3l-33 80.14 -12.68 0 -35.02 -88.5c-1.54,-4.04 -3.26,-6.73 -5.19,-8.07 -1.63,-1.25 -4.61,-1.87 -8.94,-1.87l0 -7.78 52.18 0 0 7.78 -3.03 0c-5.96,0 -8.94,1.2 -8.94,3.6 0,0.87 0.43,2.45 1.3,4.76z"/>
    <path class="fil2" d="M359.14 771.34l25.73 0 0.23 9.97 -1.99 0c-0.61,-2.17 -1.36,-3.86 -2.22,-5.06 -1.38,-1.89 -3.54,-2.84 -6.48,-2.84l-1.07 0c-1.53,0 -2.5,0.28 -2.91,0.84 -0.26,0.36 -0.38,1.18 -0.38,2.46l0 6.94 0.65 0c1.51,0 2.72,-0.47 3.62,-1.4 0.91,-0.93 1.46,-2.28 1.67,-4.05l2.07 0 0 13 -2.07 0c-0.2,-1.76 -0.76,-3.11 -1.67,-4.05 -0.91,-0.93 -2.12,-1.4 -3.62,-1.4l-0.65 0 0 8.51c0,1.05 0.2,1.76 0.61,2.15 0.23,0.23 0.52,0.38 0.88,0.44 0.36,0.06 1.01,0.1 1.95,0.1l1.15 0c2.33,0 4.2,-0.66 5.64,-1.98 1.43,-1.32 2.54,-3.41 3.34,-6.27l2.03 0 -0.46 10.31 -26.03 0 0 -2.07 0.57 0c1.79,0 2.84,-0.19 3.15,-0.58 0.13,-0.15 0.21,-0.36 0.23,-0.61 0.02,-0.18 0.04,-0.93 0.04,-2.26l0 -16.64c0,-1.3 -0.01,-2.04 -0.04,-2.22 -0.05,-0.28 -0.13,-0.5 -0.23,-0.65 -0.31,-0.38 -1.35,-0.58 -3.15,-0.58l-0.57 0 0 -2.07zm29.18 0l9.66 0 14.8 17.33 0 -9.01c0,-1.64 -0.06,-2.81 -0.19,-3.53 -0.13,-0.72 -0.4,-1.28 -0.8,-1.69 -0.61,-0.67 -1.66,-1.01 -3.15,-1.04l0 -2.07 10.93 0 0 2.07c-1.53,0.05 -2.61,0.4 -3.22,1.04 -0.41,0.41 -0.68,0.96 -0.8,1.65 -0.13,0.72 -0.19,1.9 -0.19,3.57l0 19.63 -2.57 0 -17.83 -21.2 0 12.61c0,1.64 0.07,2.81 0.19,3.53 0.13,0.69 0.4,1.24 0.81,1.65 0.59,0.61 1.66,0.96 3.22,1.03l0 2.07 -10.93 0 0 -2.07c1.53,-0.08 2.58,-0.42 3.14,-1.03 0.41,-0.41 0.68,-0.96 0.81,-1.65 0.13,-0.72 0.19,-1.89 0.19,-3.53l0 -15.11c-0.97,-1.38 -2.33,-2.1 -4.07,-2.15l0 -2.11zm56.59 -0.42l1.69 0 0.35 11 -2.03 0c-0.64,-2.91 -1.75,-5.17 -3.34,-6.77 -1.58,-1.6 -3.52,-2.4 -5.79,-2.4 -1.13,0 -2.17,0.26 -3.13,0.77 -0.96,0.51 -1.72,1.21 -2.28,2.11 -1.46,2.35 -2.18,5.6 -2.18,9.74 0,3.66 0.52,6.63 1.57,8.93 0.49,1.05 1.18,1.86 2.09,2.43 0.91,0.58 1.95,0.86 3.12,0.86 1.71,0 3.09,-0.54 4.12,-1.63 1.03,-1.09 1.55,-2.52 1.55,-4.31l0 -0.54c0,-1.41 -0.16,-2.24 -0.5,-2.49 -0.36,-0.28 -1.36,-0.42 -2.99,-0.42l-0.42 0 0 -2.07 13.61 0 0 2.07c-1.84,0.05 -2.89,0.23 -3.14,0.54 -0.1,0.15 -0.18,0.37 -0.23,0.65 -0.02,0.18 -0.04,0.93 -0.04,2.26l0 7.9 -2.03 0 -1.88 -3.76c-1.05,1.05 -1.94,1.79 -2.68,2.22 -1.89,1.05 -4.04,1.57 -6.44,1.57 -3.94,0 -7.16,-1.29 -9.66,-3.87 -2.48,-2.58 -3.72,-5.96 -3.72,-10.12 0,-4.12 1.26,-7.51 3.79,-10.2 2.86,-3.09 6.53,-4.64 11.01,-4.64 1.38,0 2.6,0.15 3.66,0.46 1.06,0.31 2.28,0.84 3.66,1.61l2.26 -1.92zm10.47 22.58l0 -16.64c0,-1.3 -0.01,-2.04 -0.04,-2.22 -0.05,-0.28 -0.13,-0.5 -0.23,-0.65 -0.31,-0.38 -1.35,-0.58 -3.15,-0.58l-0.57 0 0 -2.07 14.91 0 0 2.07 -0.58 0c-1.82,0 -2.88,0.19 -3.18,0.58 -0.13,0.15 -0.21,0.36 -0.23,0.61 -0.02,0.18 -0.04,0.93 -0.04,2.26l0 16.64c0,1.33 0.01,2.08 0.04,2.26 0.03,0.26 0.1,0.46 0.23,0.61 0.3,0.39 1.37,0.58 3.18,0.58l0.58 0 0 2.07 -14.91 0 0 -2.07 0.57 0c1.79,0 2.84,-0.19 3.15,-0.58 0.13,-0.15 0.21,-0.36 0.23,-0.61 0.02,-0.18 0.04,-0.93 0.04,-2.26zm13.3 -22.16l9.66 0 14.8 17.33 0 -9.01c0,-1.64 -0.06,-2.81 -0.19,-3.53 -0.13,-0.72 -0.4,-1.28 -0.8,-1.69 -0.61,-0.67 -1.66,-1.01 -3.15,-1.04l0 -2.07 10.93 0 0 2.07c-1.53,0.05 -2.61,0.4 -3.22,1.04 -0.41,0.41 -0.68,0.96 -0.8,1.65 -0.13,0.72 -0.19,1.9 -0.19,3.57l0 19.63 -2.57 0 -17.83 -21.2 0 12.61c0,1.64 0.07,2.81 0.19,3.53 0.13,0.69 0.4,1.24 0.81,1.65 0.59,0.61 1.66,0.96 3.22,1.03l0 2.07 -10.93 0 0 -2.07c1.53,-0.08 2.58,-0.42 3.14,-1.03 0.41,-0.41 0.68,-0.96 0.81,-1.65 0.13,-0.72 0.19,-1.89 0.19,-3.53l0 -15.11c-0.97,-1.38 -2.33,-2.1 -4.06,-2.15l0 -2.11zm31.86 0l25.73 0 0.23 9.97 -1.99 0c-0.61,-2.17 -1.36,-3.86 -2.22,-5.06 -1.38,-1.89 -3.54,-2.84 -6.48,-2.84l-1.07 0c-1.53,0 -2.5,0.28 -2.91,0.84 -0.26,0.36 -0.38,1.18 -0.38,2.46l0 6.94 0.65 0c1.51,0 2.72,-0.47 3.62,-1.4 0.91,-0.93 1.46,-2.28 1.67,-4.05l2.07 0 0 13 -2.07 0c-0.2,-1.76 -0.76,-3.11 -1.67,-4.05 -0.91,-0.93 -2.12,-1.4 -3.62,-1.4l-0.65 0 0 8.51c0,1.05 0.2,1.76 0.61,2.15 0.23,0.23 0.52,0.38 0.88,0.44 0.36,0.06 1.01,0.1 1.96,0.1l1.15 0c2.33,0 4.2,-0.66 5.64,-1.98 1.43,-1.32 2.54,-3.41 3.34,-6.27l2.03 0 -0.46 10.31 -26.03 0 0 -2.07 0.57 0c1.79,0 2.84,-0.19 3.15,-0.58 0.13,-0.15 0.21,-0.36 0.23,-0.61 0.02,-0.18 0.04,-0.93 0.04,-2.26l0 -16.64c0,-1.3 -0.01,-2.04 -0.04,-2.22 -0.05,-0.28 -0.13,-0.5 -0.23,-0.65 -0.31,-0.38 -1.35,-0.58 -3.15,-0.58l-0.57 0 0 -2.07zm29.1 0l25.73 0 0.23 9.97 -1.99 0c-0.61,-2.17 -1.35,-3.86 -2.22,-5.06 -1.38,-1.89 -3.54,-2.84 -6.48,-2.84l-1.07 0c-1.53,0 -2.5,0.28 -2.92,0.84 -0.26,0.36 -0.38,1.18 -0.38,2.46l0 6.94 0.65 0c1.51,0 2.72,-0.47 3.62,-1.4 0.91,-0.93 1.46,-2.28 1.67,-4.05l2.07 0 0 13 -2.07 0c-0.21,-1.76 -0.76,-3.11 -1.67,-4.05 -0.91,-0.93 -2.11,-1.4 -3.62,-1.4l-0.65 0 0 8.51c0,1.05 0.21,1.76 0.61,2.15 0.23,0.23 0.52,0.38 0.88,0.44 0.36,0.06 1.01,0.1 1.96,0.1l1.15 0c2.33,0 4.2,-0.66 5.64,-1.98 1.43,-1.32 2.54,-3.41 3.34,-6.27l2.03 0 -0.46 10.31 -26.03 0 0 -2.07 0.58 0c1.79,0 2.84,-0.19 3.14,-0.58 0.13,-0.15 0.21,-0.36 0.23,-0.61 0.03,-0.18 0.04,-0.93 0.04,-2.26l0 -16.64c0,-1.3 -0.01,-2.04 -0.04,-2.22 -0.05,-0.28 -0.13,-0.5 -0.23,-0.65 -0.31,-0.38 -1.35,-0.58 -3.14,-0.58l-0.58 0 0 -2.07zm42.29 14.38l-2.15 0 0 7.74c0,1.33 0.01,2.08 0.04,2.26 0.02,0.23 0.1,0.45 0.23,0.65 0.36,0.36 1.42,0.54 3.18,0.54l1 0 0 2.07 -15.34 0 0 -2.07 0.58 0c1.74,0 2.78,-0.18 3.14,-0.54 0.13,-0.2 0.2,-0.42 0.23,-0.65 0.02,-0.18 0.04,-0.93 0.04,-2.26l0 -16.6c0,-1.33 -0.01,-2.08 -0.04,-2.26 -0.03,-0.23 -0.1,-0.45 -0.23,-0.65 -0.36,-0.36 -1.41,-0.54 -3.14,-0.54l-0.58 0 0 -2.07 16.37 0c3.58,0 6.1,0.46 7.55,1.38 2.07,1.33 3.11,3.18 3.11,5.56 0,2.58 -1.23,4.51 -3.68,5.79 -0.84,0.41 -2.17,0.78 -3.99,1.11 1.66,0.56 2.9,1.32 3.72,2.26 0.82,0.95 1.37,2.29 1.65,4.03l0.27 1.46c0.1,0.61 0.15,0.97 0.15,1.07 0.15,1.02 0.3,1.62 0.46,1.8 0.26,0.38 0.63,0.58 1.11,0.58 1.13,0 1.71,-1.21 1.76,-3.64l2.07 0 0 0.46c0,2.04 -0.57,3.62 -1.71,4.73 -1.14,1.11 -2.74,1.67 -4.81,1.67 -3.43,0 -5.47,-1.52 -6.14,-4.56 -0.15,-0.92 -0.33,-2.52 -0.54,-4.79 -0.08,-1.05 -0.17,-1.78 -0.29,-2.19 -0.11,-0.41 -0.32,-0.8 -0.63,-1.19 -0.69,-0.77 -1.83,-1.15 -3.41,-1.15zm-2.15 -9.85l0 7.74 2.11 0c2.53,0 4.28,-0.37 5.25,-1.11 0.97,-0.74 1.46,-2.08 1.46,-4.03 0,-1.74 -0.41,-3.02 -1.25,-3.83 -0.83,-0.82 -2.14,-1.23 -3.93,-1.23l-0.92 0c-1.2,0 -1.97,0.14 -2.3,0.42 -0.28,0.28 -0.42,0.96 -0.42,2.03zm25.23 17.64l0 -16.64c0,-1.3 -0.01,-2.04 -0.04,-2.22 -0.05,-0.28 -0.13,-0.5 -0.23,-0.65 -0.31,-0.38 -1.36,-0.58 -3.15,-0.58l-0.57 0 0 -2.07 14.91 0 0 2.07 -0.58 0c-1.81,0 -2.88,0.19 -3.18,0.58 -0.13,0.15 -0.21,0.36 -0.23,0.61 -0.02,0.18 -0.04,0.93 -0.04,2.26l0 16.64c0,1.33 0.01,2.08 0.04,2.26 0.03,0.26 0.1,0.46 0.23,0.61 0.31,0.39 1.37,0.58 3.18,0.58l0.58 0 0 2.07 -14.91 0 0 -2.07 0.57 0c1.79,0 2.84,-0.19 3.15,-0.58 0.13,-0.15 0.2,-0.36 0.23,-0.61 0.02,-0.18 0.04,-0.93 0.04,-2.26zm13.31 -22.16l9.66 0 14.8 17.33 0 -9.01c0,-1.64 -0.06,-2.81 -0.19,-3.53 -0.13,-0.72 -0.4,-1.28 -0.81,-1.69 -0.61,-0.67 -1.66,-1.01 -3.14,-1.04l0 -2.07 10.93 0 0 2.07c-1.53,0.05 -2.61,0.4 -3.22,1.04 -0.41,0.41 -0.68,0.96 -0.81,1.65 -0.13,0.72 -0.19,1.9 -0.19,3.57l0 19.63 -2.57 0 -17.83 -21.2 0 12.61c0,1.64 0.07,2.81 0.19,3.53 0.13,0.69 0.4,1.24 0.81,1.65 0.59,0.61 1.66,0.96 3.22,1.03l0 2.07 -10.93 0 0 -2.07c1.53,-0.08 2.58,-0.42 3.14,-1.03 0.41,-0.41 0.68,-0.96 0.81,-1.65 0.13,-0.72 0.19,-1.89 0.19,-3.53l0 -15.11c-0.97,-1.38 -2.33,-2.1 -4.06,-2.15l0 -2.11zm56.59 -0.42l1.69 0 0.35 11 -2.03 0c-0.64,-2.91 -1.75,-5.17 -3.34,-6.77 -1.59,-1.6 -3.52,-2.4 -5.79,-2.4 -1.12,0 -2.17,0.26 -3.12,0.77 -0.96,0.51 -1.72,1.21 -2.28,2.11 -1.46,2.35 -2.19,5.6 -2.19,9.74 0,3.66 0.52,6.63 1.57,8.93 0.49,1.05 1.18,1.86 2.09,2.43 0.91,0.58 1.95,0.86 3.12,0.86 1.71,0 3.09,-0.54 4.12,-1.63 1.03,-1.09 1.55,-2.52 1.55,-4.31l0 -0.54c0,-1.41 -0.17,-2.24 -0.5,-2.49 -0.36,-0.28 -1.35,-0.42 -2.99,-0.42l-0.42 0 0 -2.07 13.61 0 0 2.07c-1.84,0.05 -2.89,0.23 -3.15,0.54 -0.1,0.15 -0.18,0.37 -0.23,0.65 -0.03,0.18 -0.04,0.93 -0.04,2.26l0 7.9 -2.03 0 -1.88 -3.76c-1.05,1.05 -1.94,1.79 -2.68,2.22 -1.89,1.05 -4.04,1.57 -6.44,1.57 -3.94,0 -7.16,-1.29 -9.66,-3.87 -2.48,-2.58 -3.72,-5.96 -3.72,-10.12 0,-4.12 1.27,-7.51 3.8,-10.2 2.86,-3.09 6.53,-4.64 11,-4.64 1.38,0 2.6,0.15 3.66,0.46 1.06,0.31 2.28,0.84 3.66,1.61l2.26 -1.92zm42.17 0l1.65 0 0.38 10.97 -2.03 0.23c-0.87,-3.2 -2.02,-5.55 -3.45,-7.07 -1.43,-1.52 -3.21,-2.28 -5.33,-2.28 -2.35,0 -4.14,1.02 -5.35,3.07 -1.21,2.04 -1.82,5.05 -1.82,9.01 0,4.22 0.63,7.33 1.88,9.35 1.25,2.02 3.18,3.03 5.79,3.03 2.2,0 4.04,-0.73 5.52,-2.18 1.48,-1.46 2.48,-3.52 2.99,-6.17l2.38 0.58c-0.74,3.45 -2.11,6.01 -4.1,7.67 -1.99,1.66 -4.68,2.49 -8.05,2.49 -4.35,0 -7.81,-1.41 -10.39,-4.22 -2.43,-2.71 -3.64,-5.99 -3.64,-9.85 0,-4.32 1.36,-7.85 4.06,-10.58 2.71,-2.79 6.19,-4.18 10.43,-4.18 1.38,0 2.59,0.15 3.62,0.44 1.03,0.29 2.17,0.82 3.39,1.59l2.07 -1.88zm20.4 -0.15c3.73,0 6.84,1.09 9.32,3.26 1.58,1.36 2.84,3.06 3.76,5.12 0.92,2.06 1.38,4.2 1.38,6.42 0,4.6 -1.71,8.28 -5.14,11.04 -2.53,1.99 -5.7,2.99 -9.51,2.99 -4.19,0 -7.62,-1.32 -10.28,-3.95 -2.68,-2.66 -4.03,-6.01 -4.03,-10.05 0,-2.25 0.45,-4.4 1.36,-6.44 0.91,-2.04 2.17,-3.76 3.78,-5.14 2.48,-2.17 5.6,-3.26 9.36,-3.26zm0.04 1.99c-2.2,0 -3.83,0.91 -4.91,2.72 -1.3,2.2 -1.95,5.33 -1.95,9.39 0,4.06 0.65,7.32 1.95,9.78 1.05,1.97 2.69,2.95 4.91,2.95 2.2,0 3.87,-1.02 5.02,-3.07 1.15,-2.04 1.72,-5.02 1.72,-8.93 0,-4.22 -0.65,-7.51 -1.95,-9.89 -1.13,-1.97 -2.72,-2.95 -4.79,-2.95zm15.95 -1.42l12.34 0 5.94 16.49 5.6 -16.49 12.5 0 0 2.07 -0.42 0c-1.81,0 -2.88,0.19 -3.18,0.58 -0.1,0.15 -0.18,0.37 -0.23,0.65 -0.03,0.18 -0.04,0.92 -0.04,2.22l0 16.64c0,1.33 0.01,2.08 0.04,2.26 0.02,0.26 0.1,0.46 0.23,0.61 0.31,0.39 1.37,0.58 3.18,0.58l0.42 0 0 2.07 -14.65 0 0 -2.07 0.42 0c1.81,0 2.88,-0.19 3.18,-0.58 0.13,-0.15 0.21,-0.36 0.23,-0.61 0.02,-0.18 0.04,-0.93 0.04,-2.26l0 -19.13 -8.47 24.65 -1.99 0 -8.7 -24.27 0 15.95c0,1.66 0.06,2.85 0.19,3.57 0.13,0.69 0.4,1.24 0.81,1.65 0.61,0.64 1.69,0.98 3.22,1.04l0 2.07 -10.93 0 0 -2.07c1.48,-0.03 2.53,-0.37 3.14,-1.04 0.41,-0.41 0.68,-0.96 0.8,-1.65 0.13,-0.77 0.19,-1.95 0.19,-3.57l0 -13.84c0,-1.3 -0.01,-2.04 -0.04,-2.22 -0.05,-0.28 -0.13,-0.5 -0.23,-0.65 -0.3,-0.38 -1.37,-0.58 -3.18,-0.58l-0.42 0 0 -2.07zm53.1 15.8l-4.29 0 0 6.36c0,1.33 0.01,2.08 0.04,2.26 0.03,0.23 0.1,0.45 0.23,0.65 0.36,0.36 1.42,0.54 3.18,0.54l0.84 0 0 2.07 -15.18 0 0 -2.07 0.58 0c1.74,0 2.78,-0.18 3.14,-0.54 0.13,-0.2 0.21,-0.42 0.23,-0.65 0.02,-0.18 0.04,-0.93 0.04,-2.26l0 -16.6c0,-1.33 -0.01,-2.08 -0.04,-2.26 -0.02,-0.23 -0.1,-0.45 -0.23,-0.65 -0.36,-0.36 -1.41,-0.54 -3.14,-0.54l-0.58 0 0 -2.11 15.22 0c3.45,0 6.17,0.45 8.17,1.34 1.23,0.56 2.18,1.41 2.86,2.53 0.68,1.12 1.01,2.4 1.01,3.83 0,5.39 -4.03,8.09 -12.08,8.09zm-4.29 -11.39l0 9.28 2.22 0c2.48,0 4.22,-0.45 5.23,-1.36 1.01,-0.91 1.52,-2.46 1.52,-4.66 0,-1.92 -0.44,-3.32 -1.3,-4.22 -0.87,-0.89 -2.21,-1.34 -4.03,-1.34l-1.53 0c-0.87,0 -1.44,0.15 -1.71,0.44 -0.27,0.3 -0.4,0.91 -0.4,1.86zm18.83 15.34l8.7 -20.32 2.91 0 9.85 23.77c0.43,0.97 0.86,1.61 1.27,1.92 0.51,0.31 1.29,0.47 2.34,0.5l0 2.07 -13.46 0 0 -2.07 0.65 -0.04c1.2,0 1.91,-0.16 2.13,-0.48 0.22,-0.32 0.1,-0.99 -0.36,-2.01l-1.46 -3.76 -9.55 0 -0.61 1.46c-0.41,0.89 -0.61,1.62 -0.61,2.18 0,0.87 0.29,1.51 0.88,1.92 0.59,0.41 1.57,0.65 2.95,0.73l0 2.07 -11.08 0 0 -2.07c1.15,-0.13 2.13,-0.63 2.95,-1.5 0.82,-0.87 1.65,-2.33 2.49,-4.37zm11.62 -2.99l-3.72 -9.16 -3.87 9.16 7.59 0zm13.42 -16.75l9.66 0 14.8 17.33 0 -9.01c0,-1.64 -0.06,-2.81 -0.19,-3.53 -0.13,-0.72 -0.4,-1.28 -0.81,-1.69 -0.61,-0.67 -1.66,-1.01 -3.14,-1.04l0 -2.07 10.93 0 0 2.07c-1.53,0.05 -2.61,0.4 -3.22,1.04 -0.41,0.41 -0.68,0.96 -0.81,1.65 -0.13,0.72 -0.19,1.9 -0.19,3.57l0 19.63 -2.57 0 -17.83 -21.2 0 12.61c0,1.64 0.07,2.81 0.19,3.53 0.13,0.69 0.4,1.24 0.81,1.65 0.59,0.61 1.66,0.96 3.22,1.03l0 2.07 -10.93 0 0 -2.07c1.53,-0.08 2.58,-0.42 3.14,-1.03 0.41,-0.41 0.68,-0.96 0.81,-1.65 0.13,-0.72 0.19,-1.89 0.19,-3.53l0 -15.11c-0.97,-1.38 -2.33,-2.1 -4.06,-2.15l0 -2.11zm42.29 4.1l5.06 8.4 3.83 -6.83c0.36,-0.77 0.54,-1.35 0.54,-1.76 0,-0.56 -0.26,-1.01 -0.77,-1.34 -0.51,-0.33 -1.19,-0.5 -2.03,-0.5l-0.81 0 0 -2.07 11.31 0 0 2.07c-2.1,0.15 -3.81,1.34 -5.14,3.57l-5.75 9.85 0 6.67c0,1.33 0.02,2.08 0.04,2.26 0.02,0.26 0.1,0.46 0.23,0.61 0.31,0.39 1.37,0.58 3.18,0.58l0.84 0 0 2.07 -15.49 0 0 -2.07 0.84 0c1.82,0 2.88,-0.19 3.18,-0.58 0.13,-0.15 0.2,-0.36 0.23,-0.61 0.03,-0.18 0.04,-0.93 0.04,-2.26l0 -6.17 -7.82 -12.54c-0.36,-0.56 -0.74,-0.93 -1.13,-1.11 -0.4,-0.18 -1.03,-0.27 -1.9,-0.27l0 -2.07 13.8 0 0 2.07 -0.61 0c-1.43,0 -2.15,0.28 -2.15,0.84 0,0.31 0.16,0.7 0.46,1.19z"/>
   </g>
   <g>
    <path class="fil3" d="M708.75 571.32l8.02 0 -0.02 0.53 0.02 0 -1.79 40.18 -0.02 0 -101.41 0 0 -8.17 2.27 0c7.06,0 11.2,-0.76 12.41,-2.27 0.5,-0.6 0.79,-1.42 0.91,-2.42 0.08,-0.71 0.15,-3.73 0.15,-9.08l0 -113.16c0,-5.15 -0.04,-8.07 -0.15,-8.78 -0.19,-1.11 -0.47,-1.99 -0.91,-2.57 -1.18,-1.54 -5.35,-2.27 -12.41,-2.27l-2.27 0 0 -8.17 59.94 0 0 8.17 -3.33 0c-7.16,0 -11.39,0.73 -12.56,2.27 -0.44,0.58 -0.72,1.46 -0.91,2.57 -0.12,0.7 -0.15,3.63 -0.15,8.78l0 27.25 57.25 0 0.9 38.84 -7.77 0c-2.39,-8.47 -5.28,-15.04 -8.67,-19.72 -5.38,-7.37 -13.79,-11.05 -25.24,-11.05l-4.18 0c-5.97,0 -9.76,1.1 -11.35,3.29 -0.39,0.54 -0.7,1.35 -0.93,2.43l0 34.17 1.98 0c5.87,0 10.58,-1.82 14.11,-5.45 3.53,-3.63 5.7,-8.89 6.5,-15.76l8.07 0 0 50.64 -8.07 0c-0.8,-6.87 -2.96,-12.13 -6.5,-15.76 -3.53,-3.63 -8.24,-5.45 -14.11,-5.45l-1.98 0 0 32.92c0,4.14 0.82,6.94 2.42,8.48 0.93,0.89 2.07,1.49 3.48,1.74 1.41,0.25 3.99,0.38 7.72,0.38l3.18 0c10.69,0 19.22,-3.78 25.58,-11.35 3.94,-4.84 7.21,-11.9 9.84,-21.19zm-139.13 -37.74c0,25.71 20.84,46.55 46.55,46.55 3.43,0 6.77,-0.37 9.99,-1.07l0 -31.22 -3.13 -3.13c-1.09,0.66 -2.28,1.16 -3.55,1.48l0 4.98 -6.38 0 0 -4.96c-1.27,-0.32 -2.47,-0.82 -3.57,-1.47l-3.51 3.5 -4.51 -4.51 3.51 -3.51c-0.66,-1.1 -1.16,-2.29 -1.47,-3.57l-4.96 0 0 -6.38 4.97 0c0.32,-1.27 0.82,-2.46 1.48,-3.55l-3.53 -3.53 4.51 -4.51 3.54 3.54c1.09,-0.65 2.27,-1.14 3.53,-1.45l0 -5.02 6.38 0 0 5.03c1.25,0.32 2.43,0.81 3.51,1.46l3.16 -3.16 0 -30.98c-3.22,-0.7 -6.56,-1.07 -9.99,-1.07 -25.71,0 -46.55,20.84 -46.55,46.54z"/>
    <path class="fil4" d="M616.16 584.11c-27.91,0 -50.53,-22.62 -50.53,-50.53 0,-27.91 22.62,-50.53 50.53,-50.53 3.42,0 6.76,0.34 9.99,0.99l0 -7.1c0,-2.38 0.18,-5.98 -0.11,-8.28 -0.05,-0.27 -0.17,-0.94 -0.25,-1.11 -1.31,-0.97 -8.24,-1.09 -9.96,-1.09l-5.42 0 0 -11.32 -8.23 0 0 22.19c-5.57,1.38 -10.83,3.57 -15.64,6.44l-15.66 -15.66 -19.95 19.95 15.6 15.6c-2.91,4.82 -5.14,10.1 -6.56,15.7l-22.01 0 0 28.21 21.95 0c1.4,5.63 3.62,10.94 6.52,15.79l-15.51 15.51 19.95 19.95 15.51 -15.51c4.85,2.91 10.16,5.13 15.79,6.52l0 21.96 8.23 0 0 -11.07 5.42 0c1.73,0 8.67,-0.12 10.03,-1.17 0.07,-0.11 0.15,-0.58 0.17,-0.74 0.28,-2.57 0.13,-6.1 0.13,-8.72l0 -6.96c-3.23,0.65 -6.57,0.99 -9.99,0.99z"/>
   </g>
  </g>
 </g>
</svg>
