<?xml version="1.0" encoding="UTF-8"?>
<!DOCTYPE svg PUBLIC "-//W3C//DTD SVG 1.1//EN" "http://www.w3.org/Graphics/SVG/1.1/DTD/svg11.dtd">
<!-- Creator: CorelDRAW 2021 (64-Bit) -->
<svg xmlns="http://www.w3.org/2000/svg" xml:space="preserve" width="65.419mm" height="65.4194mm" version="1.1" style="shape-rendering:geometricPrecision; text-rendering:geometricPrecision; image-rendering:optimizeQuality; fill-rule:evenodd; clip-rule:evenodd"
viewBox="0 0 653.06 653.06"
 xmlns:xlink="http://www.w3.org/1999/xlink"
 xmlns:xodm="http://www.corel.com/coreldraw/odm/2003">
 <defs>
  <style type="text/css">
   <![CDATA[
    .fil0 {fill:#FFBE1B}
    .fil1 {fill:black;fill-rule:nonzero}
    .fil3 {fill:black;fill-rule:nonzero}
    .fil2 {fill:#DA251C;fill-rule:nonzero}
    .fil4 {fill:url(#id0)}
   ]]>
  </style>
  <linearGradient id="id0" gradientUnits="userSpaceOnUse" x1="164.93" y1="354.86" x2="204.05" y2="306.64">
   <stop offset="0" style="stop-opacity:1; stop-color:#D1231B"/>
   <stop offset="0.490196" style="stop-opacity:1; stop-color:#FF0800"/>
   <stop offset="1" style="stop-opacity:1; stop-color:#D1231B"/>
  </linearGradient>
 </defs>
 <g id="Layer_x0020_1">
  <metadata id="CorelCorpID_0Corel-Layer"/>
  <rect class="fil0" width="653.06" height="653.06"/>
  <g id="_1869388800384">
   <path class="fil1" d="M307.3 323.46l3.42 0 -0.77 17.37 -43.27 0 0 -3.49 0.97 0c3.01,0 4.78,-0.32 5.3,-0.97 0.22,-0.26 0.34,-0.6 0.39,-1.03 0.04,-0.3 0.06,-1.59 0.06,-3.88l0 -27.96c0,-2.2 -0.02,-3.44 -0.06,-3.75 -0.09,-0.47 -0.21,-0.84 -0.39,-1.1 -0.52,-0.65 -2.28,-0.97 -5.3,-0.97l-0.97 0 0 -3.49 25.57 0 0 3.49 -1.42 0c-3.06,0 -4.84,0.32 -5.36,0.97 -0.17,0.26 -0.3,0.62 -0.39,1.1 -0.04,0.3 -0.06,1.55 -0.06,3.75l0 29.32c0,1.76 0.34,2.97 1.03,3.62 0.39,0.39 0.88,0.63 1.49,0.74 0.6,0.11 1.7,0.16 3.29,0.16l1.36 0c4.56,0 8.2,-1.61 10.91,-4.84 1.68,-2.07 3.08,-5.08 4.2,-9.04zm14.08 4l14.66 -34.23 4.91 0 16.6 40.04c0.73,1.64 1.44,2.71 2.13,3.23 0.86,0.52 2.18,0.8 3.94,0.84l0 3.49 -22.67 0 0 -3.49 1.1 -0.06c2.02,0 3.22,-0.27 3.58,-0.81 0.37,-0.54 0.16,-1.67 -0.61,-3.39l-2.45 -6.33 -16.08 0 -1.03 2.45c-0.69,1.51 -1.03,2.73 -1.03,3.68 0,1.46 0.5,2.54 1.49,3.23 0.99,0.69 2.65,1.1 4.97,1.23l0 3.49 -18.66 0 0 -3.49c1.94,-0.22 3.59,-1.06 4.97,-2.52 1.38,-1.46 2.78,-3.92 4.2,-7.36zm19.57 -5.04l-6.26 -15.44 -6.52 15.44 12.79 0zm21.38 -28.22l42.75 0 0.97 17.5 -3.42 0c-0.82,-4.65 -2.09,-8.1 -3.81,-10.33 -2.02,-2.54 -4.35,-3.81 -6.97,-3.81 -0.95,0 -1.57,0.16 -1.87,0.48 -0.3,0.32 -0.45,1.04 -0.45,2.16l0 31.32c0,2.24 0.02,3.51 0.06,3.81 0.04,0.43 0.17,0.77 0.39,1.03 0.52,0.64 2.3,0.97 5.36,0.97l1.42 0 0 3.49 -26.09 0 0 -3.49 1.42 0c3.06,0 4.84,-0.32 5.36,-0.97 0.22,-0.26 0.34,-0.6 0.39,-1.03 0.04,-0.3 0.06,-1.57 0.06,-3.81l0 -31.32c0,-1.12 -0.15,-1.84 -0.45,-2.16 -0.3,-0.32 -0.93,-0.48 -1.87,-0.48 -2.97,0 -5.47,1.53 -7.49,4.59 -1.51,2.15 -2.61,5.34 -3.29,9.56l-3.42 0 0.97 -17.5zm45.72 0l43.33 0 0.39 16.79 -3.36 0c-1.03,-3.66 -2.28,-6.5 -3.75,-8.52 -2.32,-3.19 -5.96,-4.78 -10.91,-4.78l-1.81 0c-2.58,0 -4.22,0.47 -4.91,1.42 -0.43,0.6 -0.65,1.98 -0.65,4.13l0 11.69 1.1 0c2.54,0 4.57,-0.79 6.1,-2.36 1.53,-1.57 2.47,-3.84 2.81,-6.81l3.49 0 0 21.89 -3.49 0c-0.34,-2.97 -1.28,-5.24 -2.81,-6.81 -1.53,-1.57 -3.56,-2.36 -6.1,-2.36l-1.1 0 0 14.34c0,1.76 0.34,2.97 1.03,3.62 0.39,0.39 0.88,0.63 1.49,0.74 0.6,0.11 1.7,0.16 3.29,0.16l1.94 0c3.92,0 7.08,-1.11 9.49,-3.33 2.41,-2.22 4.28,-5.74 5.62,-10.56l3.42 0 -0.77 17.37 -43.85 0 0 -3.49 0.97 0c3.01,0 4.78,-0.32 5.3,-0.97 0.22,-0.26 0.34,-0.6 0.39,-1.03 0.04,-0.3 0.06,-1.57 0.06,-3.81l0 -28.03c0,-2.2 -0.02,-3.44 -0.06,-3.75 -0.09,-0.47 -0.21,-0.84 -0.39,-1.1 -0.52,-0.65 -2.28,-0.97 -5.3,-0.97l-0.97 0 0 -3.49zm66.2 7.23l10.27 26.09 9.17 -22.99c0.39,-0.95 0.58,-1.77 0.58,-2.45 0,-1.72 -0.75,-2.95 -2.26,-3.68 -0.86,-0.47 -2.2,-0.71 -4,-0.71l0 -3.49 19.05 0 0 3.49c-3.96,0.39 -6.93,3.12 -8.91,8.2l-14.79 35.91 -5.68 0 -15.69 -39.65c-0.69,-1.81 -1.46,-3.01 -2.32,-3.62 -0.73,-0.56 -2.07,-0.84 -4,-0.84l0 -3.49 23.38 0 0 3.49 -1.36 0c-2.67,0 -4,0.54 -4,1.62 0,0.39 0.19,1.1 0.58,2.13z"/>
   <path class="fil2" d="M266.67 347.17l11.53 0 0.1 4.47 -0.89 0c-0.28,-0.97 -0.61,-1.73 -1,-2.27 -0.62,-0.85 -1.59,-1.27 -2.9,-1.27l-0.48 0c-0.69,0 -1.12,0.13 -1.31,0.38 -0.11,0.16 -0.17,0.53 -0.17,1.1l0 3.11 0.29 0c0.68,0 1.22,-0.21 1.62,-0.63 0.41,-0.42 0.66,-1.02 0.75,-1.81l0.93 0 0 5.82 -0.93 0c-0.09,-0.79 -0.34,-1.39 -0.75,-1.81 -0.41,-0.42 -0.95,-0.63 -1.62,-0.63l-0.29 0 0 3.81c0,0.47 0.09,0.79 0.28,0.96 0.1,0.1 0.23,0.17 0.39,0.2 0.16,0.03 0.45,0.04 0.88,0.04l0.52 0c1.04,0 1.88,-0.29 2.53,-0.88 0.64,-0.59 1.14,-1.53 1.5,-2.81l0.91 0 -0.21 4.62 -11.66 0 0 -0.93 0.26 0c0.8,0 1.27,-0.09 1.41,-0.26 0.06,-0.07 0.09,-0.16 0.1,-0.28 0.01,-0.08 0.02,-0.42 0.02,-1.01l0 -7.46c0,-0.58 -0,-0.92 -0.02,-1 -0.02,-0.13 -0.06,-0.22 -0.1,-0.29 -0.14,-0.17 -0.61,-0.26 -1.41,-0.26l-0.26 0 0 -0.93zm13.07 0l4.33 0 6.63 7.77 0 -4.04c0,-0.73 -0.03,-1.26 -0.09,-1.58 -0.06,-0.32 -0.18,-0.57 -0.36,-0.76 -0.28,-0.3 -0.74,-0.45 -1.41,-0.46l0 -0.93 4.9 0 0 0.93c-0.69,0.02 -1.17,0.18 -1.44,0.46 -0.18,0.18 -0.3,0.43 -0.36,0.74 -0.06,0.32 -0.09,0.85 -0.09,1.6l0 8.8 -1.15 0 -7.99 -9.5 0 5.65c0,0.73 0.03,1.26 0.09,1.58 0.06,0.31 0.18,0.56 0.36,0.74 0.26,0.28 0.74,0.43 1.44,0.46l0 0.93 -4.9 0 0 -0.93c0.69,-0.03 1.16,-0.19 1.41,-0.46 0.18,-0.18 0.3,-0.43 0.36,-0.74 0.06,-0.32 0.09,-0.85 0.09,-1.58l0 -6.77c-0.44,-0.62 -1.04,-0.94 -1.82,-0.96l0 -0.95zm25.36 -0.19l0.76 0 0.15 4.93 -0.91 0c-0.29,-1.31 -0.78,-2.32 -1.49,-3.03 -0.71,-0.72 -1.58,-1.07 -2.59,-1.07 -0.5,0 -0.97,0.11 -1.4,0.34 -0.43,0.23 -0.77,0.54 -1.02,0.95 -0.65,1.05 -0.98,2.51 -0.98,4.36 0,1.64 0.23,2.97 0.7,4 0.22,0.47 0.53,0.83 0.94,1.09 0.41,0.26 0.87,0.39 1.4,0.39 0.77,0 1.38,-0.24 1.85,-0.73 0.46,-0.49 0.7,-1.13 0.7,-1.93l0 -0.24c0,-0.63 -0.07,-1 -0.22,-1.12 -0.16,-0.13 -0.61,-0.19 -1.34,-0.19l-0.19 0 0 -0.93 6.1 0 0 0.93c-0.82,0.02 -1.29,0.1 -1.41,0.24 -0.05,0.07 -0.08,0.17 -0.1,0.29 -0.01,0.08 -0.02,0.42 -0.02,1.01l0 3.54 -0.91 0 -0.84 -1.68c-0.47,0.47 -0.87,0.8 -1.2,1 -0.85,0.47 -1.81,0.7 -2.89,0.7 -1.76,0 -3.21,-0.58 -4.33,-1.74 -1.11,-1.16 -1.67,-2.67 -1.67,-4.54 0,-1.84 0.57,-3.37 1.7,-4.57 1.28,-1.39 2.93,-2.08 4.93,-2.08 0.62,0 1.16,0.07 1.64,0.21 0.48,0.14 1.02,0.38 1.64,0.72l1.01 -0.86zm4.69 10.12l0 -7.46c0,-0.58 -0,-0.92 -0.02,-1 -0.02,-0.13 -0.06,-0.22 -0.1,-0.29 -0.14,-0.17 -0.61,-0.26 -1.41,-0.26l-0.26 0 0 -0.93 6.68 0 0 0.93 -0.26 0c-0.81,0 -1.29,0.09 -1.43,0.26 -0.06,0.07 -0.09,0.16 -0.1,0.28 -0.01,0.08 -0.02,0.42 -0.02,1.01l0 7.46c0,0.6 0.01,0.93 0.02,1.01 0.01,0.11 0.05,0.21 0.1,0.28 0.14,0.17 0.61,0.26 1.43,0.26l0.26 0 0 0.93 -6.68 0 0 -0.93 0.26 0c0.8,0 1.27,-0.09 1.41,-0.26 0.06,-0.07 0.09,-0.16 0.1,-0.28 0.01,-0.08 0.02,-0.42 0.02,-1.01zm5.96 -9.93l4.33 0 6.63 7.77 0 -4.04c0,-0.73 -0.03,-1.26 -0.09,-1.58 -0.06,-0.32 -0.18,-0.57 -0.36,-0.76 -0.27,-0.3 -0.74,-0.45 -1.41,-0.46l0 -0.93 4.9 0 0 0.93c-0.69,0.02 -1.17,0.18 -1.44,0.46 -0.18,0.18 -0.3,0.43 -0.36,0.74 -0.06,0.32 -0.09,0.85 -0.09,1.6l0 8.8 -1.15 0 -7.99 -9.5 0 5.65c0,0.73 0.03,1.26 0.09,1.58 0.06,0.31 0.18,0.56 0.36,0.74 0.26,0.28 0.74,0.43 1.44,0.46l0 0.93 -4.9 0 0 -0.93c0.69,-0.03 1.16,-0.19 1.41,-0.46 0.18,-0.18 0.3,-0.43 0.36,-0.74 0.06,-0.32 0.09,-0.85 0.09,-1.58l0 -6.77c-0.44,-0.62 -1.04,-0.94 -1.82,-0.96l0 -0.95zm14.28 0l11.53 0 0.1 4.47 -0.89 0c-0.27,-0.97 -0.61,-1.73 -1,-2.27 -0.62,-0.85 -1.59,-1.27 -2.9,-1.27l-0.48 0c-0.69,0 -1.12,0.13 -1.3,0.38 -0.11,0.16 -0.17,0.53 -0.17,1.1l0 3.11 0.29 0c0.68,0 1.22,-0.21 1.62,-0.63 0.41,-0.42 0.66,-1.02 0.75,-1.81l0.93 0 0 5.82 -0.93 0c-0.09,-0.79 -0.34,-1.39 -0.75,-1.81 -0.41,-0.42 -0.95,-0.63 -1.62,-0.63l-0.29 0 0 3.81c0,0.47 0.09,0.79 0.28,0.96 0.1,0.1 0.23,0.17 0.4,0.2 0.16,0.03 0.45,0.04 0.88,0.04l0.52 0c1.04,0 1.88,-0.29 2.53,-0.88 0.64,-0.59 1.14,-1.53 1.49,-2.81l0.91 0 -0.21 4.62 -11.66 0 0 -0.93 0.26 0c0.8,0 1.27,-0.09 1.41,-0.26 0.06,-0.07 0.09,-0.16 0.1,-0.28 0.01,-0.08 0.02,-0.42 0.02,-1.01l0 -7.46c0,-0.58 -0.01,-0.92 -0.02,-1 -0.02,-0.13 -0.06,-0.22 -0.1,-0.29 -0.14,-0.17 -0.61,-0.26 -1.41,-0.26l-0.26 0 0 -0.93zm13.04 0l11.53 0 0.1 4.47 -0.89 0c-0.27,-0.97 -0.61,-1.73 -1,-2.27 -0.62,-0.85 -1.59,-1.27 -2.9,-1.27l-0.48 0c-0.69,0 -1.12,0.13 -1.31,0.38 -0.11,0.16 -0.17,0.53 -0.17,1.1l0 3.11 0.29 0c0.68,0 1.22,-0.21 1.62,-0.63 0.41,-0.42 0.66,-1.02 0.75,-1.81l0.93 0 0 5.82 -0.93 0c-0.09,-0.79 -0.34,-1.39 -0.75,-1.81 -0.41,-0.42 -0.95,-0.63 -1.62,-0.63l-0.29 0 0 3.81c0,0.47 0.09,0.79 0.27,0.96 0.1,0.1 0.23,0.17 0.4,0.2 0.16,0.03 0.45,0.04 0.88,0.04l0.52 0c1.04,0 1.88,-0.29 2.53,-0.88 0.64,-0.59 1.14,-1.53 1.49,-2.81l0.91 0 -0.21 4.62 -11.67 0 0 -0.93 0.26 0c0.8,0 1.27,-0.09 1.41,-0.26 0.06,-0.07 0.09,-0.16 0.1,-0.28 0.01,-0.08 0.02,-0.42 0.02,-1.01l0 -7.46c0,-0.58 -0.01,-0.92 -0.02,-1 -0.02,-0.13 -0.06,-0.22 -0.1,-0.29 -0.14,-0.17 -0.61,-0.26 -1.41,-0.26l-0.26 0 0 -0.93zm18.95 6.44l-0.96 0 0 3.47c0,0.6 0,0.93 0.02,1.01 0.01,0.1 0.05,0.2 0.1,0.29 0.16,0.16 0.64,0.24 1.43,0.24l0.45 0 0 0.93 -6.87 0 0 -0.93 0.26 0c0.78,0 1.25,-0.08 1.41,-0.24 0.06,-0.09 0.09,-0.19 0.1,-0.29 0.01,-0.08 0.02,-0.42 0.02,-1.01l0 -7.44c0,-0.6 -0.01,-0.93 -0.02,-1.01 -0.01,-0.1 -0.04,-0.2 -0.1,-0.29 -0.16,-0.16 -0.63,-0.24 -1.41,-0.24l-0.26 0 0 -0.93 7.34 0c1.6,0 2.73,0.21 3.38,0.62 0.93,0.59 1.39,1.43 1.39,2.49 0,1.16 -0.55,2.02 -1.65,2.59 -0.38,0.18 -0.97,0.35 -1.79,0.5 0.74,0.25 1.3,0.59 1.67,1.01 0.37,0.42 0.61,1.03 0.74,1.8l0.12 0.65c0.05,0.27 0.07,0.44 0.07,0.48 0.07,0.46 0.14,0.73 0.21,0.81 0.11,0.17 0.28,0.26 0.5,0.26 0.5,0 0.77,-0.54 0.79,-1.63l0.93 0 0 0.21c0,0.92 -0.25,1.62 -0.76,2.12 -0.51,0.5 -1.23,0.75 -2.16,0.75 -1.54,0 -2.45,-0.68 -2.75,-2.04 -0.07,-0.41 -0.15,-1.13 -0.24,-2.15 -0.03,-0.47 -0.08,-0.8 -0.13,-0.98 -0.05,-0.18 -0.15,-0.36 -0.28,-0.53 -0.31,-0.34 -0.82,-0.52 -1.53,-0.52zm-0.96 -4.42l0 3.47 0.94 0c1.13,0 1.92,-0.17 2.35,-0.5 0.44,-0.33 0.65,-0.93 0.65,-1.8 0,-0.78 -0.19,-1.35 -0.56,-1.72 -0.37,-0.37 -0.96,-0.55 -1.76,-0.55l-0.41 0c-0.54,0 -0.88,0.06 -1.03,0.19 -0.13,0.13 -0.19,0.43 -0.19,0.91zm11.3 7.9l0 -7.46c0,-0.58 -0.01,-0.92 -0.02,-1 -0.02,-0.13 -0.06,-0.22 -0.1,-0.29 -0.14,-0.17 -0.61,-0.26 -1.41,-0.26l-0.26 0 0 -0.93 6.68 0 0 0.93 -0.26 0c-0.81,0 -1.29,0.09 -1.43,0.26 -0.06,0.07 -0.09,0.16 -0.1,0.28 -0.01,0.08 -0.02,0.42 -0.02,1.01l0 7.46c0,0.6 0.01,0.93 0.02,1.01 0.01,0.11 0.05,0.21 0.1,0.28 0.14,0.17 0.61,0.26 1.43,0.26l0.26 0 0 0.93 -6.68 0 0 -0.93 0.26 0c0.8,0 1.27,-0.09 1.41,-0.26 0.06,-0.07 0.09,-0.16 0.1,-0.28 0.01,-0.08 0.02,-0.42 0.02,-1.01zm5.96 -9.93l4.33 0 6.63 7.77 0 -4.04c0,-0.73 -0.03,-1.26 -0.09,-1.58 -0.06,-0.32 -0.18,-0.57 -0.36,-0.76 -0.28,-0.3 -0.74,-0.45 -1.41,-0.46l0 -0.93 4.9 0 0 0.93c-0.69,0.02 -1.17,0.18 -1.44,0.46 -0.18,0.18 -0.3,0.43 -0.36,0.74 -0.06,0.32 -0.09,0.85 -0.09,1.6l0 8.8 -1.15 0 -7.99 -9.5 0 5.65c0,0.73 0.03,1.26 0.09,1.58 0.06,0.31 0.18,0.56 0.36,0.74 0.26,0.28 0.74,0.43 1.44,0.46l0 0.93 -4.9 0 0 -0.93c0.69,-0.03 1.16,-0.19 1.41,-0.46 0.18,-0.18 0.3,-0.43 0.36,-0.74 0.06,-0.32 0.09,-0.85 0.09,-1.58l0 -6.77c-0.44,-0.62 -1.04,-0.94 -1.82,-0.96l0 -0.95zm25.36 -0.19l0.76 0 0.15 4.93 -0.91 0c-0.29,-1.31 -0.78,-2.32 -1.49,-3.03 -0.71,-0.72 -1.58,-1.07 -2.59,-1.07 -0.5,0 -0.97,0.11 -1.4,0.34 -0.43,0.23 -0.77,0.54 -1.02,0.95 -0.65,1.05 -0.98,2.51 -0.98,4.36 0,1.64 0.23,2.97 0.7,4 0.22,0.47 0.53,0.83 0.94,1.09 0.41,0.26 0.87,0.39 1.4,0.39 0.77,0 1.38,-0.24 1.85,-0.73 0.46,-0.49 0.7,-1.13 0.7,-1.93l0 -0.24c0,-0.63 -0.07,-1 -0.22,-1.12 -0.16,-0.13 -0.61,-0.19 -1.34,-0.19l-0.19 0 0 -0.93 6.1 0 0 0.93c-0.82,0.02 -1.29,0.1 -1.41,0.24 -0.05,0.07 -0.08,0.17 -0.1,0.29 -0.01,0.08 -0.02,0.42 -0.02,1.01l0 3.54 -0.91 0 -0.84 -1.68c-0.47,0.47 -0.87,0.8 -1.2,1 -0.85,0.47 -1.81,0.7 -2.89,0.7 -1.76,0 -3.21,-0.58 -4.33,-1.74 -1.11,-1.16 -1.67,-2.67 -1.67,-4.54 0,-1.84 0.57,-3.37 1.7,-4.57 1.28,-1.39 2.93,-2.08 4.93,-2.08 0.62,0 1.16,0.07 1.64,0.21 0.48,0.14 1.02,0.38 1.64,0.72l1.01 -0.86zm18.9 0l0.74 0 0.17 4.91 -0.91 0.1c-0.39,-1.43 -0.9,-2.49 -1.55,-3.17 -0.64,-0.68 -1.44,-1.02 -2.39,-1.02 -1.05,0 -1.85,0.46 -2.4,1.37 -0.54,0.92 -0.82,2.26 -0.82,4.04 0,1.89 0.28,3.29 0.84,4.19 0.56,0.9 1.43,1.36 2.59,1.36 0.99,0 1.81,-0.33 2.47,-0.98 0.66,-0.65 1.11,-1.58 1.34,-2.77l1.07 0.26c-0.33,1.55 -0.95,2.69 -1.84,3.44 -0.89,0.74 -2.1,1.12 -3.61,1.12 -1.95,0 -3.5,-0.63 -4.66,-1.89 -1.09,-1.21 -1.63,-2.69 -1.63,-4.41 0,-1.94 0.61,-3.52 1.82,-4.74 1.21,-1.25 2.77,-1.87 4.67,-1.87 0.62,0 1.16,0.07 1.62,0.2 0.46,0.13 0.97,0.37 1.52,0.71l0.93 -0.84zm9.14 -0.07c1.67,0 3.06,0.49 4.17,1.46 0.71,0.61 1.27,1.37 1.68,2.29 0.41,0.92 0.62,1.88 0.62,2.88 0,2.06 -0.77,3.71 -2.3,4.95 -1.14,0.89 -2.55,1.34 -4.26,1.34 -1.88,0 -3.41,-0.59 -4.61,-1.77 -1.2,-1.19 -1.8,-2.69 -1.8,-4.5 0,-1.01 0.2,-1.97 0.61,-2.89 0.41,-0.92 0.97,-1.68 1.69,-2.3 1.11,-0.97 2.51,-1.46 4.19,-1.46zm0.02 0.89c-0.99,0 -1.72,0.41 -2.2,1.22 -0.58,0.98 -0.88,2.39 -0.88,4.21 0,1.82 0.29,3.28 0.88,4.38 0.47,0.88 1.2,1.32 2.2,1.32 0.99,0 1.73,-0.46 2.25,-1.37 0.52,-0.92 0.77,-2.25 0.77,-4 0,-1.89 -0.29,-3.37 -0.88,-4.43 -0.5,-0.88 -1.22,-1.32 -2.15,-1.32zm7.15 -0.64l5.53 0 2.66 7.39 2.51 -7.39 5.6 0 0 0.93 -0.19 0c-0.81,0 -1.29,0.09 -1.43,0.26 -0.05,0.07 -0.08,0.17 -0.1,0.29 -0.01,0.08 -0.02,0.41 -0.02,1l0 7.46c0,0.6 0.01,0.93 0.02,1.01 0.01,0.11 0.04,0.21 0.1,0.28 0.14,0.17 0.61,0.26 1.43,0.26l0.19 0 0 0.93 -6.56 0 0 -0.93 0.19 0c0.81,0 1.29,-0.09 1.43,-0.26 0.06,-0.07 0.09,-0.16 0.1,-0.28 0.01,-0.08 0.02,-0.42 0.02,-1.01l0 -8.57 -3.8 11.05 -0.89 0 -3.9 -10.87 0 7.15c0,0.74 0.03,1.28 0.09,1.6 0.06,0.31 0.18,0.56 0.36,0.74 0.27,0.29 0.76,0.44 1.44,0.46l0 0.93 -4.9 0 0 -0.93c0.66,-0.01 1.13,-0.17 1.41,-0.46 0.18,-0.18 0.3,-0.43 0.36,-0.74 0.06,-0.34 0.09,-0.88 0.09,-1.6l0 -6.2c0,-0.58 -0,-0.92 -0.02,-1 -0.02,-0.13 -0.06,-0.22 -0.1,-0.29 -0.14,-0.17 -0.61,-0.26 -1.43,-0.26l-0.19 0 0 -0.93zm23.79 7.08l-1.92 0 0 2.85c0,0.6 0,0.93 0.02,1.01 0.01,0.1 0.04,0.2 0.1,0.29 0.16,0.16 0.64,0.24 1.43,0.24l0.38 0 0 0.93 -6.8 0 0 -0.93 0.26 0c0.78,0 1.25,-0.08 1.41,-0.24 0.06,-0.09 0.09,-0.19 0.1,-0.29 0.01,-0.08 0.02,-0.42 0.02,-1.01l0 -7.44c0,-0.6 -0.01,-0.93 -0.02,-1.01 -0.01,-0.1 -0.04,-0.2 -0.1,-0.29 -0.16,-0.16 -0.63,-0.24 -1.41,-0.24l-0.26 0 0 -0.95 6.82 0c1.55,0 2.77,0.2 3.66,0.6 0.55,0.25 0.98,0.63 1.28,1.13 0.3,0.5 0.46,1.08 0.46,1.72 0,2.42 -1.8,3.62 -5.41,3.62zm-1.92 -5.1l0 4.16 1 0c1.11,0 1.89,-0.2 2.34,-0.61 0.45,-0.41 0.68,-1.1 0.68,-2.09 0,-0.86 -0.19,-1.49 -0.58,-1.89 -0.39,-0.4 -0.99,-0.6 -1.8,-0.6l-0.69 0c-0.39,0 -0.64,0.06 -0.76,0.2 -0.12,0.13 -0.18,0.41 -0.18,0.83zm8.43 6.87l3.9 -9.11 1.31 0 4.42 10.65c0.19,0.44 0.38,0.72 0.57,0.86 0.23,0.14 0.58,0.21 1.05,0.22l0 0.93 -6.03 0 0 -0.93 0.29 -0.02c0.54,0 0.86,-0.07 0.95,-0.21 0.1,-0.14 0.04,-0.44 -0.16,-0.9l-0.65 -1.68 -4.28 0 -0.27 0.65c-0.18,0.4 -0.28,0.73 -0.28,0.98 0,0.39 0.13,0.67 0.4,0.86 0.26,0.18 0.7,0.29 1.32,0.33l0 0.93 -4.96 0 0 -0.93c0.52,-0.06 0.96,-0.28 1.32,-0.67 0.37,-0.39 0.74,-1.04 1.12,-1.96zm5.21 -1.34l-1.67 -4.1 -1.73 4.1 3.4 0zm6.01 -7.51l4.33 0 6.63 7.77 0 -4.04c0,-0.73 -0.03,-1.26 -0.09,-1.58 -0.06,-0.32 -0.18,-0.57 -0.36,-0.76 -0.28,-0.3 -0.74,-0.45 -1.41,-0.46l0 -0.93 4.9 0 0 0.93c-0.69,0.02 -1.17,0.18 -1.44,0.46 -0.18,0.18 -0.3,0.43 -0.36,0.74 -0.06,0.32 -0.09,0.85 -0.09,1.6l0 8.8 -1.15 0 -7.99 -9.5 0 5.65c0,0.73 0.03,1.26 0.09,1.58 0.06,0.31 0.18,0.56 0.36,0.74 0.26,0.28 0.74,0.43 1.44,0.46l0 0.93 -4.9 0 0 -0.93c0.69,-0.03 1.16,-0.19 1.41,-0.46 0.18,-0.18 0.3,-0.43 0.36,-0.74 0.06,-0.32 0.09,-0.85 0.09,-1.58l0 -6.77c-0.44,-0.62 -1.04,-0.94 -1.82,-0.96l0 -0.95zm18.95 1.84l2.27 3.76 1.72 -3.06c0.16,-0.34 0.24,-0.61 0.24,-0.79 0,-0.25 -0.11,-0.45 -0.34,-0.6 -0.23,-0.15 -0.53,-0.22 -0.91,-0.22l-0.36 0 0 -0.93 5.07 0 0 0.93c-0.94,0.07 -1.71,0.6 -2.3,1.6l-2.58 4.42 0 2.99c0,0.6 0.01,0.93 0.02,1.01 0.01,0.11 0.05,0.21 0.1,0.28 0.14,0.17 0.61,0.26 1.43,0.26l0.38 0 0 0.93 -6.94 0 0 -0.93 0.38 0c0.81,0 1.29,-0.09 1.43,-0.26 0.06,-0.07 0.09,-0.16 0.1,-0.28 0.01,-0.08 0.02,-0.42 0.02,-1.01l0 -2.77 -3.5 -5.62c-0.16,-0.25 -0.33,-0.42 -0.51,-0.5 -0.18,-0.08 -0.46,-0.12 -0.85,-0.12l0 -0.93 6.18 0 0 0.93 -0.27 0c-0.64,0 -0.96,0.13 -0.96,0.38 0,0.14 0.07,0.32 0.21,0.53z"/>
   <path class="fil3" d="M241.23 347.57l4.47 0 -0.01 0.3 0.01 0 -1 22.4 -0.01 0 -56.53 0 0 -4.56 1.27 0c3.94,0 6.24,-0.42 6.92,-1.27 0.28,-0.34 0.44,-0.79 0.51,-1.35 0.05,-0.4 0.08,-2.08 0.08,-5.06l0 -63.08c0,-2.87 -0.02,-4.5 -0.08,-4.89 -0.1,-0.62 -0.26,-1.11 -0.51,-1.43 -0.65,-0.86 -2.98,-1.27 -6.92,-1.27l-1.27 0 0 -4.56 33.41 0 0 4.56 -1.86 0c-3.99,0 -6.35,0.41 -7,1.27 -0.25,0.32 -0.4,0.81 -0.51,1.43 -0.07,0.39 -0.08,2.03 -0.08,4.89l0 15.19 31.92 0 0.5 21.65 -4.33 0c-1.33,-4.72 -2.94,-8.38 -4.83,-10.99 -3,-4.11 -7.69,-6.16 -14.07,-6.16l-2.33 0c-3.33,0 -5.44,0.61 -6.33,1.83 -0.21,0.3 -0.39,0.75 -0.52,1.35l0 19.05 1.1 0c3.28,0 5.9,-1.01 7.87,-3.04 1.97,-2.03 3.18,-4.96 3.62,-8.79l4.5 0 0 28.23 -4.5 0c-0.44,-3.83 -1.65,-6.76 -3.62,-8.79 -1.97,-2.03 -4.59,-3.04 -7.87,-3.04l-1.1 0 0 18.35c0,2.31 0.46,3.87 1.35,4.73 0.52,0.5 1.15,0.83 1.94,0.97 0.79,0.14 2.22,0.21 4.3,0.21l1.77 0c5.96,0 10.72,-2.11 14.26,-6.33 2.19,-2.7 4.02,-6.64 5.48,-11.81zm-77.57 -21.04c0,14.33 11.62,25.95 25.95,25.95 1.91,0 3.77,-0.21 5.57,-0.6l0 -17.4 -1.74 -1.74c-0.61,0.37 -1.27,0.65 -1.98,0.83l0 2.77 -3.55 0 0 -2.77c-0.71,-0.18 -1.38,-0.46 -1.99,-0.82l-1.95 1.95 -2.51 -2.51 1.95 -1.95c-0.37,-0.61 -0.65,-1.28 -0.82,-1.99l-2.77 0 0 -3.55 2.77 0c0.18,-0.71 0.46,-1.37 0.83,-1.98l-1.96 -1.97 2.51 -2.51 1.97 1.97c0.61,-0.36 1.27,-0.64 1.97,-0.81l0 -2.8 3.55 0 0 2.8c0.7,0.18 1.36,0.45 1.96,0.81l1.76 -1.76 0 -17.27c-1.79,-0.39 -3.66,-0.6 -5.57,-0.6 -14.33,0 -25.95,11.62 -25.95,25.95z"/>
   <path class="fil4" d="M189.61 354.7c-15.56,0 -28.17,-12.61 -28.17,-28.17 0,-15.56 12.61,-28.17 28.17,-28.17 1.91,0 3.77,0.19 5.57,0.55l0 -3.96c0,-1.33 0.1,-3.33 -0.06,-4.62 -0.02,-0.15 -0.09,-0.52 -0.14,-0.62 -0.73,-0.54 -4.6,-0.61 -5.56,-0.61l-3.02 0 0 -6.31 -4.59 0 0 12.37c-3.11,0.77 -6.04,1.99 -8.72,3.59l-8.73 -8.73 -11.12 11.12 8.7 8.7c-1.62,2.69 -2.87,5.63 -3.65,8.75l-12.27 0 0 15.73 12.24 0c0.78,3.14 2.02,6.1 3.64,8.8l-8.65 8.65 11.12 11.12 8.65 -8.65c2.7,1.62 5.66,2.86 8.8,3.64l0 12.24 4.59 0 0 -6.17 3.02 0c0.96,0 4.83,-0.07 5.59,-0.65 0.04,-0.06 0.08,-0.32 0.09,-0.41 0.16,-1.43 0.07,-3.4 0.07,-4.86l0 -3.88c-1.8,0.36 -3.66,0.55 -5.57,0.55z"/>
  </g>
 </g>
</svg>
