<?xml version="1.0" encoding="UTF-8"?>
<!DOCTYPE svg PUBLIC "-//W3C//DTD SVG 1.1//EN" "http://www.w3.org/Graphics/SVG/1.1/DTD/svg11.dtd">
<!-- Creator: CorelDRAW 2021 (64-Bit) -->
<svg xmlns="http://www.w3.org/2000/svg" xml:space="preserve" width="65.419mm" height="65.4194mm" version="1.1" style="shape-rendering:geometricPrecision; text-rendering:geometricPrecision; image-rendering:optimizeQuality; fill-rule:evenodd; clip-rule:evenodd"
viewBox="0 0 856.12 856.13"
 xmlns:xlink="http://www.w3.org/1999/xlink"
 xmlns:xodm="http://www.corel.com/coreldraw/odm/2003">
 <defs>
  <style type="text/css">
   <![CDATA[
    .fil0 {fill:white}
    .fil1 {fill:black;fill-rule:nonzero}
    .fil3 {fill:black;fill-rule:nonzero}
    .fil2 {fill:#DA251C;fill-rule:nonzero}
    .fil4 {fill:url(#id0)}
   ]]>
  </style>
  <linearGradient id="id0" gradientUnits="userSpaceOnUse" x1="390.21" y1="398.74" x2="438.09" y2="339.73">
   <stop offset="0" style="stop-opacity:1; stop-color:#D1231B"/>
   <stop offset="0.490196" style="stop-opacity:1; stop-color:#FF0800"/>
   <stop offset="1" style="stop-opacity:1; stop-color:#D1231B"/>
  </linearGradient>
 </defs>
 <g id="Layer_x0020_1">
  <metadata id="CorelCorpID_0Corel-Layer"/>
  <rect class="fil0" width="856.12" height="856.13"/>
  <g id="_1864929260000">
   <g>
    <path class="fil1" d="M306.91 490.2l5.21 0 -1.18 26.45 -65.89 0 0 -5.31 1.47 0c4.59,0 7.28,-0.49 8.06,-1.47 0.33,-0.39 0.52,-0.92 0.59,-1.57 0.07,-0.46 0.1,-2.43 0.1,-5.9l0 -42.58c0,-3.34 -0.03,-5.25 -0.1,-5.7 -0.13,-0.72 -0.33,-1.28 -0.59,-1.67 -0.79,-0.98 -3.47,-1.47 -8.06,-1.47l-1.47 0 0 -5.31 38.94 0 0 5.31 -2.16 0c-4.65,0 -7.38,0.49 -8.16,1.47 -0.26,0.39 -0.46,0.95 -0.59,1.67 -0.07,0.46 -0.1,2.36 -0.1,5.7l0 44.65c0,2.69 0.52,4.52 1.57,5.51 0.59,0.59 1.34,0.97 2.26,1.13 0.92,0.16 2.59,0.25 5.02,0.25l2.07 0c6.95,0 12.49,-2.46 16.62,-7.38 2.56,-3.15 4.69,-7.74 6.39,-13.77zm21.44 6.1l22.32 -52.12 7.47 0 25.27 60.97c1.11,2.49 2.2,4.13 3.25,4.92 1.31,0.79 3.31,1.21 6,1.28l0 5.31 -34.52 0 0 -5.31 1.67 -0.1c3.08,0 4.9,-0.41 5.46,-1.23 0.56,-0.82 0.25,-2.54 -0.93,-5.16l-3.74 -9.64 -24.49 0 -1.57 3.74c-1.05,2.29 -1.57,4.16 -1.57,5.61 0,2.23 0.75,3.87 2.26,4.92 1.51,1.05 4.03,1.67 7.57,1.87l0 5.31 -28.42 0 0 -5.31c2.95,-0.33 5.47,-1.61 7.57,-3.84 2.1,-2.23 4.23,-5.96 6.39,-11.21zm29.8 -7.67l-9.54 -23.5 -9.93 23.5 19.47 0zm32.55 -42.97l65.1 0 1.47 26.65 -5.21 0c-1.25,-7.08 -3.18,-12.33 -5.8,-15.73 -3.08,-3.87 -6.62,-5.8 -10.62,-5.8 -1.44,0 -2.39,0.25 -2.85,0.74 -0.46,0.49 -0.69,1.59 -0.69,3.3l0 47.69c0,3.41 0.03,5.34 0.1,5.8 0.07,0.65 0.26,1.18 0.59,1.57 0.79,0.98 3.51,1.47 8.16,1.47l2.16 0 0 5.31 -39.73 0 0 -5.31 2.16 0c4.65,0 7.38,-0.49 8.16,-1.47 0.33,-0.39 0.52,-0.92 0.59,-1.57 0.07,-0.46 0.1,-2.39 0.1,-5.8l0 -47.69c0,-1.71 -0.23,-2.8 -0.69,-3.3 -0.46,-0.49 -1.41,-0.74 -2.85,-0.74 -4.52,0 -8.33,2.33 -11.41,6.98 -2.29,3.28 -3.97,8.13 -5.01,14.55l-5.21 0 1.47 -26.65zm69.63 0l65.99 0 0.59 25.57 -5.11 0c-1.57,-5.57 -3.47,-9.9 -5.7,-12.98 -3.54,-4.85 -9.08,-7.28 -16.62,-7.28l-2.75 0c-3.93,0 -6.42,0.72 -7.47,2.16 -0.66,0.92 -0.98,3.02 -0.98,6.29l0 17.8 1.67 0c3.87,0 6.97,-1.2 9.29,-3.59 2.33,-2.39 3.75,-5.85 4.28,-10.38l5.31 0 0 33.34 -5.31 0c-0.52,-4.52 -1.95,-7.98 -4.28,-10.37 -2.33,-2.39 -5.43,-3.59 -9.29,-3.59l-1.67 0 0 21.83c0,2.69 0.52,4.52 1.57,5.51 0.59,0.59 1.34,0.97 2.26,1.13 0.92,0.16 2.59,0.25 5.01,0.25l2.95 0c5.97,0 10.78,-1.69 14.46,-5.06 3.67,-3.38 6.52,-8.74 8.56,-16.08l5.21 0 -1.18 26.45 -66.78 0 0 -5.31 1.48 0c4.59,0 7.28,-0.49 8.06,-1.47 0.33,-0.39 0.52,-0.92 0.59,-1.57 0.07,-0.46 0.1,-2.39 0.1,-5.8l0 -42.68c0,-3.34 -0.03,-5.25 -0.1,-5.7 -0.13,-0.72 -0.33,-1.28 -0.59,-1.67 -0.79,-0.98 -3.48,-1.47 -8.06,-1.47l-1.48 0 0 -5.31zm100.8 11.01l15.64 39.73 13.97 -35.01c0.59,-1.44 0.88,-2.69 0.88,-3.74 0,-2.62 -1.15,-4.49 -3.44,-5.61 -1.31,-0.72 -3.34,-1.08 -6.1,-1.08l0 -5.31 29.01 0 0 5.31c-6.03,0.59 -10.55,4.75 -13.57,12.49l-22.52 54.68 -8.65 0 -23.9 -60.38c-1.05,-2.75 -2.23,-4.59 -3.54,-5.51 -1.11,-0.85 -3.15,-1.28 -6.1,-1.28l0 -5.31 35.6 0 0 5.31 -2.07 0c-4.06,0 -6.1,0.82 -6.1,2.46 0,0.59 0.29,1.67 0.88,3.25z"/>
    <path class="fil2" d="M245.05 526.3l17.55 0 0.16 6.8 -1.36 0c-0.42,-1.48 -0.93,-2.63 -1.52,-3.45 -0.94,-1.29 -2.42,-1.94 -4.42,-1.94l-0.73 0c-1.05,0 -1.71,0.19 -1.99,0.58 -0.17,0.24 -0.26,0.8 -0.26,1.68l0 4.73 0.44 0c1.03,0 1.85,-0.32 2.47,-0.96 0.62,-0.64 1,-1.56 1.14,-2.76l1.41 0 0 8.87 -1.41 0c-0.14,-1.2 -0.52,-2.12 -1.14,-2.76 -0.62,-0.64 -1.44,-0.96 -2.47,-0.96l-0.44 0 0 5.81c0,0.71 0.14,1.2 0.42,1.46 0.16,0.16 0.36,0.26 0.6,0.3 0.24,0.04 0.69,0.07 1.33,0.07l0.79 0c1.59,0 2.87,-0.45 3.85,-1.35 0.98,-0.9 1.73,-2.32 2.28,-4.28l1.39 0 -0.31 7.04 -17.76 0 0 -1.41 0.39 0c1.22,0 1.94,-0.13 2.15,-0.39 0.09,-0.1 0.14,-0.24 0.16,-0.42 0.02,-0.12 0.03,-0.64 0.03,-1.54l0 -11.35c0,-0.89 -0.01,-1.4 -0.03,-1.52 -0.04,-0.19 -0.09,-0.34 -0.16,-0.44 -0.21,-0.26 -0.92,-0.39 -2.15,-0.39l-0.39 0 0 -1.41zm19.91 0l6.59 0 10.1 11.82 0 -6.15c0,-1.12 -0.04,-1.92 -0.13,-2.41 -0.09,-0.49 -0.27,-0.87 -0.55,-1.15 -0.42,-0.45 -1.13,-0.69 -2.15,-0.71l0 -1.41 7.46 0 0 1.41c-1.05,0.04 -1.78,0.27 -2.2,0.71 -0.28,0.28 -0.46,0.65 -0.55,1.13 -0.09,0.49 -0.13,1.3 -0.13,2.43l0 13.39 -1.75 0 -12.17 -14.47 0 8.61c0,1.12 0.04,1.92 0.13,2.41 0.09,0.47 0.27,0.85 0.55,1.13 0.4,0.42 1.13,0.65 2.2,0.71l0 1.41 -7.46 0 0 -1.41c1.05,-0.05 1.76,-0.29 2.14,-0.71 0.28,-0.28 0.46,-0.65 0.55,-1.13 0.09,-0.49 0.13,-1.29 0.13,-2.41l0 -10.31c-0.66,-0.94 -1.59,-1.43 -2.77,-1.47l0 -1.44zm38.61 -0.29l1.15 0 0.24 7.51 -1.39 0c-0.44,-1.99 -1.19,-3.53 -2.28,-4.62 -1.08,-1.09 -2.4,-1.63 -3.95,-1.63 -0.77,0 -1.48,0.17 -2.13,0.52 -0.65,0.35 -1.17,0.83 -1.56,1.44 -0.99,1.6 -1.49,3.82 -1.49,6.64 0,2.49 0.36,4.53 1.07,6.1 0.33,0.71 0.81,1.27 1.43,1.66 0.62,0.39 1.33,0.59 2.13,0.59 1.17,0 2.11,-0.37 2.81,-1.11 0.71,-0.74 1.06,-1.72 1.06,-2.94l0 -0.37c0,-0.96 -0.11,-1.53 -0.34,-1.7 -0.24,-0.19 -0.93,-0.29 -2.04,-0.29l-0.29 0 0 -1.41 9.29 0 0 1.41c-1.26,0.03 -1.97,0.16 -2.14,0.37 -0.07,0.1 -0.12,0.25 -0.16,0.44 -0.02,0.12 -0.03,0.64 -0.03,1.54l0 5.39 -1.39 0 -1.28 -2.56c-0.72,0.72 -1.33,1.22 -1.83,1.52 -1.29,0.71 -2.76,1.07 -4.4,1.07 -2.69,0 -4.88,-0.88 -6.59,-2.64 -1.69,-1.76 -2.54,-4.06 -2.54,-6.91 0,-2.81 0.86,-5.13 2.59,-6.96 1.95,-2.11 4.46,-3.17 7.51,-3.17 0.94,0 1.77,0.1 2.5,0.31 0.72,0.21 1.56,0.58 2.5,1.1l1.54 -1.31zm7.14 15.41l0 -11.35c0,-0.89 -0.01,-1.4 -0.03,-1.52 -0.04,-0.19 -0.09,-0.34 -0.16,-0.44 -0.21,-0.26 -0.92,-0.39 -2.15,-0.39l-0.39 0 0 -1.41 10.18 0 0 1.41 -0.39 0c-1.24,0 -1.96,0.13 -2.17,0.39 -0.09,0.1 -0.14,0.24 -0.16,0.42 -0.02,0.12 -0.03,0.64 -0.03,1.54l0 11.35c0,0.91 0.01,1.42 0.03,1.54 0.02,0.17 0.07,0.31 0.16,0.42 0.21,0.26 0.93,0.39 2.17,0.39l0.39 0 0 1.41 -10.18 0 0 -1.41 0.39 0c1.22,0 1.94,-0.13 2.15,-0.39 0.09,-0.1 0.14,-0.24 0.16,-0.42 0.02,-0.12 0.03,-0.64 0.03,-1.54zm9.08 -15.12l6.59 0 10.1 11.82 0 -6.15c0,-1.12 -0.04,-1.92 -0.13,-2.41 -0.09,-0.49 -0.27,-0.87 -0.55,-1.15 -0.42,-0.45 -1.13,-0.69 -2.15,-0.71l0 -1.41 7.46 0 0 1.41c-1.05,0.04 -1.78,0.27 -2.2,0.71 -0.28,0.28 -0.46,0.65 -0.55,1.13 -0.09,0.49 -0.13,1.3 -0.13,2.43l0 13.39 -1.75 0 -12.16 -14.47 0 8.61c0,1.12 0.04,1.92 0.13,2.41 0.09,0.47 0.27,0.85 0.55,1.13 0.4,0.42 1.13,0.65 2.2,0.71l0 1.41 -7.46 0 0 -1.41c1.05,-0.05 1.76,-0.29 2.14,-0.71 0.28,-0.28 0.46,-0.65 0.55,-1.13 0.09,-0.49 0.13,-1.29 0.13,-2.41l0 -10.31c-0.66,-0.94 -1.59,-1.43 -2.77,-1.47l0 -1.44zm21.74 0l17.55 0 0.16 6.8 -1.36 0c-0.42,-1.48 -0.93,-2.63 -1.52,-3.45 -0.94,-1.29 -2.42,-1.94 -4.42,-1.94l-0.73 0c-1.05,0 -1.71,0.19 -1.99,0.58 -0.17,0.24 -0.26,0.8 -0.26,1.68l0 4.73 0.44 0c1.03,0 1.85,-0.32 2.47,-0.96 0.62,-0.64 1,-1.56 1.14,-2.76l1.41 0 0 8.87 -1.41 0c-0.14,-1.2 -0.52,-2.12 -1.14,-2.76 -0.62,-0.64 -1.44,-0.96 -2.47,-0.96l-0.44 0 0 5.81c0,0.71 0.14,1.2 0.42,1.46 0.16,0.16 0.36,0.26 0.6,0.3 0.24,0.04 0.69,0.07 1.33,0.07l0.79 0c1.59,0 2.87,-0.45 3.84,-1.35 0.98,-0.9 1.74,-2.32 2.28,-4.28l1.39 0 -0.31 7.04 -17.76 0 0 -1.41 0.39 0c1.22,0 1.94,-0.13 2.15,-0.39 0.09,-0.1 0.14,-0.24 0.16,-0.42 0.02,-0.12 0.03,-0.64 0.03,-1.54l0 -11.35c0,-0.89 -0.01,-1.4 -0.03,-1.52 -0.04,-0.19 -0.09,-0.34 -0.16,-0.44 -0.21,-0.26 -0.92,-0.39 -2.15,-0.39l-0.39 0 0 -1.41zm19.86 0l17.55 0 0.16 6.8 -1.36 0c-0.42,-1.48 -0.92,-2.63 -1.52,-3.45 -0.94,-1.29 -2.41,-1.94 -4.42,-1.94l-0.73 0c-1.05,0 -1.71,0.19 -1.99,0.58 -0.17,0.24 -0.26,0.8 -0.26,1.68l0 4.73 0.44 0c1.03,0 1.85,-0.32 2.47,-0.96 0.62,-0.64 1,-1.56 1.14,-2.76l1.41 0 0 8.87 -1.41 0c-0.14,-1.2 -0.52,-2.12 -1.14,-2.76 -0.62,-0.64 -1.44,-0.96 -2.47,-0.96l-0.44 0 0 5.81c0,0.71 0.14,1.2 0.42,1.46 0.16,0.16 0.36,0.26 0.6,0.3 0.24,0.04 0.69,0.07 1.33,0.07l0.78 0c1.59,0 2.87,-0.45 3.85,-1.35 0.98,-0.9 1.74,-2.32 2.28,-4.28l1.39 0 -0.31 7.04 -17.76 0 0 -1.41 0.39 0c1.22,0 1.94,-0.13 2.14,-0.39 0.09,-0.1 0.14,-0.24 0.16,-0.42 0.02,-0.12 0.03,-0.64 0.03,-1.54l0 -11.35c0,-0.89 -0.01,-1.4 -0.03,-1.52 -0.04,-0.19 -0.09,-0.34 -0.16,-0.44 -0.21,-0.26 -0.92,-0.39 -2.14,-0.39l-0.39 0 0 -1.41zm28.86 9.81l-1.47 0 0 5.28c0,0.91 0.01,1.42 0.03,1.54 0.02,0.16 0.07,0.3 0.16,0.44 0.24,0.24 0.97,0.37 2.17,0.37l0.68 0 0 1.41 -10.46 0 0 -1.41 0.39 0c1.19,0 1.9,-0.12 2.14,-0.37 0.09,-0.14 0.14,-0.29 0.16,-0.44 0.02,-0.12 0.03,-0.64 0.03,-1.54l0 -11.33c0,-0.91 -0.01,-1.42 -0.03,-1.54 -0.02,-0.16 -0.07,-0.3 -0.16,-0.44 -0.24,-0.24 -0.96,-0.37 -2.14,-0.37l-0.39 0 0 -1.41 11.17 0c2.44,0 4.16,0.31 5.15,0.94 1.41,0.91 2.12,2.17 2.12,3.79 0,1.76 -0.84,3.08 -2.51,3.95 -0.58,0.28 -1.48,0.53 -2.72,0.76 1.13,0.38 1.98,0.9 2.54,1.54 0.56,0.65 0.93,1.56 1.13,2.75l0.18 0.99c0.07,0.42 0.1,0.66 0.1,0.73 0.1,0.7 0.21,1.11 0.31,1.23 0.17,0.26 0.43,0.39 0.76,0.39 0.77,0 1.17,-0.83 1.2,-2.49l1.41 0 0 0.32c0,1.4 -0.39,2.47 -1.16,3.23 -0.78,0.76 -1.87,1.14 -3.28,1.14 -2.34,0 -3.73,-1.04 -4.19,-3.11 -0.1,-0.63 -0.23,-1.72 -0.37,-3.27 -0.05,-0.72 -0.12,-1.21 -0.2,-1.49 -0.08,-0.28 -0.22,-0.55 -0.43,-0.81 -0.47,-0.52 -1.25,-0.79 -2.33,-0.79zm-1.47 -6.72l0 5.28 1.44 0c1.73,0 2.92,-0.25 3.58,-0.76 0.66,-0.51 0.99,-1.42 0.99,-2.75 0,-1.19 -0.28,-2.06 -0.85,-2.62 -0.57,-0.56 -1.46,-0.84 -2.68,-0.84l-0.63 0c-0.82,0 -1.34,0.1 -1.57,0.29 -0.19,0.19 -0.29,0.65 -0.29,1.39zm17.21 12.03l0 -11.35c0,-0.89 -0.01,-1.4 -0.02,-1.52 -0.04,-0.19 -0.09,-0.34 -0.16,-0.44 -0.21,-0.26 -0.93,-0.39 -2.15,-0.39l-0.39 0 0 -1.41 10.18 0 0 1.41 -0.39 0c-1.24,0 -1.96,0.13 -2.17,0.39 -0.09,0.1 -0.14,0.24 -0.16,0.42 -0.02,0.12 -0.02,0.64 -0.02,1.54l0 11.35c0,0.91 0.01,1.42 0.02,1.54 0.02,0.17 0.07,0.31 0.16,0.42 0.21,0.26 0.93,0.39 2.17,0.39l0.39 0 0 1.41 -10.18 0 0 -1.41 0.39 0c1.22,0 1.94,-0.13 2.15,-0.39 0.09,-0.1 0.14,-0.24 0.16,-0.42 0.02,-0.12 0.02,-0.64 0.02,-1.54zm9.08 -15.12l6.59 0 10.1 11.82 0 -6.15c0,-1.12 -0.04,-1.92 -0.13,-2.41 -0.09,-0.49 -0.27,-0.87 -0.55,-1.15 -0.42,-0.45 -1.13,-0.69 -2.14,-0.71l0 -1.41 7.46 0 0 1.41c-1.05,0.04 -1.78,0.27 -2.2,0.71 -0.28,0.28 -0.46,0.65 -0.55,1.13 -0.09,0.49 -0.13,1.3 -0.13,2.43l0 13.39 -1.75 0 -12.17 -14.47 0 8.61c0,1.12 0.04,1.92 0.13,2.41 0.09,0.47 0.27,0.85 0.55,1.13 0.4,0.42 1.13,0.65 2.2,0.71l0 1.41 -7.46 0 0 -1.41c1.05,-0.05 1.76,-0.29 2.14,-0.71 0.28,-0.28 0.46,-0.65 0.55,-1.13 0.09,-0.49 0.13,-1.29 0.13,-2.41l0 -10.31c-0.66,-0.94 -1.59,-1.43 -2.77,-1.47l0 -1.44zm38.61 -0.29l1.15 0 0.24 7.51 -1.39 0c-0.44,-1.99 -1.19,-3.53 -2.28,-4.62 -1.08,-1.09 -2.4,-1.63 -3.95,-1.63 -0.77,0 -1.48,0.17 -2.13,0.52 -0.65,0.35 -1.17,0.83 -1.56,1.44 -0.99,1.6 -1.49,3.82 -1.49,6.64 0,2.49 0.36,4.53 1.07,6.1 0.33,0.71 0.81,1.27 1.43,1.66 0.62,0.39 1.33,0.59 2.13,0.59 1.17,0 2.11,-0.37 2.81,-1.11 0.71,-0.74 1.06,-1.72 1.06,-2.94l0 -0.37c0,-0.96 -0.11,-1.53 -0.34,-1.7 -0.24,-0.19 -0.92,-0.29 -2.04,-0.29l-0.29 0 0 -1.41 9.29 0 0 1.41c-1.26,0.03 -1.97,0.16 -2.15,0.37 -0.07,0.1 -0.12,0.25 -0.16,0.44 -0.02,0.12 -0.03,0.64 -0.03,1.54l0 5.39 -1.39 0 -1.28 -2.56c-0.71,0.72 -1.32,1.22 -1.83,1.52 -1.29,0.71 -2.76,1.07 -4.39,1.07 -2.69,0 -4.88,-0.88 -6.59,-2.64 -1.69,-1.76 -2.54,-4.06 -2.54,-6.91 0,-2.81 0.86,-5.13 2.59,-6.96 1.95,-2.11 4.46,-3.17 7.51,-3.17 0.94,0 1.77,0.1 2.5,0.31 0.73,0.21 1.56,0.58 2.5,1.1l1.54 -1.31zm28.78 0l1.13 0 0.26 7.48 -1.39 0.16c-0.59,-2.18 -1.38,-3.79 -2.35,-4.83 -0.98,-1.04 -2.19,-1.56 -3.64,-1.56 -1.61,0 -2.82,0.7 -3.65,2.09 -0.83,1.4 -1.24,3.44 -1.24,6.15 0,2.88 0.43,5 1.28,6.38 0.85,1.38 2.17,2.07 3.95,2.07 1.5,0 2.76,-0.5 3.77,-1.49 1.01,-0.99 1.69,-2.4 2.04,-4.21l1.62 0.39c-0.51,2.35 -1.44,4.1 -2.8,5.23 -1.36,1.13 -3.19,1.7 -5.49,1.7 -2.97,0 -5.33,-0.96 -7.09,-2.88 -1.66,-1.85 -2.49,-4.09 -2.49,-6.72 0,-2.95 0.93,-5.35 2.77,-7.22 1.85,-1.9 4.22,-2.85 7.12,-2.85 0.94,0 1.77,0.1 2.47,0.3 0.71,0.2 1.48,0.56 2.32,1.08l1.41 -1.28zm13.92 -0.1c2.55,0 4.66,0.74 6.36,2.22 1.08,0.93 1.94,2.09 2.56,3.49 0.63,1.4 0.94,2.86 0.94,4.38 0,3.14 -1.17,5.65 -3.51,7.53 -1.73,1.36 -3.89,2.04 -6.49,2.04 -2.86,0 -5.2,-0.9 -7.01,-2.69 -1.83,-1.81 -2.75,-4.1 -2.75,-6.85 0,-1.53 0.31,-3 0.93,-4.39 0.62,-1.4 1.48,-2.56 2.58,-3.51 1.69,-1.48 3.82,-2.22 6.38,-2.22zm0.02 1.36c-1.5,0 -2.62,0.62 -3.35,1.86 -0.89,1.5 -1.33,3.64 -1.33,6.41 0,2.77 0.44,5 1.33,6.67 0.72,1.34 1.83,2.01 3.35,2.01 1.5,0 2.64,-0.7 3.43,-2.09 0.79,-1.4 1.18,-3.43 1.18,-6.1 0,-2.88 -0.44,-5.13 -1.33,-6.75 -0.77,-1.34 -1.86,-2.01 -3.27,-2.01zm10.88 -0.97l8.42 0 4.06 11.25 3.82 -11.25 8.53 0 0 1.41 -0.29 0c-1.24,0 -1.96,0.13 -2.17,0.39 -0.07,0.1 -0.12,0.25 -0.16,0.44 -0.02,0.12 -0.03,0.63 -0.03,1.52l0 11.35c0,0.91 0.01,1.42 0.03,1.54 0.02,0.17 0.07,0.31 0.16,0.42 0.21,0.26 0.93,0.39 2.17,0.39l0.29 0 0 1.41 -9.99 0 0 -1.41 0.29 0c1.24,0 1.96,-0.13 2.17,-0.39 0.09,-0.1 0.14,-0.24 0.16,-0.42 0.02,-0.12 0.03,-0.64 0.03,-1.54l0 -13.05 -5.78 16.82 -1.36 0 -5.94 -16.56 0 10.88c0,1.13 0.04,1.94 0.13,2.43 0.09,0.47 0.27,0.85 0.55,1.13 0.42,0.44 1.15,0.67 2.2,0.71l0 1.41 -7.46 0 0 -1.41c1.01,-0.02 1.73,-0.25 2.14,-0.71 0.28,-0.28 0.46,-0.65 0.55,-1.13 0.09,-0.52 0.13,-1.33 0.13,-2.43l0 -9.44c0,-0.89 -0.01,-1.4 -0.03,-1.52 -0.03,-0.19 -0.09,-0.34 -0.16,-0.44 -0.21,-0.26 -0.93,-0.39 -2.17,-0.39l-0.29 0 0 -1.41zm36.23 10.78l-2.93 0 0 4.34c0,0.91 0.01,1.42 0.02,1.54 0.02,0.16 0.07,0.3 0.16,0.44 0.24,0.24 0.97,0.37 2.17,0.37l0.58 0 0 1.41 -10.36 0 0 -1.41 0.39 0c1.19,0 1.9,-0.12 2.14,-0.37 0.09,-0.14 0.14,-0.29 0.16,-0.44 0.02,-0.12 0.03,-0.64 0.03,-1.54l0 -11.33c0,-0.91 -0.01,-1.42 -0.03,-1.54 -0.02,-0.16 -0.07,-0.3 -0.16,-0.44 -0.24,-0.24 -0.96,-0.37 -2.14,-0.37l-0.39 0 0 -1.44 10.39 0c2.35,0 4.21,0.3 5.57,0.91 0.84,0.38 1.49,0.96 1.95,1.73 0.46,0.77 0.69,1.64 0.69,2.62 0,3.68 -2.75,5.52 -8.24,5.52zm-2.93 -7.77l0 6.33 1.52 0c1.69,0 2.88,-0.31 3.57,-0.93 0.69,-0.62 1.03,-1.68 1.03,-3.18 0,-1.31 -0.3,-2.27 -0.89,-2.88 -0.59,-0.61 -1.51,-0.92 -2.75,-0.92l-1.05 0c-0.59,0 -0.98,0.1 -1.16,0.3 -0.18,0.2 -0.27,0.62 -0.27,1.27zm12.84 10.47l5.94 -13.87 1.99 0 6.72 16.22c0.3,0.66 0.58,1.1 0.86,1.31 0.35,0.21 0.88,0.32 1.6,0.34l0 1.41 -9.18 0 0 -1.41 0.44 -0.03c0.82,0 1.3,-0.11 1.45,-0.33 0.15,-0.22 0.07,-0.68 -0.25,-1.37l-0.99 -2.56 -6.51 0 -0.42 0.99c-0.28,0.61 -0.42,1.11 -0.42,1.49 0,0.59 0.2,1.03 0.6,1.31 0.4,0.28 1.07,0.44 2.01,0.5l0 1.41 -7.56 0 0 -1.41c0.78,-0.09 1.46,-0.43 2.01,-1.02 0.56,-0.59 1.13,-1.59 1.7,-2.98zm7.93 -2.04l-2.54 -6.25 -2.64 6.25 5.18 0zm9.16 -11.43l6.59 0 10.1 11.82 0 -6.15c0,-1.12 -0.04,-1.92 -0.13,-2.41 -0.09,-0.49 -0.27,-0.87 -0.55,-1.15 -0.42,-0.45 -1.13,-0.69 -2.14,-0.71l0 -1.41 7.46 0 0 1.41c-1.05,0.04 -1.78,0.27 -2.2,0.71 -0.28,0.28 -0.46,0.65 -0.55,1.13 -0.09,0.49 -0.13,1.3 -0.13,2.43l0 13.39 -1.75 0 -12.17 -14.47 0 8.61c0,1.12 0.04,1.92 0.13,2.41 0.09,0.47 0.27,0.85 0.55,1.13 0.4,0.42 1.13,0.65 2.2,0.71l0 1.41 -7.46 0 0 -1.41c1.05,-0.05 1.76,-0.29 2.14,-0.71 0.28,-0.28 0.46,-0.65 0.55,-1.13 0.09,-0.49 0.13,-1.29 0.13,-2.41l0 -10.31c-0.66,-0.94 -1.59,-1.43 -2.77,-1.47l0 -1.44zm28.85 2.8l3.45 5.73 2.62 -4.66c0.24,-0.52 0.37,-0.92 0.37,-1.2 0,-0.38 -0.17,-0.69 -0.52,-0.92 -0.35,-0.23 -0.81,-0.34 -1.39,-0.34l-0.55 0 0 -1.41 7.72 0 0 1.41c-1.43,0.1 -2.6,0.92 -3.5,2.43l-3.93 6.72 0 4.55c0,0.91 0.01,1.42 0.03,1.54 0.02,0.17 0.07,0.31 0.16,0.42 0.21,0.26 0.93,0.39 2.17,0.39l0.58 0 0 1.41 -10.57 0 0 -1.41 0.57 0c1.24,0 1.96,-0.13 2.17,-0.39 0.09,-0.1 0.14,-0.24 0.16,-0.42 0.02,-0.12 0.03,-0.64 0.03,-1.54l0 -4.21 -5.34 -8.55c-0.24,-0.38 -0.5,-0.64 -0.77,-0.76 -0.27,-0.12 -0.7,-0.18 -1.3,-0.18l0 -1.41 9.42 0 0 1.41 -0.42 0c-0.98,0 -1.47,0.19 -1.47,0.58 0,0.21 0.11,0.48 0.31,0.81z"/>
   </g>
   <g>
    <path class="fil3" d="M483.59 389.82l5.47 0 -0.02 0.36 0.02 0 -1.22 27.42 -0.01 0 -69.19 0 0 -5.58 1.55 0c4.82,0 7.64,-0.52 8.47,-1.55 0.34,-0.41 0.54,-0.97 0.62,-1.65 0.05,-0.48 0.1,-2.55 0.1,-6.2l0 -77.21c0,-3.51 -0.02,-5.51 -0.1,-5.99 -0.13,-0.76 -0.32,-1.36 -0.62,-1.75 -0.8,-1.05 -3.65,-1.55 -8.47,-1.55l-1.55 0 0 -5.58 40.9 0 0 5.58 -2.27 0c-4.89,0 -7.77,0.5 -8.57,1.55 -0.3,0.39 -0.49,1 -0.62,1.75 -0.08,0.48 -0.1,2.48 -0.1,5.99l0 18.59 39.06 0 0.61 26.5 -5.3 0c-1.63,-5.78 -3.6,-10.26 -5.91,-13.45 -3.67,-5.03 -9.41,-7.54 -17.22,-7.54l-2.85 0c-4.08,0 -6.66,0.75 -7.75,2.24 -0.26,0.37 -0.48,0.92 -0.64,1.66l0 23.32 1.35 0c4.01,0 7.22,-1.24 9.63,-3.72 2.41,-2.48 3.89,-6.06 4.43,-10.75l5.5 0 0 34.55 -5.5 0c-0.54,-4.69 -2.02,-8.27 -4.43,-10.75 -2.41,-2.48 -5.62,-3.72 -9.63,-3.72l-1.35 0 0 22.46c0,2.82 0.56,4.74 1.65,5.78 0.63,0.61 1.41,1.01 2.38,1.19 0.96,0.17 2.72,0.26 5.27,0.26l2.17 0c7.3,0 13.12,-2.58 17.45,-7.75 2.69,-3.31 4.92,-8.12 6.71,-14.46zm-94.93 -25.75c0,17.54 14.22,31.76 31.76,31.76 2.34,0 4.62,-0.25 6.81,-0.73l0 -21.3 -2.14 -2.13c-0.74,0.45 -1.56,0.79 -2.42,1.01l0 3.39 -4.35 0 0 -3.38c-0.87,-0.22 -1.69,-0.56 -2.43,-1.01l-2.39 2.39 -3.08 -3.08 2.39 -2.39c-0.45,-0.75 -0.79,-1.57 -1.01,-2.43l-3.38 0 0 -4.35 3.39 0c0.22,-0.86 0.56,-1.68 1.01,-2.42l-2.41 -2.41 3.08 -3.08 2.41 2.41c0.74,-0.44 1.55,-0.78 2.41,-0.99l0 -3.42 4.35 0 0 3.43c0.85,0.22 1.66,0.55 2.4,1l2.16 -2.16 0 -21.14c-2.2,-0.48 -4.47,-0.73 -6.81,-0.73 -17.54,0 -31.76,14.22 -31.76,31.76z"/>
    <path class="fil4" d="M420.42 398.55c-19.04,0 -34.48,-15.44 -34.48,-34.48 0,-19.04 15.44,-34.48 34.48,-34.48 2.33,0 4.61,0.23 6.81,0.67l0 -4.85c0,-1.62 0.12,-4.08 -0.08,-5.65 -0.03,-0.19 -0.12,-0.64 -0.17,-0.76 -0.9,-0.66 -5.62,-0.74 -6.8,-0.74l-3.7 0 0 -7.72 -5.61 0 0 15.14c-3.8,0.94 -7.39,2.44 -10.67,4.39l-10.69 -10.69 -13.61 13.61 10.65 10.64c-1.99,3.29 -3.51,6.89 -4.47,10.71l-15.02 0 0 19.25 14.98 0c0.95,3.84 2.47,7.47 4.45,10.77l-10.58 10.58 13.61 13.61 10.58 -10.58c3.31,1.98 6.93,3.5 10.77,4.45l0 14.98 5.61 0 0 -7.55 3.7 0c1.18,0 5.91,-0.09 6.84,-0.8 0.05,-0.07 0.1,-0.4 0.12,-0.51 0.19,-1.75 0.09,-4.17 0.09,-5.95l0 -4.75c-2.2,0.44 -4.48,0.67 -6.81,0.67z"/>
   </g>
  </g>
 </g>
</svg>
